<svg width="31" height="30" viewBox="0 0 31 30" fill="none" xmlns="http://www.w3.org/2000/svg">
  <path
    d="M15.5 2.5C19.0095 2.5 19.4473 2.5125 20.8243 2.575C22.1999 2.6375 23.1363 2.84625 23.9604 3.15625C24.8129 3.47375 25.5311 3.90375 26.2493 4.5975C26.9061 5.22237 27.4143 5.97824 27.7385 6.8125C28.0576 7.60875 28.2746 8.51625 28.3392 9.8475C28.3999 11.18 28.4167 11.6038 28.4167 15C28.4167 18.3962 28.4038 18.82 28.3392 20.1525C28.2746 21.4837 28.0576 22.39 27.7385 23.1875C27.4152 24.0222 26.9069 24.7783 26.2493 25.4025C25.6034 26.0379 24.8224 26.5297 23.9604 26.8438C23.1376 27.1525 22.1999 27.3625 20.8243 27.425C19.4473 27.4838 19.0095 27.5 15.5 27.5C11.9905 27.5 11.5527 27.4875 10.1758 27.425C8.80013 27.3625 7.86367 27.1525 7.03959 26.8438C6.17717 26.5306 5.39598 26.0387 4.75075 25.4025C4.09382 24.7777 3.58558 24.0218 3.26146 23.1875C2.94113 22.3912 2.72542 21.4837 2.66084 20.1525C2.60013 18.82 2.58334 18.3962 2.58334 15C2.58334 11.6038 2.59625 11.18 2.66084 9.8475C2.72542 8.515 2.94113 7.61 3.26146 6.8125C3.58468 5.97772 4.09304 5.22165 4.75075 4.5975C5.39616 3.96154 6.17731 3.46966 7.03959 3.15625C7.86367 2.84625 8.79884 2.6375 10.1758 2.575C11.5527 2.51625 11.9905 2.5 15.5 2.5ZM15.5 8.75C13.7871 8.75 12.1444 9.40848 10.9333 10.5806C9.7221 11.7527 9.04167 13.3424 9.04167 15C9.04167 16.6576 9.7221 18.2473 10.9333 19.4194C12.1444 20.5915 13.7871 21.25 15.5 21.25C17.2129 21.25 18.8556 20.5915 20.0667 19.4194C21.2779 18.2473 21.9583 16.6576 21.9583 15C21.9583 13.3424 21.2779 11.7527 20.0667 10.5806C18.8556 9.40848 17.2129 8.75 15.5 8.75ZM23.8958 8.4375C23.8958 8.0231 23.7257 7.62567 23.4229 7.33265C23.1201 7.03962 22.7095 6.875 22.2813 6.875C21.853 6.875 21.4424 7.03962 21.1396 7.33265C20.8368 7.62567 20.6667 8.0231 20.6667 8.4375C20.6667 8.8519 20.8368 9.24933 21.1396 9.54235C21.4424 9.83538 21.853 10 22.2813 10C22.7095 10 23.1201 9.83538 23.4229 9.54235C23.7257 9.24933 23.8958 8.8519 23.8958 8.4375ZM15.5 11.25C16.5277 11.25 17.5133 11.6451 18.24 12.3483C18.9667 13.0516 19.375 14.0054 19.375 15C19.375 15.9946 18.9667 16.9484 18.24 17.6517C17.5133 18.3549 16.5277 18.75 15.5 18.75C14.4723 18.75 13.4867 18.3549 12.76 17.6517C12.0333 16.9484 11.625 15.9946 11.625 15C11.625 14.0054 12.0333 13.0516 12.76 12.3483C13.4867 11.6451 14.4723 11.25 15.5 11.25Z"
    fill="#00E29B" />
</svg>
