<svg width="33" height="32" viewBox="0 0 33 32" fill="none" xmlns="http://www.w3.org/2000/svg">
  <path
    d="M9.5425 6.66654C9.54214 7.37378 9.25205 8.05192 8.73607 8.55176C8.22009 9.05161 7.52047 9.33222 6.79113 9.33187C6.06178 9.33152 5.36245 9.05022 4.84698 8.54988C4.33152 8.04953 4.04214 7.37111 4.0425 6.66387C4.04286 5.95662 4.33295 5.27849 4.84893 4.77864C5.36491 4.27879 6.06453 3.99818 6.79387 3.99854C7.52322 3.99889 8.22255 4.28018 8.73802 4.78053C9.25348 5.28087 9.54287 5.95929 9.5425 6.66654ZM9.625 11.3065H4.125V27.9999H9.625V11.3065ZM18.315 11.3065H12.8425V27.9999H18.26V19.2399C18.26 14.3599 24.8188 13.9065 24.8188 19.2399V27.9999H30.25V17.4265C30.25 9.19987 20.5425 9.50654 18.26 13.5465L18.315 11.3065Z"
    fill="#00E29B" />
</svg>
