<svg width="42" height="42" viewBox="0 0 42 42" fill="none" xmlns="http://www.w3.org/2000/svg">
  <path
    d="M36.75 31.5H10.5C10.0359 31.5 9.59075 31.6844 9.26256 32.0126C8.93437 32.3408 8.75 32.7859 8.75 33.25C8.75 33.7141 8.93437 34.1592 9.26256 34.4874C9.59075 34.8156 10.0359 35 10.5 35H36.75V38.5H10.5C9.10761 38.5 7.77226 37.9469 6.78769 36.9623C5.80312 35.9777 5.25 34.6424 5.25 33.25V7C5.25 6.07174 5.61875 5.1815 6.27513 4.52513C6.9315 3.86875 7.82174 3.5 8.75 3.5H36.75V31.5ZM28 15.75V12.25H14V15.75H28Z"
    fill="#001A11" />
</svg>
