<svg width="25" height="24" viewBox="0 0 25 24" fill="none" xmlns="http://www.w3.org/2000/svg">
<path d="M17.1777 24V14.712H20.3856L20.8655 11.1013H17.1777V8.79733C17.1777 7.752 17.4775 7.03867 19.023 7.03867H20.9947V3.80933C20.0402 3.71113 19.0809 3.6635 18.121 3.66667C15.2789 3.66667 13.3333 5.34933 13.3333 8.44V11.1013H10.1185V14.712H13.3333V24H1.5C1.13533 24 0.785591 23.8595 0.527728 23.6095C0.269866 23.3594 0.125 23.0203 0.125 22.6667V1.33333C0.125 0.979711 0.269866 0.640573 0.527728 0.390524C0.785591 0.140476 1.13533 0 1.5 0H23.5C23.8647 0 24.2144 0.140476 24.4723 0.390524C24.7301 0.640573 24.875 0.979711 24.875 1.33333V22.6667C24.875 23.0203 24.7301 23.3594 24.4723 23.6095C24.2144 23.8595 23.8647 24 23.5 24H17.1777Z" fill="#00E29B"/>
</svg>
