<svg width="39" height="40" viewBox="0 0 39 40" fill="none" xmlns="http://www.w3.org/2000/svg">
  <path
    d="M3.80487 37.1429C3.80487 33.7141 5.15325 30.4258 7.55338 28.0012C9.95351 25.5767 13.2088 24.2146 16.6031 24.2146C19.9974 24.2146 23.2527 25.5767 25.6528 28.0012C28.0529 30.4258 29.4013 33.7141 29.4013 37.1429H3.80487ZM16.6031 22.5986C11.2998 22.5986 7.00442 18.2596 7.00442 12.9024C7.00442 7.54528 11.2998 3.20624 16.6031 3.20624C21.9063 3.20624 26.2017 7.54528 26.2017 12.9024C26.2017 18.2596 21.9063 22.5986 16.6031 22.5986ZM31.3946 6.73565C32.1936 8.69131 32.6035 10.7868 32.6009 12.9024C32.6035 15.0181 32.1936 17.1135 31.3946 19.0692L28.7118 17.0976C29.1696 15.7473 29.4026 14.3297 29.4013 12.9024C29.4031 11.4752 29.1706 10.0576 28.7134 8.70721L31.3946 6.73565ZM36.6771 2.85718C38.21 5.97907 39.0051 9.4176 39 12.9024C39 16.511 38.1633 19.9225 36.6771 22.9477L34.0455 21.0149C35.2056 18.4712 35.8044 15.7031 35.8004 12.9024C35.8004 10.0065 35.1717 7.25763 34.0455 4.78995L36.6771 2.85718Z"
    fill="#001A11" />
</svg>
