<svg width="43" height="44" viewBox="0 0 43 44" fill="none" xmlns="http://www.w3.org/2000/svg">
  <path
    d="M31.9795 21.6481L30.7128 20.3519L12.9753 38.5019H5.375V30.7231L25.6441 9.98072L35.7796 20.3519C36.1155 20.6957 36.3042 21.1619 36.3042 21.6481C36.3042 22.1342 36.1155 22.6004 35.7796 22.9442L23.1125 35.9077L20.5773 33.3154L31.9795 21.6481ZM33.2462 4.79605L38.3148 9.98072C38.6507 10.3245 38.8394 10.7908 38.8394 11.2769C38.8394 11.763 38.6507 12.2293 38.3148 12.5731L35.7796 15.1672L28.1793 7.38839L30.7128 4.79605C31.0487 4.45236 31.5044 4.25928 31.9795 4.25928C32.4545 4.25928 32.9102 4.45236 33.2462 4.79605Z"
    fill="#001A11" />
</svg>
