<?xml version="1.0" standalone="no"?>
<!DOCTYPE svg PUBLIC "-//W3C//DTD SVG 20010904//EN"
 "http://www.w3.org/TR/2001/REC-SVG-20010904/DTD/svg10.dtd">
<svg version="1.0" xmlns="http://www.w3.org/2000/svg"
 width="113.000000pt" height="120.000000pt" viewBox="0 0 113.000000 120.000000"
 preserveAspectRatio="xMidYMid meet">

<g transform="translate(0.000000,120.000000) scale(0.100000,-0.100000)"
fill="#000000" stroke="none">
<path d="M770 1111 c0 -11 14 -28 33 -40 18 -11 59 -47 91 -81 153 -160 176
-403 55 -592 -66 -102 -203 -198 -305 -214 -34 -5 -43 -10 -47 -31 -4 -23 -3
-24 37 -17 65 10 141 42 206 85 143 96 230 261 230 439 0 175 -87 343 -224
434 -62 41 -76 44 -76 17z"/>
<path d="M520 1042 c-54 -6 -114 -24 -176 -53 -165 -78 -232 -312 -142 -501
46 -97 87 -137 173 -170 91 -34 119 -40 215 -40 67 0 90 4 134 26 67 33 149
119 184 193 24 52 27 70 27 163 0 94 -3 111 -28 166 -36 78 -104 143 -186 179
-62 27 -150 43 -201 37z m115 -82 c63 -29 128 -70 111 -70 -4 0 7 -13 23 -29
22 -22 32 -42 37 -80 5 -39 3 -51 -6 -51 -8 0 -11 -3 -7 -6 3 -4 0 -13 -8 -20
-7 -8 -15 -18 -17 -24 -2 -6 -10 -12 -18 -14 -8 -1 -25 -7 -37 -14 -12 -7 -30
-12 -40 -12 -16 -1 -16 -2 2 -12 30 -17 185 -159 185 -170 0 -5 -41 -7 -92 -6
-82 3 -94 5 -102 23 -5 11 -27 35 -49 54 -44 39 -61 36 -87 -15 -8 -16 -18
-30 -22 -32 -5 -2 -8 -9 -8 -16 0 -20 -43 -52 -64 -48 -11 2 -16 0 -12 -6 4
-7 -7 -7 -32 1 -41 13 -102 58 -102 76 0 6 -4 11 -10 11 -5 0 -14 19 -21 42
-6 24 -19 59 -29 78 -72 143 12 310 183 366 62 20 141 11 222 -26z"/>
</g>
</svg>
