<svg width="39" height="38" viewBox="0 0 39 38" fill="none" xmlns="http://www.w3.org/2000/svg"
  style="--ico-color:white;">
  <path
    d="M19.3598 5.54175C26.9348 5.54175 33.0748 11.5676 33.0748 19.0003C33.0748 26.4329 26.9343 32.4593 19.3598 32.4593C11.7852 32.4593 5.64528 26.4334 5.64528 19.0003C5.64528 11.5671 11.7857 5.54175 19.3598 5.54175ZM19.3598 5.23833C16.1148 5.23821 12.9702 6.34224 10.4618 8.3623C7.95331 10.3824 6.23622 13.1935 5.60307 16.3167C4.96992 19.4398 5.45988 22.6818 6.98946 25.4902C8.51905 28.2987 10.9936 30.4997 13.9915 31.7184C16.9895 32.9371 20.3252 33.0979 23.4305 32.1736C26.5357 31.2493 29.2183 29.2969 31.0211 26.6492C32.8239 24.0015 33.6355 20.8223 33.3174 17.6533C32.9994 14.4842 31.5715 11.5214 29.2769 9.26971C27.9777 7.9876 26.4322 6.97113 24.7299 6.27914C23.0276 5.58715 21.2023 5.23339 19.3598 5.23833Z"
    fill="var(--ico-color)" />
  <path opacity="0.8"
    d="M27.5752 5.48752C27.7638 5.6013 27.9534 5.70902 28.1359 5.82431L28.6666 6.18841L28.9294 6.36844C29.0176 6.4271 29.0969 6.49689 29.1809 6.5606L29.6766 6.94948C29.8457 7.07439 29.9941 7.22154 30.1518 7.35859L30.6181 7.7778L31.0592 8.22686C31.2061 8.37857 31.3576 8.52522 31.4921 8.69007C32.6 9.99173 33.5801 11.5149 34.2402 13.2307C34.5891 14.0803 34.8354 14.9824 35.0204 15.9043C35.0599 16.1359 35.0999 16.3683 35.1405 16.6016C35.1729 16.8358 35.192 17.0729 35.2162 17.3096L35.2518 17.6636L35.2672 18.0176C35.276 18.2542 35.2946 18.4909 35.2899 18.7291C35.2976 19.1392 35.21 20.3397 35.3147 20.233C35.1566 22.063 34.6881 23.8542 33.9285 25.5327C33.1749 27.1801 32.1297 28.6834 30.8412 29.9727C30.2901 30.5125 29.6895 31.0014 29.0469 31.4331C28.4042 31.8585 27.7384 32.2494 27.0527 32.6043C25.9591 33.1666 24.7997 33.5957 23.6001 33.8822C22.4184 34.1604 21.2138 34.3349 20.0006 34.4035C19.8332 34.4233 19.5673 34.4399 19.3075 34.4612C19.0478 34.4824 18.7922 34.4784 18.6526 34.4733C17.8328 34.4181 17.0169 34.3168 16.209 34.1699C15.4221 34.0293 14.6451 33.8394 13.8829 33.6015C13.1292 33.3678 12.391 33.0883 11.6727 32.7646C10.9546 32.4377 10.2613 32.0608 9.59805 31.6369C9.46871 31.5509 9.3404 31.4715 9.2193 31.3871L8.86528 31.1373L8.69317 31.0154L8.52827 30.8885L8.20362 30.6381C7.9908 30.4687 7.78673 30.2912 7.57597 30.1122L7.26678 29.826C7.16372 29.7289 7.05602 29.6313 6.95399 29.5226C6.87143 29.4761 6.79626 29.418 6.73086 29.3501C6.6381 29.2632 6.52474 29.1555 6.40776 29.0336L6.06559 28.6482C5.92337 28.4748 5.75177 28.2634 5.56677 28.0252C5.33334 27.7137 5.0798 27.3552 4.83503 26.9749C4.6995 26.7645 4.56655 26.5476 4.44082 26.3291C4.35064 26.1774 4.27077 26.0192 4.1878 25.8669L4.06979 25.6419C4.03338 25.5657 3.99696 25.4904 3.96055 25.4159L3.75442 24.9855C3.69516 24.8454 3.63848 24.7114 3.58489 24.586C3.53129 24.4606 3.48182 24.3448 3.44266 24.2366C3.4035 24.1284 3.36846 24.0303 3.3396 23.9448C3.27982 23.7744 3.23963 23.654 3.2252 23.5989C3.21798 23.5716 3.27106 23.6914 3.36897 23.9225C3.4205 24.0368 3.47203 24.182 3.55088 24.3453C3.62972 24.5086 3.71526 24.6937 3.81162 24.897C3.90799 25.1003 4.0296 25.3137 4.15018 25.5438C4.27953 25.7693 4.4166 26.008 4.56243 26.2518C4.63973 26.3716 4.71702 26.494 4.79741 26.6179C4.83761 26.6796 4.87729 26.7418 4.918 26.804L5.04889 26.9876L5.30654 27.3587L5.58532 27.7223C5.76774 27.9676 5.97181 28.1962 6.16453 28.4303C6.2609 28.5456 6.36551 28.6528 6.46445 28.7625C6.56338 28.8723 6.65975 28.981 6.76229 29.0811C7.16372 29.4907 7.55278 29.8569 7.90062 30.1502C8.59216 30.7423 9.08583 31.071 9.05955 31.0366C9.03945 31.0164 8.94051 30.9436 8.78695 30.8242C8.63339 30.7049 8.42623 30.5395 8.18713 30.3368C7.60586 29.8464 7.05746 29.3197 6.54535 28.76C6.01753 28.1852 5.5329 27.5735 5.09526 26.9299C4.99787 26.7949 4.91439 26.6634 4.83761 26.543C4.76083 26.4227 4.69332 26.314 4.63148 26.2194C4.51451 26.0283 4.44082 25.8882 4.40629 25.8275C4.58871 26.1425 4.79226 26.4343 4.98344 26.7241L5.28644 27.1403C5.33797 27.208 5.38487 27.2773 5.4364 27.3425L5.59099 27.5377C5.98055 28.0307 6.39774 28.5021 6.84062 28.9496C7.59718 29.7072 8.42367 30.3944 9.30948 31.0022C10.5189 31.8304 11.8316 32.5028 13.2155 33.0028C13.4655 33.0862 13.6907 33.1666 13.8973 33.2303L14.4549 33.3932C14.7878 33.4771 15.0351 33.5398 15.2093 33.5772C15.5592 33.646 15.6045 33.6506 15.42 33.6061C14.3254 33.3519 13.2575 32.9976 12.2303 32.5476C10.5621 31.8131 9.02024 30.8288 7.65997 29.6298L7.34717 29.3309L7.00707 28.9941C6.88545 28.8788 6.76642 28.7509 6.64068 28.6179C6.51495 28.4849 6.38303 28.3489 6.25317 28.1972C5.63168 27.5038 5.08028 26.7529 4.60675 25.9549C4.68817 26.0945 4.79123 26.2386 4.90151 26.3979C4.95716 26.4768 5.01436 26.5586 5.0731 26.6432C5.13237 26.7266 5.19936 26.809 5.26377 26.896C5.3962 27.0649 5.52761 27.2434 5.67602 27.4113C5.82443 27.5792 5.9615 27.7562 6.11403 27.917C6.26657 28.0778 6.40364 28.2376 6.54896 28.3792L6.94884 28.7782L7.51104 29.3021C7.77179 29.5332 7.99183 29.7335 8.19847 29.8938L8.48292 30.1223C8.57258 30.1921 8.65967 30.2533 8.74057 30.313C9.06058 30.5537 9.3203 30.7175 9.58362 30.896C9.71606 30.984 9.85571 31.067 10.0057 31.1636C10.0809 31.2106 10.1603 31.2647 10.2432 31.3153L10.5148 31.4766L10.824 31.6612L11.1847 31.8634L11.3862 31.9757L11.6073 32.089C11.7618 32.1648 11.9216 32.2548 12.1019 32.3373C12.7737 32.6591 13.4693 32.9306 14.1828 33.1494C14.994 33.4004 15.8247 33.5864 16.6666 33.7057C17.4816 33.8211 18.3048 33.8719 19.1282 33.8574C19.797 33.8426 20.4643 33.7889 21.1266 33.6966C20.2866 33.8598 19.4331 33.9463 18.5768 33.955C17.5768 33.9662 16.5791 33.8582 15.6055 33.6334C16.3454 33.8234 17.1017 33.9451 17.8647 33.997L18.3212 34.0131L18.5382 34.0187L18.75 34.0141L19.1622 34.003C19.2972 33.997 19.4307 33.9838 19.5642 33.9742C20.0985 33.9373 20.6329 33.8579 21.2683 33.7588C21.9032 33.643 22.6421 33.5059 23.5702 33.2667C23.7418 33.2162 23.9263 33.1626 24.1211 33.1024C24.3159 33.0422 24.5153 32.9613 24.7245 32.8849C25.128 32.7519 25.5093 32.622 25.9752 32.4298C26.6762 32.1221 27.3516 31.7609 27.9952 31.3497C28.6117 30.9481 29.1973 30.5025 29.7472 30.0166C30.2919 29.5313 30.798 29.0059 31.2612 28.445C31.3751 28.3013 31.4972 28.1638 31.606 28.0151L31.9368 27.5686C32.1429 27.2606 32.3588 26.9516 32.55 26.6224C32.4191 26.8495 32.2924 26.9668 32.1378 27.1822C31.4202 28.2038 30.5866 29.142 29.6529 29.9787C29.538 30.0799 29.4169 30.178 29.2989 30.2786L29.1206 30.4303C29.0603 30.4809 28.9969 30.5254 28.9351 30.5734L28.5589 30.8596L28.1637 31.1307C28.0967 31.1757 28.0312 31.2227 27.9627 31.2667L27.7566 31.3947C27.6164 31.4791 27.4778 31.5696 27.3315 31.6505L26.8857 31.8923C26.7373 31.9767 26.5765 32.044 26.4219 32.1213C26.1797 32.2382 25.8896 32.3742 25.5974 32.5208C25.4516 32.5947 25.2991 32.6554 25.1532 32.7231C25.0074 32.7909 24.8657 32.849 24.7286 32.891C23.6279 33.2713 22.6035 33.4589 21.527 33.5929C22.6586 33.3962 23.7706 33.1037 24.8507 32.7186C25.9659 32.3079 27.0594 31.78 28.0189 31.1509C28.1168 31.0832 28.2178 31.0098 28.3193 30.934C28.4208 30.8581 28.5254 30.7823 28.6161 30.6988L28.8872 30.4642L29.0098 30.3575L29.116 30.2563C28.2859 30.9107 27.3859 31.4746 26.4317 31.9383C24.6181 32.8408 22.6581 33.4262 20.6396 33.6683C19.674 33.7796 18.6991 33.79 17.7312 33.6991C16.9317 33.6292 16.1417 33.4785 15.3737 33.2495C15.2938 33.2354 15.2155 33.2197 15.0573 33.1823C15.0191 33.1661 14.9666 33.1474 14.9068 33.1287C14.3498 32.9775 13.8065 32.7813 13.2825 32.5421C13.5067 32.6336 13.735 32.7145 13.9612 32.8015C14.191 32.8784 14.4208 32.9532 14.6517 33.0291C16.4893 33.4938 18.5243 33.7294 20.5747 33.5434C22.6251 33.3436 24.7003 32.7878 26.5008 31.8538C26.7033 31.7527 26.9285 31.6222 27.1784 31.4943C27.3041 31.4321 27.4263 31.3547 27.5546 31.2834C27.6829 31.2121 27.8122 31.1388 27.94 31.0589C28.1905 30.8976 28.4486 30.7448 28.6718 30.5759L28.998 30.3383C29.0974 30.2569 29.1902 30.179 29.2752 30.1057C29.5329 29.8973 29.7658 29.6637 30.0106 29.4397C30.2404 29.201 30.481 28.9709 30.698 28.7175C30.9263 28.4743 31.1298 28.2118 31.3437 27.9529C31.5405 27.6829 31.7487 27.4209 31.9291 27.1388C32.1223 26.8657 32.2898 26.5749 32.4634 26.2907L32.7036 25.8508C32.7865 25.7061 32.8582 25.5554 32.9303 25.4052C33.0025 25.255 33.0808 25.1079 33.1442 24.9537C33.2076 24.7994 33.2745 24.6502 33.34 24.4985C33.4054 24.3468 33.458 24.1885 33.5178 24.0343C33.5775 23.8801 33.6358 23.7253 33.6832 23.5676C34.0518 22.4297 34.2883 21.2546 34.3881 20.0646C34.4915 18.8706 34.4647 17.6692 34.3083 16.4808C33.9622 14.0896 33.0088 11.8223 31.5359 9.88755C30.0606 7.94153 28.1355 6.3671 25.919 5.29384C24.8041 4.76416 23.6273 4.37034 22.4149 4.12114C21.808 3.99925 21.1939 3.9148 20.5762 3.86829C20.2671 3.83745 19.9579 3.83644 19.6487 3.82278H19.1849C19.1071 3.82278 19.0303 3.82278 18.952 3.82278L18.7201 3.8334L18.3748 3.86273C18.2604 3.87386 18.1465 3.88953 18.0332 3.90268L18.3305 3.89914L17.6848 3.94567C16.4244 4.12772 15.0521 4.42405 15.235 4.35376L14.8599 4.4549L14.6904 4.50547L14.7785 4.43012C14.5724 4.50749 16.9856 3.79497 18.3857 3.65944C19.7957 3.52445 21.2182 3.58454 22.6112 3.83795C22.4566 3.77221 22.1706 3.72114 21.8728 3.67209C21.7244 3.64528 21.5718 3.63011 21.4322 3.61595L21.0658 3.57651C24.0149 3.44554 27.5355 5.43392 27.5355 5.43392L27.5752 5.48752ZM34.5154 21.0881C34.64 20.3609 34.7202 19.627 34.7555 18.8904C34.7555 18.7579 34.7612 18.6254 34.7607 18.4934L34.7499 18.096C34.7437 17.9321 34.7458 17.7607 34.7257 17.5872C34.7056 17.4138 34.6855 17.2332 34.6623 17.0542C34.5369 15.6381 34.1934 14.2489 33.6435 12.9338C33.7079 13.1007 33.7589 13.2737 33.8182 13.4446C33.8775 13.6155 33.9362 13.7875 33.9893 13.9629C34.0424 14.1384 34.0846 14.3194 34.1336 14.5005C34.1825 14.6815 34.2366 14.8631 34.2701 15.0527C34.3454 15.4299 34.4391 15.8138 34.4866 16.2219C34.5013 16.323 34.5164 16.4251 34.5319 16.5283C34.5463 16.6294 34.5675 16.7351 34.5726 16.8413C34.5906 17.0532 34.6097 17.2692 34.6283 17.4901C34.6143 17.348 34.6004 17.2059 34.586 17.0649L34.5654 16.8535L34.5556 16.7478L34.5381 16.6436C34.492 16.3658 34.4465 16.09 34.4015 15.8163L34.2155 15.0102C34.1887 14.8752 34.1449 14.7457 34.1057 14.6153L33.9882 14.2249C33.6646 13.2074 33.2402 12.2236 32.7211 11.2873C32.196 10.3707 31.5831 9.50522 30.8907 8.70272L30.3507 8.11308C30.1636 7.92294 29.9657 7.7419 29.772 7.55682C29.5782 7.37173 29.3695 7.19828 29.1613 7.02382L28.847 6.76288L28.7676 6.69714L28.6847 6.63747L28.5177 6.51711C27.973 6.12615 27.4024 5.77137 26.8094 5.45516L26.3544 5.22557C26.1998 5.15124 26.0519 5.0678 25.8906 5.00459C25.5758 4.86957 25.2609 4.72898 24.9322 4.61723C24.0288 4.29062 23.0928 4.05874 22.1397 3.92544C22.8729 4.05082 23.5947 4.23328 24.2983 4.47108C24.3859 4.50041 24.4746 4.52671 24.5611 4.55857L24.8188 4.6597C24.9909 4.72747 25.1651 4.78815 25.3341 4.86198C25.6701 5.01369 26.0102 5.15326 26.3318 5.33126C27.6361 5.99428 28.8368 6.83742 29.8972 7.83495C32.0022 9.81676 33.5281 12.37 34.1789 15.1245C34.5133 16.4995 34.6056 17.9134 34.5494 19.3283C34.4762 20.7387 34.2567 22.1435 33.8218 23.4851L33.743 23.738C33.7162 23.8219 33.6827 23.9038 33.6528 23.9868C33.5909 24.1516 33.5332 24.318 33.4683 24.4818L33.2622 24.9683L33.2106 25.0897L33.1529 25.2085L33.0375 25.4467C32.7302 26.0818 32.3716 26.6918 31.9651 27.2707C31.9136 27.3436 31.8667 27.4179 31.8141 27.4887L31.6534 27.7001C31.5446 27.8396 31.4436 27.9858 31.3261 28.1188L30.9835 28.5233L30.6227 28.9137C30.1275 29.4264 29.5958 29.9038 29.0315 30.3423C30.5198 29.249 31.7648 27.8689 32.6902 26.2867C33.6188 24.7124 34.2263 22.9466 34.5154 21.0881ZM34.3515 22.4495C34.1843 23.1787 33.9677 23.8962 33.7033 24.5971C33.4361 25.2868 33.1176 25.9563 32.7505 26.6002C32.2385 27.4754 31.6319 28.294 30.9412 29.0417C30.2646 29.7732 29.5143 30.4357 28.7017 31.0189C27.9597 31.5505 27.1735 32.0199 26.3513 32.4222C25.5892 32.7969 24.8714 33.0842 24.252 33.3193C25.9993 32.7585 27.6341 31.9042 29.0835 30.7944C30.5746 29.6462 31.8206 28.221 32.7505 26.6002C32.633 26.7918 32.5346 26.9668 32.4366 27.115C32.3387 27.2632 32.2516 27.3906 32.179 27.5003C32.1063 27.6101 32.0414 27.6991 31.9878 27.7699L31.8672 27.9322C31.7559 28.0839 31.8399 27.9721 32.0816 27.6505C32.1939 27.4836 32.347 27.2647 32.5222 26.9931L32.7948 26.538C32.8927 26.3747 32.9829 26.1911 33.0865 26.0009C33.5672 25.0685 33.9433 24.0876 34.2083 23.0755C34.2284 22.9643 34.283 22.7332 34.3515 22.449V22.4495Z"
    fill="var(--ico-color)" />
  <path
    d="M19.3598 5.5415C11.7847 5.5415 5.64529 11.5673 5.64529 19C5.64529 26.4327 11.7857 32.459 19.3598 32.459C26.9338 32.459 33.0748 26.4332 33.0748 19C33.0748 11.5668 26.9343 5.5415 19.3598 5.5415ZM19.3598 31.9508C12.0712 31.9508 6.16267 26.1525 6.16267 19C6.16267 11.8475 12.0712 6.04922 19.3598 6.04922C26.6483 6.04922 32.5569 11.8475 32.5569 19C32.5569 26.1525 26.6483 31.9508 19.3598 31.9508Z"
    fill="var(--ico-color)" />
  <path
    d="M12.011 13.769L16.4617 18.7461L11.8038 24.333H16.0479L19.4634 20.3714L23.0861 24.333H27.2266L22.4651 19.051L27.0194 13.769L23.0345 13.8196L19.6185 17.4763L16.0995 13.8196L12.011 13.769Z"
    fill="var(--ico-color)" />
  <path d="M23.6554 24.9931L24.5871 26.1106H31.1078L24.0697 20.1177L28.4169 24.9931H23.6554Z" fill="var(--ico-color)" />
  <path d="M15.6423 13.2103L14.7111 12.0933H8.18988L15.3749 18.289L10.8814 13.2103H15.6423Z" fill="var(--ico-color)" />
  <path
    d="M36.9246 20.0126C36.9401 19.8442 36.9416 19.692 36.9489 19.5893C36.9683 18.6432 36.9201 17.697 36.8046 16.7575C36.6882 15.8373 36.5003 14.9273 36.2424 14.0353C35.9929 13.1679 35.6772 12.3201 35.2978 11.4993C34.9283 10.7074 34.4976 9.9445 34.0095 9.21709C33.5276 8.53018 32.9973 7.87725 32.4224 7.26309C31.8352 6.64393 31.206 6.0646 30.5389 5.52907C29.864 4.99198 29.1534 4.49969 28.4117 4.05548C27.6973 3.63209 26.9534 3.25848 26.1856 2.93739C24.6469 2.28437 23.0088 1.88573 21.3375 1.75761L20.9211 1.73283C20.7825 1.72474 20.6439 1.72626 20.5058 1.72222C20.3677 1.71817 20.2291 1.71463 20.091 1.71716L19.6787 1.72474C19.5401 1.72474 19.4025 1.73182 19.2665 1.74042L18.8517 1.76318L18.4394 1.79959C18.3008 1.81122 18.1622 1.82436 18.0241 1.84308C16.8828 1.9762 15.7556 2.20735 14.6555 2.53385C14.2561 2.64622 13.8673 2.79206 13.4934 2.96976C13.4223 3.00415 13.361 3.0355 13.3146 3.06129C13.2821 3.0787 13.2512 3.09901 13.2224 3.12197C13.1904 3.1508 13.2224 3.15383 13.343 3.12197C13.7408 3.0001 14.1515 2.88177 14.5663 2.77153C15.709 2.42867 16.8858 2.20676 18.0766 2.10958C18.682 2.05801 19.2896 2.03624 19.8972 2.04434C20.2007 2.0408 20.5037 2.06356 20.8057 2.07165L21.2576 2.10401C21.4076 2.11463 21.5581 2.12323 21.707 2.14194C22.6158 2.25475 23.5171 2.41989 24.4062 2.63651C24.5958 2.70073 24.8968 2.77911 25.1792 2.88278C25.4615 2.98645 25.7336 3.09264 25.8681 3.19277C23.2181 2.18929 20.3458 1.8869 17.5392 2.3159C17.6937 2.31084 17.8282 2.33613 18.0431 2.29365L17.9442 2.36647L18.1204 2.35029C18.2235 2.33865 18.3683 2.33056 18.51 2.32298C18.3168 2.36192 17.869 2.41754 17.535 2.46963C17.2011 2.52172 16.979 2.56015 17.2346 2.54346C17.853 2.47367 18.4765 2.43271 19.1026 2.40895C19.7287 2.38518 20.3605 2.39327 20.9953 2.42715L21.3159 2.46963C21.4231 2.48278 21.5297 2.49744 21.6359 2.5202C21.5411 2.49441 21.4447 2.46963 21.3458 2.45244C21.4596 2.458 21.5735 2.46963 21.6879 2.48278L22.0322 2.51868C22.1867 2.53992 22.3367 2.5733 22.4882 2.60313C22.5629 2.61881 22.6376 2.63297 22.7124 2.64763C22.8577 2.69112 22.9978 2.73967 23.1359 2.78923C23.2859 2.84283 23.4353 2.89037 23.5863 2.94852C23.8868 3.06685 24.2016 3.1776 24.5531 3.32476C25.51 3.69239 26.5045 4.12375 27.4517 4.66332C28.3965 5.19045 29.2829 5.81278 30.0963 6.52023C32.3918 8.5458 34.0718 11.1549 34.9505 14.0591C35.165 14.791 35.3326 15.5353 35.4524 16.2877C35.5635 17.0465 35.6282 17.8111 35.6462 18.5775C35.6773 20.1222 35.4965 21.6641 35.1087 23.1616C35.0252 23.4549 34.8304 24.0996 34.6769 24.5826C35.0243 23.6733 35.2882 22.7354 35.4653 21.78C35.6359 20.8282 35.7247 19.864 35.7307 18.8976C35.7525 16.9772 35.4388 15.0673 34.8031 13.251C34.1601 11.4379 33.1917 9.75229 31.9436 8.27397C30.6765 6.77436 29.1528 5.50291 27.4409 4.51667C26.0032 3.67542 24.4443 3.05196 22.817 2.66735C22.8587 2.67595 22.9005 2.68404 22.9422 2.69416C23.2421 2.7695 23.5436 2.83423 23.8388 2.92526C24.4313 3.094 25.0139 3.29421 25.5842 3.52501C25.8656 3.6489 26.151 3.76016 26.4257 3.8977L26.8379 4.09998L27.244 4.3149L27.446 4.42312L27.6444 4.53892L28.0402 4.77002L28.4256 5.0168L28.6183 5.14019L28.8059 5.27167L29.18 5.53362L29.5408 5.81023L29.7221 5.94879L29.8979 6.09393L30.2483 6.3847C30.7064 6.78276 31.1423 7.20479 31.5541 7.64893C32.3781 8.53136 33.0981 9.50219 33.7003 10.543C34.8974 12.6211 35.6108 14.9335 35.7894 17.3142C35.9801 19.6789 35.6807 22.0763 34.8773 24.2817C34.7743 24.5623 34.6614 24.8379 34.5408 25.1151C34.5485 25.0084 34.6042 24.8147 34.6748 24.5815C34.6233 24.7282 34.5583 24.8708 34.4991 25.0149C34.4398 25.159 34.3795 25.3042 34.31 25.4463C33.7008 26.7877 32.9116 28.0432 31.9632 29.1793C32.4128 28.6792 32.8296 28.1517 33.2113 27.6C33.1706 27.6617 33.1314 27.7249 33.0902 27.7866C32.3618 28.8782 31.5133 29.8879 30.56 30.7975C30.3799 30.9726 30.1907 31.1386 29.9932 31.2946C29.8865 31.3821 29.769 31.464 29.6536 31.551L29.4748 31.68L29.2924 31.8043C28.81 32.1427 28.3014 32.4385 27.9314 32.6812C26.2386 33.7376 24.2557 34.4673 22.263 34.8633C20.2703 35.2592 18.2523 35.324 16.3833 35.1738L15.6748 35.0544C15.4398 35.0079 15.2063 34.9533 14.9719 34.9063C15.519 35.066 16.0794 35.1781 16.6466 35.241C16.6988 35.2488 16.7505 35.2598 16.8012 35.2739L17.1212 35.2901C17.9054 35.4064 18.6994 35.4472 19.4917 35.412C20.4542 35.3707 21.4106 35.2412 22.3486 35.0251C23.3463 34.7957 24.3227 34.4842 25.2673 34.0941C26.1701 33.723 27.0427 33.2847 27.8773 32.7829C27.9917 32.7186 28.103 32.6499 28.2133 32.5806L28.5472 32.3702C28.7621 32.2185 28.9837 32.0825 29.1919 31.9252C29.6186 31.6248 30.0195 31.2936 30.4142 30.9578C30.2895 31.0898 30.1313 31.2612 29.9571 31.4347C29.7817 31.6079 29.5965 31.7712 29.4021 31.9237C28.4707 32.6207 27.4658 33.2177 26.4046 33.7042C25.374 34.1714 24.31 34.5639 23.221 34.8785C24.2671 34.6544 25.2642 34.3889 26.317 33.9227C26.5772 33.8125 26.8591 33.6436 27.1373 33.4817C27.4105 33.3103 27.681 33.1454 27.9103 33.017C28.4871 32.6911 29.0391 32.3245 29.5619 31.9202C30.0519 31.5377 30.5202 31.1292 30.9646 30.6964C31.399 30.2681 31.8061 29.822 32.2039 29.3558C32.6017 28.8895 32.9768 28.395 33.3582 27.868C33.4808 27.69 33.6045 27.5884 33.7143 27.4311C32.9786 28.6387 32.0961 29.754 31.0862 30.7525C30.0307 31.7917 28.829 32.6772 27.5176 33.3821L27.1971 33.5389C27.0941 33.5894 26.991 33.6309 26.8957 33.6749L26.6071 33.8028L26.317 33.9202C26.218 33.9707 26.1227 34.0213 26.0258 34.0628L25.7419 34.1882C25.5564 34.2666 25.3812 34.3475 25.2157 34.4031C24.3237 34.7262 23.6095 34.928 22.9973 35.1111C22.6881 35.1925 22.4083 35.282 22.1357 35.3447C21.8631 35.4074 21.606 35.4833 21.3452 35.5343L20.9531 35.6173C20.8217 35.6441 20.6872 35.6623 20.5506 35.6845L20.1286 35.7472L19.6772 35.7887C19.3649 35.8211 19.0269 35.8216 18.6512 35.8261C18.2766 35.815 17.8633 35.8034 17.4041 35.7467C18.2498 35.8287 19.3561 35.7862 20.3703 35.6274C20.8784 35.5525 21.3633 35.4479 21.7879 35.3432L22.3759 35.1864L22.8469 35.0347L22.4248 35.1359C22.2764 35.1702 22.1156 35.1986 21.9549 35.2329C21.6287 35.3063 21.271 35.3568 20.8959 35.4201C20.0878 35.5336 19.2732 35.5961 18.4569 35.6072C17.6139 35.617 16.7714 35.5624 15.9371 35.4438C15.533 35.3933 15.1481 35.3123 14.7822 35.2415C14.4215 35.1536 14.0757 35.0787 13.7686 34.9801C13.0127 34.7611 12.4876 34.5573 12.0681 34.4016C11.8573 34.3283 11.6821 34.2499 11.5162 34.1836C11.3503 34.1174 11.1993 34.0628 11.0555 33.997C10.7664 33.8701 10.4804 33.7604 10.1238 33.5819C9.94398 33.4949 9.74146 33.4003 9.51576 33.2719L9.14834 33.0696C9.01642 32.9983 8.88296 32.9088 8.73609 32.8167C8.61036 32.7353 8.3728 32.6008 8.08577 32.4122C7.942 32.3176 7.77658 32.2215 7.61168 32.1052L7.0907 31.7427C6.42238 31.2583 5.79084 30.727 5.20106 30.1528C5.83125 30.833 6.52287 31.4558 7.26746 32.0137C7.89717 32.4997 8.46349 32.8506 8.91645 33.1591C9.70628 33.6254 10.5293 34.0352 11.3791 34.3854C12.2034 34.7259 13.0524 35.0054 13.9191 35.2218C15.0025 35.4871 16.1062 35.6648 17.2191 35.7533C17.4067 35.7675 17.3609 35.7756 17.0068 35.7624C16.8306 35.7498 16.5766 35.7341 16.237 35.7037L15.6645 35.636C15.4501 35.6127 15.2172 35.5652 14.958 35.5242C13.514 35.2681 12.1088 34.834 10.7757 34.2322C9.79624 33.7932 8.85906 33.2685 7.97549 32.6645C6.8798 31.9154 5.86702 31.0557 4.95371 30.0997C4.99545 30.1553 5.10418 30.2706 5.25826 30.4329C5.41234 30.5952 5.60867 30.8097 5.85293 31.0367L6.2358 31.4023L6.67021 31.7831C6.81707 31.9166 6.9794 32.043 7.13811 32.1715C7.29683 32.2999 7.45761 32.4355 7.62817 32.5548C8.28726 33.0605 8.98911 33.4913 9.52658 33.816L10.2022 34.1922C10.3743 34.2827 10.4835 34.3389 10.5067 34.3566C10.5299 34.3743 10.3944 34.3217 10.1625 34.2104L9.74507 33.9935L9.48742 33.8565L9.20606 33.6916C8.23559 33.1231 7.32124 32.4671 6.47491 31.732C5.63135 30.999 4.8522 30.1975 4.1457 29.3361C4.00502 29.1606 3.87104 29.0043 3.76231 28.8612L3.48559 28.4936C3.33409 28.2913 3.25318 28.1902 3.26555 28.2165C3.2908 28.267 3.35624 28.3763 3.45312 28.529L3.6206 28.7894C3.68295 28.886 3.752 28.9917 3.83342 29.1014C4.2071 29.6313 4.60999 30.1408 5.04028 30.6276L5.39585 31.0251L5.76378 31.4023C6.00134 31.6552 6.25281 31.8741 6.47336 32.082C6.58261 32.1872 6.69288 32.2797 6.79595 32.3662L7.08091 32.6054C7.25148 32.7525 7.39628 32.8582 7.48801 32.9245C7.77349 33.1101 7.99868 33.287 8.12648 33.2951C8.58671 33.6145 9.06519 33.9078 9.55956 34.1735C9.8033 34.2979 10.0419 34.4345 10.3026 34.5503C10.5634 34.6661 10.8246 34.8006 11.1148 34.9159C11.8446 35.2194 12.5961 35.4704 13.3631 35.6668C14.127 35.8657 14.9029 36.0177 15.6861 36.122C16.4768 36.2309 17.2729 36.2984 18.071 36.3242C18.8769 36.3596 19.6942 36.3465 20.5285 36.307C20.8119 36.2984 21.5246 36.1341 21.8508 36.0598C23.0464 35.8637 24.2245 35.5763 25.3745 35.2001C25.9549 35.0083 26.5243 34.7858 27.0801 34.5336C27.6395 34.2764 28.1812 33.9838 28.7018 33.6577C29.348 33.2602 29.9958 32.8339 30.6162 32.3672C31.236 31.9067 31.8133 31.3936 32.3415 30.8339C33.5693 29.4948 34.5933 27.9884 35.3818 26.3616C36.1791 24.6981 36.7058 22.9223 36.9427 21.0988C36.8669 21.1494 36.8716 20.8738 36.8937 20.536C36.8989 20.3666 36.9118 20.1815 36.9246 20.0126ZM35.5333 23.8559C35.4895 23.9985 35.4462 24.1396 35.4034 24.2781C35.3607 24.4167 35.3091 24.5502 35.2638 24.6827C35.1752 24.9497 35.0669 25.199 34.9732 25.4412C34.8701 25.6809 34.767 25.91 34.6686 26.1264C34.5702 26.3429 34.4676 26.5472 34.363 26.7333C34.1018 27.2268 33.856 27.6304 33.6524 27.9434C31.8123 30.839 29.1157 33.1148 25.9228 34.4668C26.5133 34.1781 27.1935 33.8246 27.9129 33.3892C28.6886 32.9203 29.4302 32.3992 30.1323 31.8296C31.3792 30.8173 32.4749 29.6381 33.3875 28.3267L33.4293 28.2665C33.4685 28.2099 33.5056 28.1527 33.5437 28.0961C33.5926 28.0223 33.6468 27.9444 33.7019 27.8539C33.739 27.7957 33.7766 27.7376 33.8127 27.6789L33.8451 27.6283C33.907 27.5272 33.9674 27.4261 34.0265 27.3249C34.7637 26.0397 35.3242 24.6645 35.6936 23.2349L35.5333 23.8559ZM36.2547 18.941C36.2547 19.205 36.2398 19.466 36.23 19.7289C36.1525 20.4562 36.0354 21.1788 35.8791 21.8938C35.5146 23.6872 34.8479 25.4084 33.9065 26.9866C32.9698 28.5388 31.7628 29.9177 30.3405 31.0605C32.4958 29.2253 34.1236 26.8681 35.0618 24.2235C35.9894 21.5975 36.2264 18.7327 35.8064 15.9615L35.7209 15.4422L35.6121 14.9289L35.5555 14.6715L35.4885 14.4186C35.4426 14.2487 35.4024 14.0773 35.3524 13.9084C34.9584 12.5483 34.3828 11.2453 33.6406 10.0333C33.2638 9.42573 32.8498 8.84125 32.4007 8.28307C30.5553 6.01757 28.1278 4.27583 25.3683 3.23727C26.2789 3.53448 27.1589 3.91562 27.9964 4.37558C28.5938 4.70674 29.1681 5.07654 29.7154 5.48255C29.9911 5.67673 30.2467 5.89418 30.5085 6.10151L30.8842 6.43021L31.0723 6.59507L31.2511 6.767C32.766 8.27376 33.9615 10.0602 34.7686 12.0232C35.5725 13.9635 36.0306 16.0626 36.1316 18.3357C36.1097 17.519 36.0445 16.7039 35.9363 15.8937C35.8426 15.1671 35.7083 14.4461 35.5338 13.7339C35.7366 14.4123 35.8938 15.1031 36.0043 15.8017C36.0687 16.1481 36.0991 16.5001 36.1429 16.8485C36.1604 17.024 36.1692 17.2 36.1826 17.3749C36.196 17.5499 36.2094 17.7259 36.2109 17.9019C36.2274 18.0824 36.2419 18.2604 36.2532 18.4338C36.2645 18.6073 36.2589 18.7762 36.2578 18.9395L36.2547 18.941Z"
    fill="var(--ico-color)" />
  <path
    d="M37.2502 11.7473C33.1689 2.05169 21.8491 -2.56124 11.9706 1.44384C2.09205 5.44893 -2.61017 16.556 1.4711 26.2516C5.55236 35.9473 16.8707 40.5627 26.7507 36.5551C36.6308 32.5475 41.3314 21.4415 37.2502 11.7473ZM3.09742 25.5922C-0.612823 16.778 3.66065 6.67928 12.6425 3.03829C21.6244 -0.602695 31.9152 3.59101 35.6254 12.4052C39.3356 21.2195 35.0622 31.3181 26.0803 34.9591C17.0984 38.6001 6.80817 34.4064 3.09742 25.5922Z"
    fill="var(--ico-color)" />
  <path style="mix-blend-mode:multiply" opacity="0.95"
    d="M30.7455 8.7915C31.5051 9.99354 34.7753 15.6264 33.7472 21.184C32.6826 26.9388 27.7227 32.8099 18.5316 33.0683C13.5043 33.2094 8.27334 31.1972 5.28299 27.6847C8.15791 32.2329 13.4532 34.6936 19.3082 34.6936C28.3117 34.6936 35.0917 27.6832 35.0917 18.8477C35.0917 14.9478 33.1082 11.5678 30.7455 8.7915Z"
    fill="var(--ico-color)" />
</svg>
