<?xml version="1.0" standalone="no"?>
<!DOCTYPE svg PUBLIC "-//W3C//DTD SVG 20010904//EN"
 "http://www.w3.org/TR/2001/REC-SVG-20010904/DTD/svg10.dtd">
<svg version="1.0" xmlns="http://www.w3.org/2000/svg"
 width="280.000000pt" height="121.000000pt" viewBox="0 0 280.000000 121.000000"
 preserveAspectRatio="xMidYMid meet">

<g transform="translate(0.000000,121.000000) scale(0.100000,-0.100000)"
fill="#000000" stroke="none">
<path d="M768 1125 c-4 -18 0 -26 14 -31 11 -3 50 -35 88 -70 174 -165 207
-417 79 -616 -66 -102 -203 -198 -305 -214 -32 -4 -44 -11 -48 -27 -3 -12 -3
-23 -1 -25 10 -10 123 23 187 55 175 88 288 273 288 473 0 143 -55 275 -154
374 -34 34 -80 71 -103 83 l-41 23 -4 -25z"/>
<path d="M520 1052 c-54 -6 -114 -24 -176 -53 -165 -78 -232 -312 -142 -501
46 -97 87 -137 173 -170 91 -34 119 -40 215 -40 67 0 90 4 134 26 67 33 149
119 184 193 24 52 27 70 27 163 0 94 -3 111 -28 166 -36 78 -104 143 -186 179
-62 27 -150 43 -201 37z m115 -82 c63 -29 128 -70 111 -70 -4 0 7 -13 23 -29
22 -22 32 -42 37 -80 5 -39 3 -51 -6 -51 -8 0 -11 -3 -7 -6 3 -4 0 -13 -8 -20
-7 -8 -15 -18 -17 -24 -2 -6 -10 -12 -18 -14 -8 -1 -25 -7 -37 -14 -12 -7 -30
-12 -40 -12 -16 -1 -16 -2 2 -12 30 -17 185 -159 185 -170 0 -5 -41 -7 -92 -6
-82 3 -94 5 -102 23 -5 11 -27 35 -49 54 -44 39 -61 36 -87 -15 -8 -16 -18
-30 -22 -32 -5 -2 -8 -9 -8 -16 0 -20 -43 -52 -64 -48 -11 2 -16 0 -12 -6 4
-7 -7 -7 -32 1 -41 13 -102 58 -102 76 0 6 -4 11 -10 11 -5 0 -14 19 -21 42
-6 24 -19 59 -29 78 -72 143 12 310 183 366 62 20 141 11 222 -26z"/>
<path d="M1960 1049 c-44 -18 -90 -59 -113 -102 -18 -35 -22 -58 -22 -143 0
-94 2 -103 30 -149 46 -75 126 -106 229 -91 42 7 46 10 46 36 0 51 -5 55 -68
52 -51 -3 -63 0 -90 23 -40 33 -55 82 -50 156 5 69 27 106 82 133 30 15 44 16
77 8 44 -11 44 -11 53 39 6 32 4 37 -16 43 -35 9 -130 6 -158 -5z"/>
<path d="M1150 810 l0 -240 130 0 130 0 0 40 0 39 -82 3 -83 3 0 60 0 60 73 3
72 3 0 39 0 39 -72 3 -73 3 0 50 0 50 78 3 77 3 0 39 0 40 -125 0 -125 0 0
-240z"/>
<path d="M1460 1043 c0 -4 23 -55 50 -112 28 -57 50 -110 50 -117 0 -8 -17
-49 -39 -92 -21 -42 -46 -94 -54 -114 l-16 -38 52 0 53 0 29 80 c17 44 33 80
36 80 3 0 20 -36 38 -80 l33 -80 54 0 54 0 -24 53 c-12 28 -39 83 -58 122
l-35 69 53 114 c30 63 54 116 54 119 0 2 -23 3 -52 1 l-51 -3 -24 -65 c-13
-36 -26 -72 -29 -80 -3 -9 -19 18 -38 65 l-32 80 -52 3 c-29 2 -52 -1 -52 -5z"/>
<path d="M2200 810 l0 -240 130 0 130 0 0 40 0 40 -80 0 -80 0 0 65 0 65 75 0
75 0 0 40 0 40 -75 0 -75 0 0 55 0 55 75 0 75 0 0 40 0 40 -125 0 -125 0 0
-240z"/>
<path d="M2540 810 l0 -240 125 0 125 0 0 40 0 40 -80 0 -80 0 0 200 0 200
-45 0 -45 0 0 -240z"/>
<path d="M1177 478 c-27 -10 -42 -40 -35 -75 2 -10 25 -30 53 -45 58 -31 73
-60 49 -96 -15 -22 -21 -24 -65 -19 -31 4 -47 2 -44 -3 4 -6 28 -10 54 -10 52
0 81 20 81 57 0 38 -11 52 -61 79 -50 28 -64 49 -53 78 7 19 44 30 79 24 31
-6 33 7 3 16 -27 7 -26 7 -61 -6z"/>
<path d="M1363 475 c-42 -18 -63 -61 -63 -130 0 -49 4 -60 29 -86 37 -36 104
-41 144 -9 71 56 55 201 -25 229 -39 14 -46 13 -85 -4z m108 -31 c45 -48 33
-165 -20 -194 -56 -30 -124 9 -137 78 -21 110 87 190 157 116z"/>
<path d="M2250 483 c-60 -19 -90 -62 -90 -126 0 -81 40 -127 109 -127 74 1
111 42 111 125 0 60 -23 103 -65 121 -36 15 -41 15 -65 7z m94 -47 c50 -77 8
-196 -69 -196 -92 0 -133 133 -65 205 38 40 104 36 134 -9z"/>
<path d="M2682 480 c-12 -5 -27 -21 -33 -34 -15 -31 8 -71 49 -88 63 -27 80
-68 42 -103 -15 -13 -30 -16 -60 -12 -23 3 -38 1 -34 -4 9 -15 91 -10 108 7 9
8 16 31 16 49 0 35 -16 52 -80 87 -25 14 -31 23 -28 45 4 34 41 55 75 42 12
-4 23 -5 23 0 0 5 -10 11 -22 15 -28 7 -27 7 -56 -4z"/>
<path d="M1562 358 l-2 -128 63 2 62 2 -57 3 -57 4 -4 122 -3 122 -2 -127z"/>
<path d="M1722 378 c-2 -125 9 -148 74 -148 48 0 70 14 83 51 14 40 15 199 1
199 -6 0 -10 -40 -10 -100 0 -112 -14 -140 -68 -140 -51 0 -66 30 -73 143 l-5
102 -2 -107z"/>
<path d="M1948 473 l42 -4 2 -122 2 -122 6 120 5 120 45 6 c30 4 13 6 -50 6
-52 0 -76 -2 -52 -4z"/>
<path d="M2114 355 c0 -71 1 -99 3 -62 2 37 2 96 0 130 -2 34 -3 4 -3 -68z"/>
<path d="M2422 353 l2 -128 5 114 6 115 74 -112 c40 -62 78 -112 82 -112 5 0
9 56 9 125 0 83 -4 125 -11 125 -7 0 -10 -35 -7 -110 1 -61 2 -110 1 -110 -1
0 -34 49 -73 110 -40 61 -76 110 -81 110 -5 0 -8 -57 -7 -127z"/>
</g>
</svg>
