<svg width="180" height="13" viewBox="0 0 180 13" fill="none" xmlns="http://www.w3.org/2000/svg">
<path d="M50.0505 11C49.9625 11 49.8945 10.976 49.8465 10.928C49.7985 10.872 49.7745 10.804 49.7745 10.724V2.888C49.7745 2.8 49.7985 2.732 49.8465 2.684C49.8945 2.628 49.9625 2.6 50.0505 2.6H50.6025C50.6985 2.6 50.7705 2.624 50.8185 2.672C50.8665 2.712 50.8945 2.744 50.9025 2.768L54.8865 8.888V2.888C54.8865 2.8 54.9105 2.732 54.9585 2.684C55.0065 2.628 55.0745 2.6 55.1625 2.6H55.7385C55.8265 2.6 55.8945 2.628 55.9425 2.684C55.9985 2.732 56.0265 2.8 56.0265 2.888V10.712C56.0265 10.792 55.9985 10.86 55.9425 10.916C55.8945 10.972 55.8305 11 55.7505 11H55.1745C55.0865 11 55.0185 10.976 54.9705 10.928C54.9305 10.88 54.9025 10.848 54.8865 10.832L50.9145 4.772V10.724C50.9145 10.804 50.8865 10.872 50.8305 10.928C50.7825 10.976 50.7145 11 50.6265 11H50.0505ZM61.1185 11.12C60.4385 11.12 59.8545 11.004 59.3665 10.772C58.8785 10.532 58.5025 10.168 58.2385 9.68C57.9745 9.184 57.8265 8.564 57.7945 7.82C57.7865 7.468 57.7825 7.132 57.7825 6.812C57.7825 6.484 57.7865 6.144 57.7945 5.792C57.8265 5.056 57.9785 4.444 58.2505 3.956C58.5305 3.46 58.9145 3.092 59.4025 2.852C59.8985 2.604 60.4705 2.48 61.1185 2.48C61.7745 2.48 62.3465 2.604 62.8345 2.852C63.3305 3.092 63.7185 3.46 63.9985 3.956C64.2785 4.444 64.4305 5.056 64.4545 5.792C64.4705 6.144 64.4785 6.484 64.4785 6.812C64.4785 7.132 64.4705 7.468 64.4545 7.82C64.4305 8.564 64.2825 9.184 64.0105 9.68C63.7465 10.168 63.3705 10.532 62.8825 10.772C62.3945 11.004 61.8065 11.12 61.1185 11.12ZM61.1185 10.1C61.7345 10.1 62.2345 9.916 62.6185 9.548C63.0105 9.18 63.2225 8.584 63.2545 7.76C63.2705 7.4 63.2785 7.08 63.2785 6.8C63.2785 6.512 63.2705 6.192 63.2545 5.84C63.2385 5.288 63.1345 4.84 62.9425 4.496C62.7585 4.152 62.5105 3.9 62.1985 3.74C61.8865 3.58 61.5265 3.5 61.1185 3.5C60.7265 3.5 60.3745 3.58 60.0625 3.74C59.7505 3.9 59.4985 4.152 59.3065 4.496C59.1225 4.84 59.0185 5.288 58.9945 5.84C58.9865 6.192 58.9825 6.512 58.9825 6.8C58.9825 7.08 58.9865 7.4 58.9945 7.76C59.0265 8.584 59.2385 9.18 59.6305 9.548C60.0225 9.916 60.5185 10.1 61.1185 10.1ZM68.4892 11C68.3692 11 68.2732 10.972 68.2012 10.916C68.1372 10.86 68.0852 10.784 68.0452 10.688L65.3692 2.972C65.3532 2.924 65.3452 2.88 65.3452 2.84C65.3452 2.776 65.3692 2.72 65.4172 2.672C65.4652 2.624 65.5212 2.6 65.5852 2.6H66.2092C66.3052 2.6 66.3772 2.628 66.4252 2.684C66.4812 2.732 66.5132 2.776 66.5212 2.816L68.8732 9.62L71.2252 2.816C71.2412 2.776 71.2732 2.732 71.3212 2.684C71.3692 2.628 71.4412 2.6 71.5372 2.6H72.1612C72.2252 2.6 72.2812 2.624 72.3292 2.672C72.3852 2.72 72.4132 2.776 72.4132 2.84C72.4132 2.88 72.4052 2.924 72.3892 2.972L69.7012 10.688C69.6692 10.784 69.6172 10.86 69.5452 10.916C69.4812 10.972 69.3892 11 69.2692 11H68.4892ZM72.6948 11C72.6308 11 72.5748 10.976 72.5268 10.928C72.4788 10.88 72.4548 10.824 72.4548 10.76C72.4548 10.72 72.4588 10.676 72.4668 10.628L75.4428 2.864C75.4748 2.784 75.5188 2.72 75.5748 2.672C75.6308 2.624 75.7148 2.6 75.8268 2.6H76.6428C76.7468 2.6 76.8268 2.624 76.8828 2.672C76.9468 2.72 76.9948 2.784 77.0268 2.864L79.9908 10.628C80.0068 10.676 80.0148 10.72 80.0148 10.76C80.0148 10.824 79.9908 10.88 79.9428 10.928C79.8948 10.976 79.8388 11 79.7748 11H79.1628C79.0668 11 78.9948 10.976 78.9468 10.928C78.9068 10.88 78.8788 10.836 78.8628 10.796L78.2028 9.092H74.2668L73.6068 10.796C73.5988 10.836 73.5708 10.88 73.5228 10.928C73.4748 10.976 73.4028 11 73.3068 11H72.6948ZM74.6148 8.06H77.8548L76.2348 3.8L74.6148 8.06ZM83.8807 11.12C83.1847 11.12 82.6007 11.016 82.1287 10.808C81.6567 10.592 81.2927 10.316 81.0367 9.98C80.7887 9.636 80.6567 9.272 80.6407 8.888C80.6407 8.824 80.6647 8.768 80.7127 8.72C80.7687 8.664 80.8327 8.636 80.9047 8.636H81.5167C81.6127 8.636 81.6847 8.66 81.7327 8.708C81.7807 8.756 81.8127 8.812 81.8287 8.876C81.8687 9.068 81.9647 9.26 82.1167 9.452C82.2767 9.636 82.4967 9.792 82.7767 9.92C83.0647 10.04 83.4327 10.1 83.8807 10.1C84.5687 10.1 85.0727 9.98 85.3927 9.74C85.7207 9.492 85.8847 9.164 85.8847 8.756C85.8847 8.476 85.7967 8.252 85.6207 8.084C85.4527 7.908 85.1927 7.752 84.8407 7.616C84.4887 7.48 84.0327 7.332 83.4727 7.172C82.8887 7.004 82.4047 6.82 82.0207 6.62C81.6367 6.42 81.3487 6.172 81.1567 5.876C80.9727 5.58 80.8807 5.204 80.8807 4.748C80.8807 4.316 80.9967 3.932 81.2287 3.596C81.4607 3.252 81.7927 2.98 82.2247 2.78C82.6647 2.58 83.1967 2.48 83.8207 2.48C84.3167 2.48 84.7487 2.548 85.1167 2.684C85.4927 2.812 85.8047 2.988 86.0527 3.212C86.3007 3.428 86.4887 3.664 86.6167 3.92C86.7447 4.168 86.8127 4.412 86.8207 4.652C86.8207 4.708 86.8007 4.764 86.7607 4.82C86.7207 4.868 86.6567 4.892 86.5687 4.892H85.9327C85.8767 4.892 85.8167 4.876 85.7527 4.844C85.6967 4.812 85.6527 4.752 85.6207 4.664C85.5727 4.336 85.3887 4.06 85.0687 3.836C84.7487 3.612 84.3327 3.5 83.8207 3.5C83.3007 3.5 82.8767 3.6 82.5487 3.8C82.2287 4 82.0687 4.312 82.0687 4.736C82.0687 5.008 82.1447 5.236 82.2967 5.42C82.4487 5.596 82.6887 5.752 83.0167 5.888C83.3447 6.024 83.7727 6.168 84.3007 6.32C84.9407 6.496 85.4647 6.684 85.8727 6.884C86.2807 7.076 86.5807 7.32 86.7727 7.616C86.9727 7.904 87.0727 8.276 87.0727 8.732C87.0727 9.236 86.9407 9.668 86.6767 10.028C86.4127 10.38 86.0407 10.652 85.5607 10.844C85.0887 11.028 84.5287 11.12 83.8807 11.12ZM91.863 11C91.775 11 91.707 10.976 91.659 10.928C91.611 10.872 91.587 10.804 91.587 10.724V2.888C91.587 2.8 91.611 2.732 91.659 2.684C91.707 2.628 91.775 2.6 91.863 2.6H94.587C95.411 2.6 96.075 2.724 96.579 2.972C97.083 3.22 97.451 3.588 97.683 4.076C97.915 4.556 98.035 5.148 98.043 5.852C98.051 6.212 98.055 6.528 98.055 6.8C98.055 7.072 98.051 7.384 98.043 7.736C98.027 8.472 97.903 9.084 97.671 9.572C97.447 10.052 97.087 10.412 96.591 10.652C96.103 10.884 95.455 11 94.647 11H91.863ZM92.763 9.98H94.587C95.139 9.98 95.579 9.904 95.907 9.752C96.235 9.6 96.471 9.356 96.615 9.02C96.767 8.684 96.847 8.24 96.855 7.688C96.871 7.448 96.879 7.24 96.879 7.064C96.879 6.88 96.879 6.7 96.879 6.524C96.879 6.34 96.871 6.132 96.855 5.9C96.839 5.124 96.655 4.552 96.303 4.184C95.951 3.808 95.359 3.62 94.527 3.62H92.763V9.98ZM99.1558 11C99.0918 11 99.0358 10.976 98.9878 10.928C98.9398 10.88 98.9158 10.824 98.9158 10.76C98.9158 10.72 98.9198 10.676 98.9278 10.628L101.904 2.864C101.936 2.784 101.98 2.72 102.036 2.672C102.092 2.624 102.176 2.6 102.288 2.6H103.104C103.208 2.6 103.288 2.624 103.344 2.672C103.408 2.72 103.456 2.784 103.488 2.864L106.452 10.628C106.468 10.676 106.476 10.72 106.476 10.76C106.476 10.824 106.452 10.88 106.404 10.928C106.356 10.976 106.3 11 106.236 11H105.624C105.528 11 105.456 10.976 105.408 10.928C105.368 10.88 105.34 10.836 105.324 10.796L104.664 9.092H100.728L100.068 10.796C100.06 10.836 100.032 10.88 99.9838 10.928C99.9358 10.976 99.8638 11 99.7678 11H99.1558ZM101.076 8.06H104.316L102.696 3.8L101.076 8.06ZM108.98 11C108.9 11 108.832 10.976 108.776 10.928C108.728 10.872 108.704 10.804 108.704 10.724V3.668H106.4C106.32 3.668 106.252 3.644 106.196 3.596C106.148 3.54 106.124 3.472 106.124 3.392V2.888C106.124 2.8 106.148 2.732 106.196 2.684C106.252 2.628 106.32 2.6 106.4 2.6H112.184C112.272 2.6 112.34 2.628 112.388 2.684C112.444 2.732 112.472 2.8 112.472 2.888V3.392C112.472 3.472 112.444 3.54 112.388 3.596C112.34 3.644 112.272 3.668 112.184 3.668H109.892V10.724C109.892 10.804 109.864 10.872 109.808 10.928C109.76 10.976 109.692 11 109.604 11H108.98ZM112.363 11C112.299 11 112.243 10.976 112.195 10.928C112.147 10.88 112.123 10.824 112.123 10.76C112.123 10.72 112.127 10.676 112.135 10.628L115.111 2.864C115.143 2.784 115.187 2.72 115.243 2.672C115.299 2.624 115.383 2.6 115.495 2.6H116.311C116.415 2.6 116.495 2.624 116.551 2.672C116.615 2.72 116.663 2.784 116.695 2.864L119.659 10.628C119.675 10.676 119.683 10.72 119.683 10.76C119.683 10.824 119.659 10.88 119.611 10.928C119.563 10.976 119.507 11 119.443 11H118.831C118.735 11 118.663 10.976 118.615 10.928C118.575 10.88 118.547 10.836 118.531 10.796L117.871 9.092H113.935L113.275 10.796C113.267 10.836 113.239 10.88 113.191 10.928C113.143 10.976 113.071 11 112.975 11H112.363ZM114.283 8.06H117.523L115.903 3.8L114.283 8.06ZM123.549 11.12C122.853 11.12 122.269 11.016 121.797 10.808C121.325 10.592 120.961 10.316 120.705 9.98C120.457 9.636 120.325 9.272 120.309 8.888C120.309 8.824 120.333 8.768 120.381 8.72C120.437 8.664 120.501 8.636 120.573 8.636H121.185C121.281 8.636 121.353 8.66 121.401 8.708C121.449 8.756 121.481 8.812 121.497 8.876C121.537 9.068 121.633 9.26 121.785 9.452C121.945 9.636 122.165 9.792 122.445 9.92C122.733 10.04 123.101 10.1 123.549 10.1C124.237 10.1 124.741 9.98 125.061 9.74C125.389 9.492 125.553 9.164 125.553 8.756C125.553 8.476 125.465 8.252 125.289 8.084C125.121 7.908 124.861 7.752 124.509 7.616C124.157 7.48 123.701 7.332 123.141 7.172C122.557 7.004 122.073 6.82 121.689 6.62C121.305 6.42 121.017 6.172 120.825 5.876C120.641 5.58 120.549 5.204 120.549 4.748C120.549 4.316 120.665 3.932 120.897 3.596C121.129 3.252 121.461 2.98 121.893 2.78C122.333 2.58 122.865 2.48 123.489 2.48C123.985 2.48 124.417 2.548 124.785 2.684C125.161 2.812 125.473 2.988 125.721 3.212C125.969 3.428 126.157 3.664 126.285 3.92C126.413 4.168 126.481 4.412 126.489 4.652C126.489 4.708 126.469 4.764 126.429 4.82C126.389 4.868 126.325 4.892 126.237 4.892H125.601C125.545 4.892 125.485 4.876 125.421 4.844C125.365 4.812 125.321 4.752 125.289 4.664C125.241 4.336 125.057 4.06 124.737 3.836C124.417 3.612 124.001 3.5 123.489 3.5C122.969 3.5 122.545 3.6 122.217 3.8C121.897 4 121.737 4.312 121.737 4.736C121.737 5.008 121.813 5.236 121.965 5.42C122.117 5.596 122.357 5.752 122.685 5.888C123.013 6.024 123.441 6.168 123.969 6.32C124.609 6.496 125.133 6.684 125.541 6.884C125.949 7.076 126.249 7.32 126.441 7.616C126.641 7.904 126.741 8.276 126.741 8.732C126.741 9.236 126.609 9.668 126.345 10.028C126.081 10.38 125.709 10.652 125.229 10.844C124.757 11.028 124.197 11.12 123.549 11.12Z" fill="#00E19B"/>
<path d="M42 7H0" stroke="#00E19B"/>
<path d="M180 7H138" stroke="#00E19B"/>
</svg>
