<svg width="223" height="28" viewBox="0 0 223 28" fill="none" xmlns="http://www.w3.org/2000/svg">
<path fill-rule="evenodd" clip-rule="evenodd" d="M0 20.84L25.7828 0.500488L51.5005 20.84H41.0833L25.7828 5.6671L10.4173 20.84H0ZM37.1116 19.1394L39.0649 20.9706C39.781 21.6901 39.3253 22.9981 39.0649 23.6521C38.9021 23.9791 38.7394 24.3878 38.544 24.8783C38.3486 25.3688 38.1208 25.9411 37.8278 26.595C37.1767 27.9684 35.9397 27.903 34.9631 27.3798C32.0332 26.3335 28.5174 25.6794 25.7828 25.6794C23.0483 25.6794 19.5324 26.3989 16.6026 27.3798C15.626 27.903 14.3238 27.903 13.7378 26.595C13.3564 25.8289 13.1091 25.1748 12.9041 24.633C12.7592 24.25 12.6356 23.9229 12.5007 23.6521C12.1752 22.9981 11.7194 21.6901 12.4357 20.9706L14.3888 19.1394L17.5141 20.7745H33.9864L37.1116 19.1394Z" fill="#00E29B"/>
<path fill-rule="evenodd" clip-rule="evenodd" d="M198.255 8.9461V8.61904C198.255 7.37647 198.775 6.46086 199.491 6.00306C200.273 5.47987 201.51 5.21826 203.072 5.21826C203.072 5.24006 203.066 5.2764 203.055 5.32484C203.036 5.42173 203.007 5.56706 203.007 5.74147C203.007 5.82268 202.997 5.9263 202.983 6.0477V6.04782V6.04795V6.04811C202.965 6.21992 202.942 6.42728 202.942 6.65706V8.16124V8.9461V11.8236V17.8405C202.942 19.1485 202.486 20.3257 201.575 21.3721C200.664 22.3531 199.621 22.8763 198.385 22.8763H183.801C182.563 22.8763 181.457 22.4185 180.545 21.3721C179.633 20.3911 179.178 19.2139 179.178 17.8405V11.8236V8.9461V8.16124V6.65706C179.178 6.42728 179.156 6.21992 179.137 6.04811V6.04795V6.04782V6.0477C179.124 5.9263 179.112 5.82268 179.112 5.74147C179.112 5.63346 179.093 5.52545 179.075 5.42835C179.06 5.34906 179.047 5.27705 179.047 5.21826C180.61 5.21826 181.782 5.47987 182.628 6.00306C183.475 6.52627 183.931 7.37647 183.931 8.61904V8.9461V11.4313V18.6253C183.931 19.0831 184.061 19.4755 184.386 19.8025C184.712 20.1295 185.102 20.3257 185.493 20.3257H188.684V8.35747V7.89967C188.684 7.89967 188.684 6.39547 189.791 6.39547H192.525C193.501 6.39547 193.501 7.83426 193.501 7.83426V8.29206V20.2603H196.692C197.147 20.2603 197.473 20.0641 197.799 19.7371C198.125 19.4101 198.255 19.0177 198.255 18.5599V11.4313V8.9461ZM64.522 12.8694H68.7541H71.8792H75.6555C75.4825 13.2419 75.4033 13.4729 75.3432 13.6485C75.2448 13.9353 75.1974 14.0739 74.8743 14.439C74.3534 15.0276 73.6371 15.42 72.6606 15.42H71.8141H68.8192H64.5871V17.9707V20.8483C64.5871 21.1404 64.6074 21.3919 64.6254 21.6138C64.6396 21.7894 64.6523 21.9465 64.6523 22.0908C64.6523 22.2751 64.6729 22.4178 64.691 22.5424C64.705 22.639 64.7174 22.7246 64.7174 22.8102C63.0245 22.8102 61.5922 22.4832 60.6807 21.7639C59.7692 21.0444 59.3134 19.8673 59.3134 18.2322V18.0361V16.401V10.515C59.3134 9.14163 59.7691 8.0298 60.8109 6.98342C61.8526 6.00242 63.0245 5.47922 64.3267 5.47922H68.7541H72.0095H75.5904C75.4068 5.84811 75.3288 6.079 75.2672 6.2617C75.1758 6.53245 75.1201 6.69737 74.8091 7.04882C74.2883 7.70283 73.5721 8.09521 72.5955 8.09521H72.0095H68.7541H66.2149C65.7591 8.09521 65.3684 8.4876 65.0429 8.81465C64.7174 9.14163 64.522 10.6459 64.522 11.1037V12.804V12.8694ZM114.706 20.2839C114.785 20.3777 114.857 20.463 114.916 20.5218C115.241 20.8487 115.632 21.1758 116.088 21.372C116.218 21.4766 116.348 21.6022 116.479 21.7278C116.674 21.9161 116.869 22.1045 117.064 22.2222C116.967 22.2875 116.739 22.3693 116.511 22.451C116.283 22.5329 116.055 22.6146 115.958 22.68C115.697 22.7454 115.437 22.8108 115.111 22.8762C114.785 22.9416 114.525 22.9416 114.069 22.8762C113.549 22.8108 113.028 22.6799 112.572 22.4838C112.116 22.2876 111.66 21.9606 111.14 21.5682C110.619 21.1758 110.098 20.6526 109.512 19.9331C109.35 19.7525 109.173 19.5568 108.983 19.3461L108.981 19.3444C108.483 18.793 107.892 18.139 107.233 17.3826L105.866 15.8784H104.108V18.2982V18.8868V20.9142C104.108 21.2064 104.128 21.4577 104.146 21.6798C104.16 21.8553 104.173 22.0124 104.173 22.1568C104.173 22.3411 104.194 22.4838 104.211 22.6084C104.225 22.7049 104.238 22.7905 104.238 22.8762C102.545 22.8762 101.113 22.5492 100.201 21.8298C99.29 21.1104 98.8339 19.9331 98.8339 18.2982V16.4016V5.47975H111.074C112.376 5.47975 113.549 5.93755 114.59 6.98395C115.567 7.96493 116.088 9.14217 116.088 10.5156V10.8426C116.088 12.2814 115.567 13.4585 114.525 14.4395C113.484 15.4206 112.311 15.9438 110.879 15.9438L114.395 19.9331C114.503 20.0412 114.61 20.169 114.706 20.2839ZM103.913 8.09575V13.3278L109.251 13.3932C109.707 13.3932 110.098 13.2624 110.424 12.87C110.684 12.4776 110.879 11.1695 110.879 10.7117C110.879 10.2539 110.684 8.94594 110.358 8.61896C110.033 8.29199 109.642 8.09575 109.186 8.09575H103.913ZM156.455 20.5874L156.194 20.3258L150.269 13.328L150.726 12.7394L157.041 6.00319C157.041 6.00319 154.241 4.82598 151.572 6.46099C150.678 6.98893 150.591 7.09069 150.043 7.72959L150.042 7.73005L150.041 7.73103L150.04 7.73174V7.73214V7.73246C149.909 7.88443 149.753 8.06674 149.553 8.29222C149.316 8.54352 149.069 8.8082 148.813 9.08143V9.08174C147.805 10.1593 146.673 11.369 145.582 12.4124H144.801V12.0854V9.20782V8.48837C144.801 7.89975 144.801 7.37659 144.866 6.98418C144.866 6.75433 144.888 6.5469 144.907 6.37507V6.37497V6.37426C144.92 6.2531 144.931 6.14967 144.931 6.06858C144.931 5.89429 144.959 5.74903 144.979 5.65214V5.65204V5.65196V5.65191L144.979 5.65143C144.989 5.60325 144.996 5.5671 144.996 5.54539C143.238 5.54539 141.936 5.80698 141.089 6.33019C140.178 6.85338 139.657 7.70359 139.657 8.94617V9.27315V11.7584V16.4018V18.2984V18.56C139.722 20.0642 140.178 21.1106 140.959 21.7647C141.871 22.484 143.303 22.811 144.996 22.811C144.996 22.7254 144.983 22.6397 144.969 22.5432C144.952 22.4186 144.931 22.2759 144.931 22.0916C144.931 21.9473 144.918 21.7901 144.904 21.6146C144.886 21.3926 144.866 21.1412 144.866 20.8491V18.8216V18.56V15.8786H147.144L151.312 20.5874C151.312 20.5874 151.702 21.0452 152.223 21.5684C152.678 22.0262 153.199 22.2878 153.656 22.484C154.111 22.6803 154.632 22.811 155.153 22.8764C155.608 22.9418 156.064 22.9418 156.39 22.8764C156.716 22.811 156.976 22.7456 157.236 22.6803C157.324 22.6362 157.449 22.5921 157.58 22.5455C157.84 22.4538 158.126 22.3525 158.213 22.2225C157.887 22.0262 157.562 21.7647 157.301 21.4376C156.976 21.2414 156.716 20.9798 156.455 20.5874ZM90.1098 9.66562V8.94617C90.1098 7.70359 90.6959 6.78799 91.6073 6.33018C92.4536 5.80699 93.821 5.54539 95.5137 5.54539C95.5137 5.56718 95.5067 5.60352 95.4966 5.65196C95.4773 5.74885 95.4486 5.89418 95.4486 6.06858C95.4486 6.14983 95.437 6.25351 95.4246 6.37497V6.37507C95.406 6.5469 95.3836 6.75433 95.3836 6.98418C95.3185 7.37659 95.3186 7.89975 95.3186 8.48837V9.66562V12.1508V21.5684C95.3186 21.5684 95.3186 22.0916 94.9275 22.484C94.6023 22.811 93.9511 22.8764 93.9511 22.8764H83.0783C81.7759 22.8764 80.6036 22.4186 79.5622 21.3722C78.5858 20.3912 78.0647 19.214 78.0647 17.8406V11.7584V9.66562V8.94617C78.0647 7.70359 78.5858 6.85338 79.4972 6.33018C80.3435 5.80699 81.6459 5.54539 83.4035 5.54539C83.4035 5.56718 83.3966 5.60352 83.3865 5.65196C83.3671 5.74885 83.3385 5.89418 83.3385 6.06858C83.3385 6.14985 83.3269 6.25356 83.3145 6.37507C83.2959 6.5469 83.2735 6.75433 83.2735 6.98418C83.2084 7.37655 83.2084 7.89967 83.2084 8.48822V8.48837V9.66562V12.1508V18.56C83.2084 19.0178 83.4035 19.4102 83.7287 19.7372C84.0547 20.0642 84.445 20.2604 84.901 20.2604H90.1098V11.7584V9.66562ZM130.672 8.94617V9.66562V11.7584V20.2604H125.463C125.007 20.2604 124.617 20.0642 124.291 19.7372C123.966 19.4102 123.77 19.0178 123.77 18.56V12.1508V9.66562V8.48837C123.77 7.89975 123.77 7.37659 123.835 6.98418C123.835 6.75433 123.858 6.5469 123.876 6.37507C123.889 6.25356 123.9 6.14985 123.9 6.06858C123.9 5.89422 123.929 5.74892 123.948 5.65203V5.65199V5.65196V5.65191V5.65143C123.959 5.60325 123.966 5.5671 123.966 5.54539C122.273 5.54539 120.905 5.80699 120.059 6.33018C119.148 6.85338 118.627 7.70359 118.627 8.94617V9.66562V11.7584V17.8406C118.627 19.214 119.148 20.3912 120.124 21.3722C121.166 22.4186 122.338 22.8764 123.64 22.8764H134.513C134.513 22.8764 135.164 22.811 135.49 22.484C135.881 22.0916 135.881 21.5684 135.881 21.5684V12.1508V9.66562V8.48837C135.881 7.89975 135.881 7.37659 135.946 6.98418C135.946 6.75433 135.968 6.5469 135.987 6.37507V6.37497V6.37426C135.999 6.2531 136.011 6.14967 136.011 6.06858C136.011 5.89429 136.039 5.74903 136.059 5.65214V5.65204V5.65196V5.65191V5.65143C136.069 5.60325 136.076 5.5671 136.076 5.54539C134.318 5.54539 133.016 5.80699 132.169 6.33018C131.258 6.78799 130.672 7.70359 130.672 8.94617ZM176.638 21.0452V18.7562V10.5812C176.638 9.20782 176.117 8.03057 175.141 7.04959C174.099 6.00319 172.927 5.54539 171.625 5.54539H164.463C163.096 5.54539 161.924 6.06858 160.882 7.04959C159.84 8.09598 159.385 9.27323 159.385 10.5812V18.9524V21.0452V22.2878C159.385 22.4881 159.36 22.6638 159.341 22.8V22.8001C159.329 22.8862 159.32 22.9565 159.32 23.0072C160.947 23.0072 162.38 22.6803 163.291 21.9608C164.072 21.3068 164.528 20.3258 164.593 18.9524V18.4946V17.8406H171.495V18.4946V18.7562C171.56 20.2604 172.015 21.3068 172.797 21.9608C173.708 22.6803 175.075 23.0072 176.769 23.0072C176.769 22.9565 176.758 22.8862 176.747 22.8001C176.727 22.6639 176.703 22.4881 176.703 22.2878C176.638 21.9608 176.638 21.5684 176.638 21.0452ZM164.528 15.2246V9.79636C164.528 9.33856 164.723 8.94617 165.049 8.6192C165.375 8.29222 165.765 8.09598 166.221 8.09598H169.802C170.257 8.09598 170.648 8.29222 170.974 8.6192C171.3 8.94617 171.495 9.33856 171.495 9.79636V15.2246H164.528ZM222.67 21.0452V22.2878C222.67 22.6148 222.67 22.8764 222.865 23.0072C221.173 23.0072 219.805 22.6803 218.894 21.9608C218.048 21.3068 217.591 20.2604 217.526 18.7562V18.4946V17.8406H210.625V18.4946V18.9524C210.56 20.3258 210.104 21.3068 209.323 21.9608C208.411 22.6803 206.979 23.0072 205.351 23.0072C205.351 22.9565 205.361 22.8862 205.373 22.8001C205.391 22.6639 205.416 22.4881 205.416 22.2878V21.0452V18.9524V10.5812C205.416 9.27323 205.872 8.09598 206.914 7.04959C207.955 6.06858 209.128 5.54539 210.495 5.54539H217.657C218.959 5.54539 220.13 6.00319 221.173 7.04959C222.149 8.03057 222.67 9.20782 222.67 10.5812V18.7562V21.0452ZM210.495 9.79636V15.2246H217.461V9.79636C217.461 9.33856 217.266 8.94617 216.94 8.6192C216.615 8.29222 216.224 8.09598 215.769 8.09598H212.188C211.732 8.09598 211.341 8.29222 211.015 8.6192C210.69 8.94617 210.495 9.33856 210.495 9.79636Z" fill="#00E29B"/>
</svg>
