<svg width="176" height="43" viewBox="0 0 176 43" fill="none" xmlns="http://www.w3.org/2000/svg">
<path fill-rule="evenodd" clip-rule="evenodd" d="M0.0534668 27.3187C0.18534 26.8328 0.280018 26.3299 0.45923 25.861C0.868121 24.7287 1.63954 23.765 2.6524 23.1211C3.66526 22.4771 4.86221 22.1894 6.05539 22.3031C7.8306 22.4696 9.18315 23.4449 10.1975 24.8891C10.6608 25.5686 11.026 26.2857 11.4216 26.9925C12.2399 28.4469 13.4505 29.3101 15.1242 29.4222C16.3444 29.5128 17.5603 29.1962 18.5833 28.5217C18.5833 28.5421 18.6172 28.5726 18.6137 28.5795C16.9231 30.8222 14.9687 32.766 12.25 33.7378C9.76135 34.6282 7.23886 34.8524 4.71637 33.9383C2.55568 33.1568 0.966438 31.7363 0.263111 29.4596C0.178577 29.1843 0.121094 28.8955 0.0534668 28.6169V27.3187Z" fill="#00E29B"/>
<path fill-rule="evenodd" clip-rule="evenodd" d="M157.381 28.5419C159.133 29.4933 160.892 29.8161 162.738 28.919C163.401 28.5922 163.957 28.0817 164.34 27.4476C164.726 26.8428 165.064 26.2243 165.402 25.6024C166.113 24.2349 167.291 23.1708 168.719 22.6053C170.037 22.1316 171.486 22.192 172.761 22.7736C174.036 23.3553 175.034 24.4125 175.547 25.7214C176.507 28.0763 175.915 30.5841 173.991 32.3546C172.511 33.6968 170.598 34.4548 168.605 34.4886C164.547 34.6619 161.24 33.0444 158.589 30.0065C158.176 29.5239 157.784 29.0278 157.381 28.5419Z" fill="#00E29B"/>
<path fill-rule="evenodd" clip-rule="evenodd" d="M98.8195 0.235352L99.2454 0.371278C100.777 0.823235 101.674 2.10773 101.67 3.87138C101.67 6.72567 101.664 9.57922 101.658 12.4327V12.4329V12.433V12.4331V12.4332V12.4334V12.4335V12.4336C101.651 15.6438 101.644 18.854 101.646 22.065C101.649 22.7509 101.725 23.4345 101.873 24.104C101.978 24.5316 102.178 24.9299 102.458 25.2689C102.738 25.6078 103.091 25.8787 103.489 26.0613C102.935 27.2302 100.936 27.8861 99.1748 27.4885C97.5243 27.1147 96.2396 26.2414 95.4788 24.702C94.5079 26.5778 92.9288 27.4681 90.9206 27.5871C90.0633 27.6249 89.2052 27.5415 88.3707 27.339C86.4906 26.9108 85.2497 25.64 84.4792 23.9408C83.699 22.2949 83.2788 20.5004 83.2456 18.6777C83.2123 16.855 83.5667 15.0461 84.2862 13.3726C84.9626 11.7347 86.0851 10.4332 87.8337 9.88273C90.1736 9.15206 92.2289 9.77394 93.9743 11.4391C94.2176 11.6695 94.4406 11.9211 94.6969 12.2106V12.2107L94.6977 12.2111C94.7967 12.3228 94.9005 12.44 95.0124 12.5638V4.00051C95.0124 1.92083 95.8 0.864012 97.7708 0.282926C97.7879 0.282926 97.8008 0.268484 97.8138 0.253936V0.253915C97.8195 0.247299 97.826 0.240662 97.8325 0.235352H98.8195ZM94.5623 18.5548C94.5574 18.4771 94.5534 18.3915 94.5493 18.2999C94.5388 18.0708 94.5258 17.8048 94.495 17.5354C94.3733 16.5431 94.1365 15.5848 93.4803 14.7998C93.3043 14.5642 93.0764 14.3729 92.8145 14.2412C92.5525 14.1095 92.2637 14.0409 91.9701 14.0409C91.6773 14.0409 91.3886 14.1095 91.1266 14.2412C90.8647 14.3729 90.6368 14.5642 90.4608 14.7998C90.1761 15.1689 89.9482 15.579 89.7843 16.0164C89.3042 17.2804 89.3212 18.6023 89.4461 19.9208C89.4883 20.7496 89.7527 21.5515 90.2101 22.2417C90.4405 22.6044 90.7795 22.8846 91.1777 23.042C91.5768 23.1995 92.0139 23.2263 92.4284 23.1185C93.3279 22.9248 93.8048 22.2723 94.1195 21.4738C94.4366 20.5346 94.5866 19.5464 94.5623 18.5548ZM125.539 0.235352C125.861 0.335017 126.177 0.455332 126.482 0.595555C127.063 0.877066 127.547 1.32398 127.877 1.88055C128.205 2.43712 128.364 3.0787 128.332 3.72525V22.184C128.34 22.6786 128.379 23.1723 128.448 23.6622C128.513 24.1838 128.71 24.6801 129.018 25.1045C129.327 25.5289 129.738 25.8675 130.212 26.0885C130.172 26.1329 130.134 26.1771 130.096 26.2204C130.007 26.3228 129.922 26.4205 129.827 26.5065C128.495 27.7468 126.942 27.8657 125.296 27.3424C122.966 26.6152 121.705 24.8448 121.698 22.2452C121.68 15.979 121.68 9.71276 121.698 3.4466C121.723 2.71844 121.984 2.01852 122.443 1.45435C122.902 0.890186 123.533 0.492965 124.237 0.323704C124.323 0.300342 124.407 0.270814 124.488 0.235352H125.539ZM41.6543 7.32724C41.9687 5.71652 42.4353 4.16357 43.8419 3.08975C43.7603 2.99219 43.6734 2.89917 43.5816 2.8111C43.4432 2.68469 43.2938 2.57097 43.1353 2.47129C41.2856 1.42126 39.3989 1.29893 37.4884 2.27419C36.4368 2.79751 35.7098 3.70822 35.0335 4.6529C33.3541 6.99083 31.6691 9.32876 29.9784 11.6667C29.9348 11.727 29.8863 11.7849 29.8327 11.8487L29.8325 11.8489C29.7986 11.8893 29.7627 11.932 29.7248 11.9793C29.685 11.9209 29.6483 11.8702 29.6143 11.8233L29.6142 11.8233C29.5672 11.7583 29.5253 11.7007 29.4881 11.6395C29.0417 10.9361 28.5921 10.2292 28.1355 9.53265C27.7145 8.89373 27.2976 8.24776 26.8799 7.60057L26.8798 7.60043C26.1067 6.40249 25.3309 5.20029 24.5209 4.03104C23.6011 2.70576 22.3501 1.80185 20.6796 1.65233C19.3271 1.53 18.0117 1.67952 16.8857 2.52566C16.6081 2.76072 16.3438 3.01146 16.0945 3.27665C17.1833 4.25872 17.6567 5.47186 17.9205 6.79374C18.2431 8.54479 18.291 10.3358 18.0625 12.1016C17.8311 14.6742 17.2072 17.1957 16.2128 19.5776C15.354 21.5383 14.255 23.3155 12.1112 24.2976C12.418 24.9032 12.7566 25.4919 13.1256 26.0613C14.3024 27.6788 16.081 28.1273 17.9002 27.2574C19.7193 26.3875 20.8216 24.8685 21.4405 22.9893C22.337 20.1965 22.9044 17.3075 23.1311 14.3818C23.1488 14.1702 23.1674 13.9587 23.186 13.7476C23.2029 13.5553 23.2198 13.3633 23.2359 13.1721H23.3238L29.3224 22.432C31.5991 19.351 33.8647 16.2814 36.1189 13.223C36.1822 13.3909 36.2076 13.5708 36.1933 13.7497C36.0429 15.956 36.0429 18.17 36.1933 20.3761C36.316 22.7362 36.7539 25.069 37.4951 27.3118C38.1647 29.2284 39.108 30.975 40.6296 32.3648C43.8758 35.3348 49.5666 35.1819 52.0925 30.2681C52.1398 30.1861 52.1802 30.0903 52.2242 29.986L52.2243 29.986C52.2495 29.9262 52.276 29.8636 52.3055 29.7992C50.834 29.6854 49.409 29.2295 48.1431 28.4672C45.7795 27.0501 44.2037 24.9705 43.1623 22.449C42.2012 20.0288 41.6105 17.476 41.4108 14.878C41.1347 12.3622 41.2167 9.81978 41.6543 7.32724ZM63.1393 10.45C64.458 8.90047 66.098 8.64563 67.8968 9.12813C69.9257 9.67528 71.1328 11.0073 71.3627 13.2501L71.6569 12.8458C72.6714 11.4389 73.8988 10.3345 75.5861 9.82821C76.3412 9.60186 77.1365 9.54506 77.9159 9.66165C79.4307 9.88598 80.3267 10.8408 80.8137 12.2375C81.1985 13.3968 81.3785 14.6145 81.3477 15.8361C81.3477 16.8805 81.3331 17.925 81.3177 18.971V18.9719V18.9729C81.3015 20.0771 81.2852 21.1831 81.2869 22.2926C81.2893 22.9398 81.3688 23.5843 81.5237 24.2125C81.6429 24.6304 81.8538 25.0162 82.1393 25.3424C82.4256 25.6685 82.78 25.9268 83.1774 26.0985C82.8636 26.5095 82.4726 26.8535 82.0249 27.1109C81.578 27.3682 81.0848 27.5334 80.5736 27.5971C79.1873 27.7812 77.7841 27.4155 76.6614 26.5777C76.1125 26.1733 75.6712 25.6394 75.3764 25.023C75.0815 24.4067 74.9422 23.7269 74.9707 23.0436C74.9707 22.2574 74.9725 21.469 74.9744 20.6795V20.6762V20.6728V20.6694V20.666V20.6626V20.6602V20.6596V20.659V20.6585V20.658C74.9782 19.0657 74.9819 17.4691 74.9707 15.8769C74.9719 15.5599 74.9192 15.245 74.8152 14.9458C74.747 14.7065 74.6167 14.4898 74.4378 14.3178C74.2588 14.1458 74.0375 14.0248 73.7966 13.967C73.5558 13.9092 73.3039 13.9169 73.067 13.9892C72.83 14.0614 72.6165 14.1957 72.4482 14.3783C72.1019 14.6988 71.8247 15.0874 71.634 15.52C71.4432 15.9525 71.3429 16.4198 71.3391 16.893C71.321 18.5695 71.327 20.2475 71.333 21.9251V21.9255V21.9258V21.9262V21.9266V21.927C71.3361 22.765 71.3391 23.6027 71.3391 24.4403C71.3715 25.0239 71.2274 25.6039 70.9256 26.1036C70.6239 26.6034 70.1786 26.9997 69.6484 27.2403C69.114 27.527 68.5091 27.6541 67.9052 27.6064C67.3013 27.5589 66.7235 27.3387 66.24 26.9718C65.8813 26.7169 65.5867 26.3815 65.3795 25.9922C65.1723 25.6029 65.0582 25.1704 65.0464 24.7291C65.0148 24.049 65.0254 23.3584 65.0359 22.6694C65.0411 22.3255 65.0464 21.9819 65.0464 21.6402C65.0464 20.7883 65.0438 19.9378 65.0411 19.0875V19.0872V19.0868V19.0864V19.086V19.0856C65.0358 17.3861 65.0306 15.687 65.0464 13.9773C65.0396 12.4686 64.5798 11.2112 63.1393 10.45ZM61.6432 23.5479C62.6265 22.0576 63.1505 20.3089 63.1498 18.5207C63.1511 17.3073 62.9104 16.106 62.4417 14.9877C61.9731 13.8695 61.2861 12.857 60.4214 12.0102C59.5567 11.1633 58.5318 10.4993 57.4073 10.0574C56.2829 9.61557 55.0817 9.4047 53.8747 9.4374C52.0959 9.48292 50.3701 10.0546 48.913 11.0809C47.4559 12.1073 46.3325 13.5428 45.6832 15.2076C45.0339 16.8724 44.8876 18.6928 45.2627 20.4408C45.6379 22.1888 46.5176 23.7867 47.792 25.0347C49.0663 26.2827 50.6786 27.1252 52.427 27.4569C54.1755 27.7886 55.9824 27.5946 57.6218 26.8993C59.2611 26.204 60.6599 25.0382 61.6432 23.5479ZM51.5725 19.1257V19.1256C51.5618 18.9454 51.5512 18.7652 51.5382 18.5853C51.5129 17.4692 51.6906 16.358 52.0623 15.306C52.2431 14.8333 52.4927 14.3902 52.8028 13.9909C53.5365 13.0565 54.72 13.0633 55.5079 13.9638C56.0922 14.6828 56.4615 15.5535 56.5731 16.475C56.9062 18.2404 56.8147 20.0603 56.3059 21.7829C56.162 22.2287 55.9424 22.646 55.6566 23.0165C55.4785 23.2491 55.2496 23.4375 54.9876 23.5672C54.7255 23.6968 54.4373 23.7643 54.1452 23.7643C53.8531 23.7643 53.5649 23.6968 53.3029 23.5672C53.0408 23.4375 52.8118 23.2491 52.6337 23.0165C52.0777 22.2541 51.7472 21.3495 51.6802 20.4067C51.6231 19.9832 51.5978 19.5546 51.5725 19.1257ZM163.255 8.93114C164.056 9.61078 164.317 10.4909 164.391 11.4457C164.493 12.771 163.978 13.906 163.231 14.9493C162.283 16.1749 161.182 17.2725 159.955 18.2149C158.264 19.6047 156.574 20.981 154.862 22.3708C154.852 22.3708 154.844 22.3884 154.835 22.4119C154.831 22.4243 154.826 22.4383 154.818 22.4524C154.861 22.4742 154.907 22.4891 154.954 22.4966C156.367 22.4966 157.784 22.4966 159.201 22.449C160.549 22.4248 161.856 21.9794 162.94 21.1747C163.313 21.5961 163.565 22.1101 163.671 22.6631C164.117 24.5966 163.049 26.7884 161.304 27.4986C160.771 27.705 160.199 27.7907 159.629 27.7496C159.059 27.7085 158.505 27.5415 158.007 27.2607C157.679 27.0975 157.359 26.9195 157.04 26.7416C156.641 26.5196 156.243 26.2978 155.83 26.1054C153.997 25.2423 152.11 25.3544 150.196 25.8404C149 26.1153 147.872 26.6359 146.885 27.3695C146.737 26.5593 146.776 25.7254 147.001 24.9331C147.652 22.0822 149.351 19.584 151.758 17.9396C152.656 17.3169 153.588 16.7469 154.521 16.1768V16.1767C154.926 15.9288 155.332 15.6808 155.735 15.4284C155.814 15.3787 155.896 15.3325 156.001 15.2742V15.274V15.274L156.002 15.2739C156.076 15.2325 156.16 15.185 156.262 15.126C156.122 15.126 156.026 15.1169 155.944 15.1091C155.894 15.1043 155.848 15.1001 155.802 15.0988C154.135 15.0988 152.465 15.0988 150.795 15.0784C150.416 15.0864 150.037 15.0534 149.665 14.9799C149.114 14.8674 148.622 14.56 148.277 14.1134C147.933 13.6669 147.76 13.111 147.789 12.5468C147.832 11.9854 148.06 11.4543 148.436 11.0372C148.812 10.6201 149.316 10.3406 149.868 10.2428C150.104 10.2032 150.343 10.1839 150.581 10.185H160.725C160.978 10.1856 161.23 10.1708 161.48 10.1409C161.855 10.1133 162.217 9.98707 162.528 9.77475C162.84 9.56243 163.09 9.27149 163.255 8.93114ZM115.706 26.9109C117.765 26.024 118.854 24.3385 119.233 22.1739C118.725 22.4443 118.204 22.6881 117.671 22.9045C116.49 23.2938 115.244 23.4428 114.005 23.3429C112.895 23.3068 111.833 22.8756 111.01 22.1263C110.461 21.6306 110.059 20.9937 109.846 20.2845C110.247 20.2845 110.638 20.2892 111.024 20.2938H111.024C111.776 20.3028 112.503 20.3115 113.227 20.2845C114.467 20.2556 115.694 20.0509 116.876 19.6763C118.407 19.1869 119.581 18.317 119.919 16.6179C120.15 15.5888 120.057 14.5133 119.654 13.5394C119.25 12.5657 118.557 11.7416 117.667 11.1808C116.271 10.2749 114.672 9.73305 113.015 9.60413C111.039 9.3415 109.036 9.79974 107.367 10.8954C104.923 12.5333 103.722 14.9154 103.469 17.8005C103.276 19.9447 103.648 21.9836 104.885 23.7982C106.054 25.4925 107.77 26.7282 109.743 27.2955C111.715 27.8629 113.823 27.727 115.706 26.9109ZM109.752 17.5626C109.668 17.5557 109.586 17.5421 109.504 17.5218C109.694 16.2271 109.886 14.9732 110.732 13.9538C111.239 13.3421 111.865 12.9819 112.697 13.23C113.03 13.334 113.326 13.5358 113.545 13.8094C113.764 14.0829 113.897 14.416 113.927 14.7659C113.969 15.2761 113.853 15.7866 113.599 16.2298C113.344 16.6728 112.961 17.0275 112.5 17.2466C112.157 17.4009 111.79 17.4974 111.415 17.532C110.993 17.5737 110.566 17.5694 110.14 17.5652C110.011 17.5639 109.881 17.5626 109.752 17.5626ZM136.548 20.4308C136.742 20.9767 137.046 21.4769 137.44 21.9007C137.833 22.3243 138.309 22.6626 138.838 22.8945C139.529 23.2245 140.291 23.3786 141.056 23.343C141.987 23.294 142.914 23.1953 143.836 23.0474C144.612 22.9127 145.334 22.5592 145.919 22.028C145.898 22.1376 145.881 22.2366 145.865 22.3282V22.3283V22.3286C145.835 22.5067 145.81 22.657 145.769 22.8028C145.073 25.3446 143.403 26.8567 140.867 27.3801C137.654 28.0427 134.821 27.2747 132.478 24.9334C131.105 23.5491 130.277 21.7138 130.144 19.7648C129.928 17.3385 130.367 15.0414 131.814 13.0398C133.752 10.3587 136.43 9.30191 139.68 9.59074C141.261 9.71106 142.793 10.2072 144.146 11.0384C146.26 12.367 147.169 14.6642 146.513 16.9477C146.131 18.2526 145.202 19.0206 144.001 19.5031C142.985 19.8963 141.914 20.1257 140.826 20.1828C139.789 20.2721 138.767 20.3215 137.72 20.3721V20.3722C137.334 20.3909 136.943 20.4098 136.548 20.4308ZM136.173 17.5084C136.911 17.5511 137.651 17.5511 138.388 17.5084C138.932 17.4437 139.441 17.2 139.833 16.8154C140.226 16.4307 140.48 15.9266 140.559 15.3812C140.649 14.994 140.61 14.5877 140.449 14.2249C140.287 13.8621 140.011 13.5627 139.663 13.3729C138.943 12.9923 138.212 13.1248 137.57 13.7875C136.571 14.798 136.376 16.1257 136.179 17.4727L136.173 17.5084ZM133.851 7.24939H138.69H143.491C144.053 7.25132 144.593 7.03178 144.996 6.63788C145.399 6.24399 145.631 5.70713 145.644 5.14254C145.633 4.57681 145.404 4.03746 145.006 3.63767C144.608 3.23789 144.071 3.00873 143.508 2.9983H133.831C133.268 3.00623 132.731 3.23443 132.334 3.63431C131.937 4.03418 131.71 4.57413 131.703 5.13914C131.717 5.70286 131.949 6.23906 132.35 6.63332C132.751 7.02758 133.29 7.24866 133.851 7.24939Z" fill="#00E29B"/>
<path fill-rule="evenodd" clip-rule="evenodd" d="M151.111 42.4592C151.452 42.3549 151.753 42.1494 151.975 41.8697C151.271 41.4994 151.18 40.8639 151.183 40.1707V31.7534C151.195 31.5607 151.167 31.3676 151.102 31.1858C151.037 31.0042 150.936 30.8376 150.804 30.6963C150.674 30.555 150.516 30.4418 150.34 30.3637C150.164 30.2856 149.975 30.2442 149.782 30.2418C149.59 30.2395 149.4 30.2764 149.222 30.3504C149.044 30.4242 148.884 30.5335 148.749 30.6716C148.615 30.8098 148.51 30.9739 148.441 31.154C148.372 31.3341 148.34 31.5264 148.346 31.7195V40.2149C148.353 41.4348 148.951 42.196 150.067 42.4542C150.407 42.5618 150.77 42.5636 151.111 42.4592ZM102.887 40.6259C103.729 42.8245 106.569 42.9502 107.743 41.4653L107.754 41.484V41.4841V41.4842V41.4843C107.796 41.5524 107.826 41.6023 107.847 41.6521C107.997 41.964 108.251 42.2136 108.565 42.3579C108.878 42.5022 109.233 42.5324 109.565 42.4431C109.899 42.3538 110.191 42.1508 110.391 41.8688C110.591 41.5868 110.688 41.2435 110.664 40.8978V38.9133V35.5967C110.663 35.2554 110.546 34.9247 110.331 34.6603C110.117 34.3957 109.818 34.2133 109.486 34.1437C109.153 34.074 108.807 34.1212 108.505 34.2775C108.203 34.4337 107.963 34.6895 107.827 35.002C107.751 35.2094 107.689 35.4217 107.641 35.6374C107.584 35.5739 107.531 35.5185 107.48 35.465C107.444 35.427 107.409 35.3901 107.374 35.352C105.93 33.7888 103.732 34.1219 102.887 36.0656C102.581 36.7866 102.424 37.5621 102.424 38.3458C102.424 39.1293 102.581 39.905 102.887 40.6259ZM105.089 38.4118L105.088 38.4069V38.4171L105.089 38.4118ZM105.182 38.8557V38.8554C105.152 38.7097 105.122 38.5617 105.089 38.4118C105.185 37.9453 105.306 37.4842 105.45 37.0307C105.508 36.8395 105.628 36.6726 105.788 36.5549C105.949 36.4373 106.143 36.3753 106.343 36.3782C106.534 36.3838 106.719 36.448 106.873 36.5621C107.027 36.6763 107.143 36.835 107.205 37.0171C107.404 37.4569 107.51 37.9334 107.517 38.4166C107.523 38.8997 107.43 39.379 107.242 39.824C107.178 40.0135 107.054 40.1771 106.89 40.2903C106.725 40.4036 106.529 40.4605 106.329 40.4526C106.124 40.4631 105.921 40.4038 105.753 40.2842C105.586 40.1646 105.464 39.9916 105.406 39.7934C105.309 39.4942 105.246 39.1804 105.182 38.8557ZM141.164 42.3456C142.29 42.5869 143.301 42.4136 144.099 41.4689L144.207 41.6388C144.353 41.9292 144.586 42.1663 144.873 42.3168C145.16 42.4673 145.486 42.5238 145.807 42.4782C146.141 42.4206 146.444 42.248 146.665 41.99C146.886 41.7321 147.01 41.4048 147.018 41.0646C147.055 39.2262 147.038 37.3844 147.018 35.546C147.005 35.1937 146.868 34.8573 146.632 34.597C146.395 34.3369 146.074 34.1697 145.726 34.1256C145.378 34.0915 145.028 34.179 144.736 34.3733C144.444 34.5676 144.228 34.8568 144.123 35.1926C144.098 35.2782 144.077 35.3664 144.056 35.4609C144.043 35.5164 144.03 35.574 144.015 35.6343C143.982 35.6014 143.952 35.5713 143.923 35.543V35.5426C143.856 35.4775 143.799 35.4216 143.747 35.3624C142.324 33.7755 140.076 34.1222 139.247 36.0863C138.925 36.8352 138.767 37.6451 138.785 38.4608C138.802 39.2766 138.995 40.0789 139.348 40.8131C139.503 41.1988 139.749 41.5402 140.066 41.8075C140.382 42.0748 140.759 42.2596 141.164 42.3456ZM143.555 37.0174C143.704 37.4814 143.829 37.9533 143.927 38.431H143.94C143.906 38.5755 143.877 38.7174 143.849 38.8568L143.848 38.8579V38.8585C143.779 39.1939 143.713 39.5149 143.596 39.8242C143.537 40.0152 143.416 40.1813 143.253 40.2967C143.091 40.4123 142.895 40.4707 142.696 40.4631C142.492 40.4719 142.29 40.4128 142.123 40.2948C141.955 40.1768 141.831 40.0067 141.769 39.8107C141.59 39.3692 141.501 38.8962 141.506 38.4194C141.511 37.9427 141.611 37.4717 141.8 37.0343C141.862 36.8454 141.982 36.6807 142.142 36.5631C142.302 36.4456 142.494 36.3811 142.693 36.3785C142.885 36.3781 143.073 36.4399 143.229 36.5548C143.384 36.6699 143.498 36.8321 143.555 37.0174ZM97.1358 36.3067C97.2266 36.2057 97.3102 36.1101 97.3896 36.019C97.5454 35.8405 97.6857 35.6793 97.8422 35.5285C98.1009 35.2661 98.41 35.0593 98.7506 34.9208C99.0912 34.7824 99.4562 34.7151 99.8236 34.7232C100.564 34.7436 101.108 35.08 101.301 35.8004C101.465 36.4108 101.56 37.0377 101.585 37.6694C101.614 38.4052 101.605 39.141 101.595 39.8779V39.8779V39.878V39.8781V39.8782V39.8783V39.8783V39.8784C101.59 40.2473 101.585 40.6165 101.585 40.986C101.599 41.1817 101.572 41.3781 101.507 41.563C101.442 41.7479 101.339 41.9173 101.206 42.0606C101.073 42.2041 100.911 42.3185 100.733 42.3966C100.554 42.4748 100.361 42.5151 100.165 42.5151C99.9696 42.5151 99.7766 42.4748 99.5982 42.3966C99.4189 42.3185 99.2575 42.2041 99.1245 42.0606C98.9915 41.9173 98.8885 41.7479 98.8236 41.563C98.7579 41.3781 98.7311 41.1817 98.7449 40.986V37.5437C98.7449 37.0645 98.5795 36.7757 98.2615 36.6907C98.0799 36.6465 97.8876 36.6731 97.7246 36.7652C97.5616 36.8572 97.4391 37.0079 97.3823 37.1869C97.2372 37.4804 97.1528 37.8008 97.1358 38.1282C97.1131 38.7784 97.1204 39.4317 97.1277 40.0839V40.084V40.0841V40.0842V40.0843V40.0843V40.0844V40.0845C97.1317 40.4103 97.1358 40.7359 97.1358 41.0608C97.1366 41.2517 97.0993 41.4409 97.0271 41.6174C96.9541 41.7939 96.8479 41.9541 96.7132 42.0888C96.5786 42.2235 96.4188 42.3299 96.2428 42.402C96.0668 42.474 95.8778 42.5102 95.688 42.5084C95.5015 42.5052 95.3174 42.4652 95.1471 42.3902C94.9759 42.3153 94.821 42.2072 94.6921 42.072C94.5631 41.9367 94.4617 41.7772 94.3936 41.6025C94.3263 41.4278 94.2938 41.2414 94.2987 41.0539V39.7966V35.7563C94.3117 35.3896 94.4642 35.0421 94.7253 34.7858C94.9865 34.5295 95.336 34.384 95.701 34.3796C96.066 34.3752 96.4188 34.5123 96.6856 34.7623C96.9525 35.0123 97.1139 35.356 97.1358 35.7223C97.1374 35.8336 97.1366 35.945 97.1366 36.0734V36.0735V36.0736V36.0737V36.0741V36.0748V36.0754V36.0761V36.0767V36.0775V36.0782C97.1358 36.1484 97.1358 36.2236 97.1358 36.3067ZM68.4754 36.0109L68.4754 36.0109C68.3933 36.1053 68.3067 36.2049 68.2113 36.3102L68.1707 35.8106C68.1707 35.4321 68.0211 35.0691 67.7547 34.8014C67.4884 34.5338 67.1272 34.3834 66.7506 34.3834C66.3739 34.3834 66.0127 34.5338 65.7463 34.8014C65.48 35.0691 65.3304 35.4321 65.3304 35.8106V40.9588C65.3164 41.1554 65.3429 41.3528 65.4081 41.5386C65.4733 41.7245 65.5758 41.895 65.7093 42.0393C65.8428 42.1836 66.0045 42.2989 66.1842 42.3779C66.3638 42.4568 66.5578 42.4978 66.7539 42.4982C66.9499 42.4945 67.1432 42.4508 67.3219 42.3698C67.5005 42.2888 67.6611 42.1721 67.7936 42.0269C67.926 41.8817 68.0278 41.711 68.0926 41.525C68.1574 41.339 68.184 41.1418 68.1707 40.9452C68.1788 40.5577 68.174 40.1702 68.1691 39.7831V39.783V39.7829C68.1618 39.2027 68.1545 38.6234 68.191 38.0466C68.2449 37.6383 68.3982 37.2496 68.6373 36.915C68.7237 36.8263 68.8311 36.7612 68.9493 36.7255C69.0676 36.6898 69.1929 36.6849 69.3136 36.7111C69.5063 36.7621 69.6687 37.0238 69.787 37.2311C69.8346 37.3755 69.8474 37.5292 69.8242 37.6796V40.9928C69.8108 41.1885 69.8375 41.3849 69.9027 41.5698C69.968 41.7547 70.0705 41.9241 70.2036 42.0674C70.3368 42.2109 70.498 42.3252 70.677 42.4034C70.8561 42.4816 71.0492 42.5219 71.2443 42.5219C71.4395 42.5219 71.6327 42.4816 71.8117 42.4034C71.9907 42.3252 72.1519 42.2109 72.2851 42.0674C72.4182 41.9241 72.5207 41.7547 72.586 41.5698C72.6513 41.3849 72.6779 41.1885 72.6646 40.9928C72.6646 40.6188 72.6679 40.2451 72.6713 39.8718V39.8717C72.678 39.1256 72.6848 38.3805 72.6646 37.6354C72.6508 37.0781 72.5805 36.5235 72.4549 35.9805C72.2452 35.1106 71.6806 34.7266 70.798 34.7266C70.093 34.7329 69.4193 35.0201 68.9248 35.5252C68.7717 35.67 68.6318 35.831 68.4754 36.0109ZM133.616 36.2559C133.72 36.0995 133.84 35.9548 133.975 35.8243C134.373 35.4606 134.815 35.1489 135.29 34.8967C136.643 34.3427 137.691 34.985 137.897 36.436C137.955 36.8504 137.986 37.2682 137.989 37.6865C137.989 38.0723 137.991 38.4579 137.994 38.8431V38.845C137.999 39.616 138.004 40.3861 137.989 41.156C137.978 41.4768 137.857 41.7842 137.649 42.0275C137.441 42.2708 137.157 42.4357 136.843 42.4949C136.529 42.55 136.206 42.4983 135.925 42.3482C135.644 42.198 135.42 41.9578 135.29 41.6658C135.222 41.4893 135.186 41.3015 135.186 41.1119V37.6423C135.192 37.4649 135.166 37.2877 135.111 37.119C135.08 37.0109 135.021 36.913 134.94 36.8357C134.859 36.7584 134.758 36.7045 134.649 36.6795C134.54 36.6545 134.426 36.6593 134.32 36.6937C134.213 36.7279 134.117 36.7903 134.043 36.8743C133.877 37.0405 133.745 37.2387 133.657 37.4571C133.569 37.6754 133.525 37.9096 133.529 38.1453V41.122C133.52 41.4516 133.397 41.7676 133.181 42.0157C132.964 42.2638 132.669 42.4285 132.346 42.4813C132.011 42.5324 131.67 42.4623 131.383 42.2837C131.095 42.1049 130.88 41.8293 130.776 41.506C130.736 41.3601 130.716 41.209 130.719 41.0575V35.7156C130.736 35.3522 130.893 35.0096 131.155 34.7587C131.417 34.5079 131.766 34.3679 132.127 34.3679C132.489 34.3679 132.838 34.5079 133.1 34.7587C133.362 35.0096 133.518 35.3522 133.535 35.7156V36.2355L133.616 36.2559ZM128.667 41.336C129.434 40.577 129.869 39.543 129.877 38.4615C129.882 37.926 129.78 37.395 129.58 36.8987C129.379 36.4024 129.084 35.9506 128.71 35.5691C128.336 35.1876 127.891 34.8838 127.4 34.6753C126.91 34.4666 126.383 34.3571 125.85 34.3532C125.317 34.3491 124.789 34.4506 124.295 34.6518C123.801 34.853 123.352 35.15 122.972 35.5258C122.593 35.9017 122.29 36.3489 122.082 36.8421C121.875 37.3353 121.766 37.8648 121.762 38.4004C121.754 39.4818 122.174 40.5223 122.929 41.2927C123.684 42.0631 124.713 42.5006 125.789 42.5087C126.865 42.5168 127.901 42.0949 128.667 41.336ZM126.621 36.6061C126.912 37.1938 127.07 37.8392 127.081 38.4954C127.049 38.6528 127.02 38.8114 126.992 38.9705V38.971C126.927 39.334 126.861 39.6996 126.753 40.0586C126.71 40.2672 126.596 40.4541 126.43 40.5869C126.265 40.7198 126.058 40.7902 125.846 40.7858C125.635 40.783 125.43 40.7087 125.265 40.575C125.1 40.4413 124.985 40.2559 124.937 40.0485C124.584 39.033 124.584 37.9274 124.937 36.9119C124.975 36.8047 125.025 36.702 125.086 36.6061C125.516 35.9061 126.208 35.9061 126.621 36.6061ZM82.0379 39.2329C82.3761 40.6364 84.4484 41.0305 86.1897 40.0722C86.1321 40.5307 85.9569 40.9662 85.6812 41.3362C85.4062 41.7062 85.0396 41.9978 84.6179 42.1825C84.0891 42.4164 83.5157 42.5303 82.9382 42.5161C82.3607 42.5019 81.7938 42.36 81.2771 42.1004C80.7606 41.8408 80.3073 41.47 79.9497 41.0144C79.5919 40.5586 79.3385 40.0292 79.2076 39.4639C78.7071 37.2993 79.8534 35.1245 81.8822 34.557C82.5043 34.3753 83.1596 34.3374 83.7987 34.4463C84.437 34.5552 85.0437 34.808 85.5717 35.1857C85.9594 35.4353 86.2587 35.8017 86.4265 36.2326C86.5952 36.6634 86.6236 37.1367 86.5077 37.5848C86.4566 37.9033 86.3098 38.1984 86.0867 38.4305C85.8637 38.6625 85.5749 38.8204 85.2602 38.8828C84.6219 39.026 83.965 39.0947 83.3105 39.1632V39.1632H83.3096V39.1633C83.1255 39.1826 82.9414 39.2018 82.7581 39.2227C82.5181 39.2402 82.278 39.2436 82.0379 39.2329ZM81.8449 37.9687C82.1758 37.9894 82.5083 37.9894 82.8392 37.9687C83.0785 37.9361 83.3007 37.827 83.4743 37.6575C83.647 37.488 83.7614 37.2671 83.7995 37.0275C83.8466 36.8475 83.8303 36.6568 83.7541 36.4873C83.6779 36.3179 83.5457 36.1799 83.3802 36.0964C83.2131 36.0143 83.0225 35.9956 82.8433 36.0437C82.6632 36.0917 82.5075 36.2034 82.4029 36.358C82.059 36.8206 81.8643 37.378 81.8449 37.9552V37.9687ZM60.3226 30.9377C60.965 30.129 62.2128 30.0747 63.1156 30.7645C63.7682 31.2606 63.9372 31.9606 63.9406 32.7184V41.0337C63.9393 41.2211 63.9012 41.4065 63.8286 41.579C63.756 41.7517 63.6503 41.9083 63.5175 42.0399C63.3847 42.1715 63.2274 42.2755 63.0546 42.346C62.8817 42.4165 62.6968 42.452 62.5103 42.4507C62.3238 42.4493 62.1394 42.4111 61.9677 42.3382C61.7958 42.2652 61.64 42.159 61.5091 42.0255C61.3782 41.892 61.2747 41.7339 61.2045 41.5602C61.1344 41.3866 61.0989 41.2007 61.1003 41.0133V32.6233C61.1003 31.9504 61.0057 31.3183 60.3226 30.9377ZM75.1497 41.8356C76.5361 42.9977 78.1254 42.5764 78.8693 41.0132L78.6122 40.9691C77.848 40.8739 77.0399 40.3608 77.0873 39.27C77.1075 38.6973 77.1008 38.1322 77.094 37.5656V37.5655V37.5654V37.5653V37.5653V37.5652V37.5651C77.0907 37.2812 77.0873 36.9969 77.0873 36.7112V36.2117H78.1017C78.6325 36.2083 78.849 36.001 78.8422 35.5694C78.8354 35.1378 78.6224 34.9509 78.1185 34.9509H77.1041V34.0062C77.0989 33.6213 76.9436 33.2537 76.6718 32.9825C76.4 32.7113 76.0332 32.5579 75.6502 32.5552C75.2729 32.565 74.9144 32.7232 74.652 32.9958C74.3896 33.2685 74.2441 33.6338 74.2469 34.0131V34.9101C73.4794 35.0189 73.3373 35.1039 73.3305 35.5694C73.3238 36.035 73.4591 36.1369 74.23 36.249V36.5888C74.2413 37.6808 74.2469 38.7738 74.2469 39.868C74.237 40.2437 74.3132 40.6165 74.4698 40.9577C74.6264 41.299 74.859 41.5993 75.1497 41.8356ZM112.314 36.2557C111.53 36.13 111.391 36.0178 111.411 35.5455C111.432 35.0732 111.587 35.0052 112.331 34.9203V34.0265C112.324 33.6472 112.466 33.2804 112.726 33.0056C112.986 32.7308 113.344 32.5701 113.721 32.5585C114.103 32.5593 114.47 32.7099 114.744 32.9784C115.017 33.2468 115.175 33.6119 115.185 33.9959V34.9543H116.311C116.477 34.9543 116.636 35.0205 116.754 35.1384C116.87 35.2562 116.937 35.4162 116.937 35.5829C116.937 35.7496 116.87 35.9095 116.754 36.0274C116.636 36.1453 116.477 36.2116 116.311 36.2116H115.202V36.6295C115.202 36.9217 115.205 37.2144 115.209 37.507C115.217 38.0922 115.225 38.6775 115.202 39.2597C115.148 40.3675 115.96 40.8704 116.713 40.9791L116.967 41.0165C116.769 41.5435 116.381 41.9761 115.879 42.228C115.378 42.4799 114.801 42.5327 114.262 42.3758C113.711 42.2147 113.227 41.8767 112.886 41.4134C112.543 40.9501 112.362 40.387 112.368 39.8102C112.368 38.7296 112.363 37.649 112.351 36.5684L112.345 36.5015C112.337 36.4247 112.327 36.3392 112.314 36.2557ZM90.4348 35.7184C90.361 35.8108 90.2848 35.9062 90.2037 36.0046C90.1858 35.9524 90.1712 35.8991 90.1599 35.8449C90.2815 35.0804 89.4867 34.3497 88.7291 34.3497C88.3423 34.376 87.9805 34.5521 87.7202 34.8411C87.459 35.1302 87.3203 35.5095 87.3333 35.8993C87.3544 36.9006 87.352 37.9067 87.3495 38.9086V38.9088C87.3479 39.6237 87.3463 40.3366 87.3536 41.044C87.3528 41.3212 87.4201 41.5942 87.5491 41.8392C87.7032 42.1053 87.94 42.313 88.223 42.4303C88.5053 42.5476 88.8192 42.5679 89.1152 42.4883C89.4153 42.4031 89.6805 42.2216 89.8687 41.9714C90.0577 41.7211 90.1599 41.4158 90.1599 41.1018C90.1599 40.7508 90.155 40.3995 90.1509 40.0479C90.142 39.3445 90.1323 38.6406 90.1599 37.9381C90.211 37.5408 90.3253 37.1542 90.4981 36.793C90.5402 36.7341 90.597 36.687 90.6627 36.6561C90.7284 36.6252 90.8006 36.6115 90.8736 36.6163C90.9636 36.6362 91.0399 36.7585 91.108 36.8676C91.1218 36.8889 91.1347 36.9096 91.1469 36.9289C91.1737 37.0012 91.1907 37.0765 91.198 37.1532C91.37 37.8804 91.8298 38.1454 92.5501 37.9313C92.7771 37.8496 92.9832 37.7187 93.1535 37.5477C93.3246 37.3767 93.4552 37.17 93.5371 36.9423C93.619 36.7146 93.6498 36.4715 93.628 36.2304C93.6052 35.9894 93.5306 35.7562 93.4082 35.5476C93.2857 35.339 93.1186 35.1602 92.9199 35.0239C92.7204 34.8875 92.4941 34.797 92.2556 34.7589C92.018 34.7208 91.7747 34.7359 91.5435 34.8032C91.3116 34.8705 91.0983 34.9883 90.9174 35.1483C90.7495 35.3238 90.5978 35.5138 90.4348 35.7184ZM118.039 38.6347V36.3851C118.034 36.0162 118.173 35.66 118.426 35.3921C118.678 35.1243 119.025 34.9661 119.392 34.9511C119.576 34.9392 119.76 34.9646 119.935 35.0257C120.109 35.0868 120.269 35.1826 120.405 35.3072C120.542 35.4317 120.652 35.5826 120.73 35.7509C120.807 35.9192 120.85 36.1013 120.856 36.2865C120.883 37.9381 120.88 39.5896 120.856 41.2411C120.856 41.9207 120.146 42.4984 119.422 42.4848C119.06 42.4841 118.712 42.3421 118.451 42.0885C118.19 41.835 118.038 41.4898 118.025 41.1256C118.024 41.1007 118.024 41.0757 118.025 41.0508L118.039 38.6347ZM120.746 33.2758C120.815 33.1054 120.849 32.9227 120.845 32.7387C120.851 32.5519 120.819 32.3659 120.751 32.1917C120.684 32.0175 120.583 31.8587 120.453 31.7246C120.323 31.5906 120.168 31.4841 119.997 31.4114C119.826 31.3386 119.642 31.3012 119.455 31.3013C119.085 31.3075 118.731 31.4598 118.471 31.7255C118.21 31.9911 118.064 32.3488 118.063 32.7218C118.062 32.9055 118.097 33.0877 118.167 33.2578C118.236 33.4279 118.339 33.5823 118.467 33.7125C118.596 33.8426 118.751 33.9458 118.919 34.0161C119.088 34.0863 119.27 34.1222 119.452 34.1218C119.635 34.1273 119.818 34.0955 119.988 34.0281C120.159 33.9608 120.313 33.8594 120.444 33.7302C120.574 33.6008 120.677 33.4463 120.746 33.2758Z" fill="#00E29B"/>
</svg>
