<svg width="207" height="26" viewBox="0 0 207 26" fill="none" xmlns="http://www.w3.org/2000/svg">
<path d="M44.5164 12.4727C46.6896 11.3798 48.2766 9.50808 48.2766 7.02269C48.2766 2.69896 44.773 0.22168 38.6697 0.22168H27.128V25.7182H39.5867C45.5727 25.7182 49.2937 22.9571 49.2937 18.5192C49.2984 15.5213 47.2161 13.5308 44.5164 12.4727ZM38.7695 11.507H31.5932V2.33888H38.3571C42.1652 2.33888 43.7868 3.74086 43.7868 7.02269C43.7868 10.1904 42.2868 11.507 38.77 11.507H38.7695ZM31.5966 23.6011V13.6243H38.7047C40.9522 13.6243 44.7257 14.2677 44.7257 18.5788C44.7257 22.102 43.0908 23.6011 39.2572 23.6011H31.5966ZM0.00240751 14.802C0.00240751 8.72472 4.86628 3.79185 10.8698 3.79185C16.8601 3.79185 21.7372 8.72472 21.7372 14.802C21.7372 20.8783 16.8558 25.8117 10.8698 25.8117C4.88381 25.8112 0.00193405 20.8783 0.00193405 14.8011L0.00240751 14.802ZM4.21433 14.802C4.21433 20.3657 6.70095 23.694 10.8698 23.694V23.6859C15.0211 23.6859 17.4992 20.3657 17.4992 14.8015C17.4992 9.23738 15.0386 5.90904 10.8698 5.90904C6.70095 5.90904 4.21433 9.23738 4.21433 14.8011V14.802ZM53.0624 14.802C53.0624 8.72472 57.9268 3.79185 63.9303 3.79185C69.9205 3.79185 74.7981 8.72472 74.7981 14.802C74.7981 20.8783 69.9163 25.8117 63.9303 25.8117C57.9443 25.8117 53.0624 20.8783 53.0624 14.8015V14.802ZM57.2748 14.802C57.2748 20.3657 59.7614 23.694 63.9303 23.694V23.6859C68.0816 23.6859 70.5597 20.3657 70.5597 14.8015C70.5597 9.23738 68.0991 5.90904 63.9303 5.90904C59.7614 5.90904 57.2748 9.23738 57.2748 14.8015V14.802ZM83.6796 6.16309H75.7242V4.07071H95.6731V6.16263H87.6829V25.5021H83.6796V6.16218V6.16309ZM103.741 4.07116H99.7115V25.5026H103.741V4.07071V4.07116ZM119.07 23.6389C120.856 23.6389 124.056 23.1011 125.42 19.5056L125.808 18.4642L127.759 19.3915L127.441 20.2384C126.09 23.7536 122.978 25.7733 118.9 25.7733C112.774 25.7733 108.154 21.0557 108.154 14.8056C108.154 8.63586 112.874 3.79546 118.9 3.79546C122.955 3.79546 126.046 5.83233 127.385 9.3894L127.698 10.2364L125.746 11.1849L125.358 10.1348C124.372 7.47979 122.082 5.95507 119.07 5.95507C114.883 5.95507 112.382 9.25359 112.382 14.793C112.382 20.3319 114.883 23.6389 119.07 23.6389ZM170.06 21.6238L168.891 18.3713C168.429 17.1743 167.545 16.1672 166.391 15.5217C168.486 14.6282 170.303 12.951 170.303 10.2666C170.303 6.39186 167.056 4.07974 161.61 4.07974H153.419V25.5112H157.454V16.3894H160.971C163.548 16.3894 164.378 17.3722 165.092 19.3157L166.226 22.4066C166.516 23.348 166.944 24.246 167.495 25.0748L167.8 25.4981H173.221L171.304 23.7789C170.715 23.165 170.288 22.4262 170.06 21.6238ZM157.454 6.15902H161.34C164.726 6.15902 166.174 7.3909 166.174 10.2788C166.174 13.0526 164.692 14.2894 161.371 14.2894H157.458L157.454 6.15902ZM176.185 4.07116H180.215V25.5026H176.185V4.07071V4.07116ZM195.513 3.7914C189.514 3.7914 184.644 8.72472 184.644 14.8015C184.644 20.8783 189.531 25.8117 195.513 25.8117C201.495 25.8117 206.38 20.8783 206.38 14.8015C206.38 8.72472 201.503 3.7914 195.513 3.7914ZM195.513 5.88333C199.664 5.88333 202.141 9.21207 202.141 14.7763C202.141 20.3404 199.664 23.6688 195.513 23.6688C191.361 23.6688 188.84 20.3531 188.84 14.7844C188.84 9.21612 191.348 5.88333 195.513 5.88333ZM139.96 0.666597H142.325L140.496 4.82067L150.129 25.5152H145.842L142.447 18.2359H134.501L131.21 25.5026H128.849L139.96 0.666597ZM138.37 9.49547L135.423 16.1187H141.456L138.37 9.49547Z" fill="#00E29B"/>
</svg>
