<svg width="223" height="35" viewBox="0 0 223 35" fill="none" xmlns="http://www.w3.org/2000/svg">
<path d="M27.6826 21.1519C26.1832 25.2858 22.2392 28.2383 17.6075 28.2383C12.9764 28.2383 9.03306 25.2858 7.53296 21.1519C7.4914 21.0392 7.47369 20.9192 7.48088 20.7993C7.48807 20.6794 7.52007 20.5623 7.57482 20.4555C7.62957 20.3488 7.70588 20.2546 7.79886 20.1792C7.89184 20.1038 7.99941 20.0486 8.11476 20.0172L11.6594 19.0629C11.8583 19.009 12.0699 19.0292 12.2552 19.1197C12.4404 19.2103 12.5868 19.3652 12.6674 19.5557C13.0774 20.5321 13.7647 21.3652 14.6433 21.9511C15.5219 22.5369 16.5528 22.8493 17.6072 22.8493C18.6615 22.8493 19.6924 22.5369 20.5711 21.9511C21.4496 21.3652 22.1369 20.5321 22.5469 19.5557C22.7139 19.1613 23.145 18.9521 23.5567 19.0629L27.1008 20.0172C27.2161 20.0487 27.3237 20.1038 27.4166 20.1793C27.5095 20.2549 27.5857 20.3489 27.6405 20.4557C27.6952 20.5624 27.7272 20.6795 27.7345 20.7993C27.7417 20.9192 27.7241 21.0392 27.6826 21.1519ZM21.8959 0.21582H13.3178C6.21226 0.21582 0.451111 6.00603 0.451111 13.1494V21.7718C0.451111 28.9145 6.21164 34.7053 13.3184 34.7053H21.8965C29.0027 34.7053 34.7632 28.9145 34.7632 21.7718V13.1494C34.7639 6.00603 29.0027 0.21582 21.8959 0.21582Z" fill="#00E29B"/>
<path d="M52.6256 12.5629C53.0168 12.5629 53.4043 12.6403 53.7658 12.7908C54.1273 12.9414 54.4558 13.162 54.7324 13.4401C55.0092 13.7182 55.2286 14.0484 55.3783 14.4117C55.5281 14.7751 55.6052 15.1646 55.6052 15.5579C55.6052 15.9512 55.5281 16.3407 55.3783 16.704C55.2286 17.0674 55.0092 17.3975 54.7324 17.6756C54.4558 17.9537 54.1273 18.1744 53.7658 18.3249C53.4043 18.4754 53.0168 18.5529 52.6256 18.5529H51.6736C51.6032 18.5531 51.5328 18.5508 51.4625 18.546H48.6934V12.5623L52.6256 12.5629ZM44.7308 9.30238V26.556H48.7034V21.7983H52.1608C53.6809 21.7983 55.0015 21.5466 56.121 21.0469C57.2411 20.5459 58.1026 19.8221 58.7081 18.8779C59.3124 17.9329 59.6152 16.8278 59.6152 15.5616C59.6152 14.2805 59.3124 13.1709 58.7081 12.2348C58.1026 11.2986 57.2411 10.5754 56.121 10.0658C55.0009 9.55662 53.6814 9.30179 52.1608 9.30179L44.7308 9.30238ZM68.3971 16.2473C68.8823 16.2409 69.364 16.3315 69.8142 16.5137C70.2643 16.696 70.674 16.9663 71.0194 17.309C71.3648 17.6517 71.639 18.0599 71.8262 18.5099C72.0134 18.96 72.1098 19.4429 72.1098 19.9308C72.1098 20.4185 72.0134 20.9015 71.8262 21.3515C71.639 21.8016 71.3648 22.2098 71.0194 22.5525C70.674 22.8951 70.2643 23.1654 69.8142 23.3477C69.364 23.53 68.8823 23.6206 68.3971 23.6142H68.3958C67.424 23.6139 66.4919 23.2256 65.8047 22.5348C65.1175 21.8441 64.7313 20.9073 64.7309 19.9304C64.7313 18.9536 65.1175 18.0169 65.8048 17.3262C66.492 16.6356 67.424 16.2474 68.3958 16.2473H68.3971ZM71.8701 13.2949V14.7C70.9213 13.6324 69.6068 13.0976 67.923 13.0976C66.6802 13.0976 65.5564 13.3776 64.5503 13.9367C63.5455 14.494 62.7561 15.2911 62.1843 16.3274C61.6118 17.3618 61.3264 18.5616 61.3264 19.9254C61.3264 21.2886 61.6118 22.4884 62.1843 23.5247C62.7561 24.5591 63.5455 25.3562 64.5503 25.9154C65.5564 26.4733 66.6808 26.7532 67.923 26.7532C69.7209 26.7532 71.0939 26.1777 72.0414 25.0274V26.5553H75.6955V13.2949H71.8701ZM82.5463 15.0451C83.0042 14.4045 83.6213 13.9192 84.3977 13.5917C85.1749 13.263 86.0691 13.0976 87.0826 13.0976V16.6481C86.7974 16.6221 86.5114 16.6055 86.2247 16.5979C85.129 16.5979 84.271 16.906 83.6502 17.5222C83.0294 18.1383 82.7175 19.0625 82.7175 20.2948V26.556H78.8924V13.2949H82.5463V15.0451ZM115.988 20.8046C115.99 20.7626 115.99 20.7212 115.99 20.6793V19.1828C115.99 18.4042 115.683 17.6574 115.135 17.1069C114.587 16.5562 113.845 16.247 113.07 16.247C112.296 16.247 111.553 16.5562 111.004 17.1069C110.457 17.6574 110.149 18.4042 110.149 19.1828V20.6793C110.149 20.725 110.15 20.7689 110.152 20.8146V26.556H106.327V13.2949H109.98V14.8478C110.487 14.2905 111.117 13.8578 111.868 13.5547C112.621 13.2505 113.446 13.0976 114.345 13.0976C115.979 13.0976 117.299 13.5917 118.306 14.5773C119.31 15.5622 119.813 17.0256 119.813 18.9642V26.556H115.988V20.8046ZM129.546 8.16846H136.206L132.158 10.6581H127.146L129.546 8.16846ZM150.417 12.5629C150.921 12.5629 151.404 12.764 151.759 13.1219C152.116 13.4798 152.316 13.9653 152.316 14.4714C152.316 14.9777 152.116 15.4631 151.759 15.821C151.404 16.1789 150.921 16.3801 150.417 16.3801H145.464V12.5629H150.417ZM151.002 19.276C151.575 19.276 152.124 19.5046 152.528 19.9114C152.933 20.3181 153.16 20.8699 153.16 21.4451C153.16 22.0204 152.933 22.5721 152.528 22.9789C152.124 23.3856 151.575 23.6142 151.002 23.6142H145.464V19.276H151.002ZM154.017 17.5835C154.737 17.2053 155.297 16.6881 155.698 16.0319C156.099 15.3744 156.299 14.6261 156.299 13.7889C156.299 12.4076 155.738 11.3156 154.618 10.5097C153.5 9.7057 151.893 9.30238 149.8 9.30238H141.415V26.556H150.292C152.531 26.556 154.235 26.1489 155.404 25.3349C156.573 24.5222 157.158 23.3594 157.158 21.8478C157.158 20.7801 156.879 19.8797 156.323 19.149C155.769 18.4176 155 17.8966 154.018 17.5835H154.017ZM200.471 16.2585C200.378 16.251 200.284 16.2473 200.19 16.2473H200.187C199.795 16.2473 199.419 16.3136 199.069 16.437C198.585 16.599 198.146 16.8736 197.788 17.2385C197.619 17.4081 197.47 17.5965 197.343 17.8002C196.987 18.3512 196.798 18.9946 196.799 19.6518V20.2091C196.799 20.6563 196.887 21.0992 197.057 21.5125C197.227 21.9256 197.477 22.3011 197.791 22.6173C198.106 22.9335 198.48 23.1843 198.891 23.3553C199.302 23.5264 199.743 23.6143 200.188 23.6142H200.19C200.384 23.6142 200.575 23.5985 200.759 23.5666C201.825 23.4288 202.648 22.8308 203.232 21.7738L206.198 23.4C205.724 24.452 204.967 25.2736 203.93 25.8647C202.892 26.457 201.679 26.7532 200.29 26.7532C198.883 26.7532 197.62 26.4608 196.5 25.8772C195.381 25.2948 194.506 24.4852 193.877 23.4508C193.248 22.4144 192.933 21.2398 192.933 19.9254C192.933 18.6104 193.248 17.4358 193.877 16.4014C194.506 15.3656 195.381 14.556 196.5 13.9737C197.62 13.3894 198.883 13.0976 200.29 13.0976C201.679 13.0976 202.892 13.3894 203.93 13.9737C204.967 14.556 205.724 15.3901 206.198 16.4752L203.232 18.0764C202.582 16.9273 201.662 16.3211 200.472 16.2585H200.471ZM211.844 19.9304C211.844 18.9545 212.229 18.0186 212.916 17.3285C213.603 16.6384 214.534 16.2507 215.505 16.2507C216.476 16.2507 217.407 16.6384 218.093 17.3285C218.78 18.0186 219.166 18.9545 219.166 19.9304C219.166 20.9064 218.78 21.8423 218.093 22.5324C217.407 23.2224 216.476 23.6101 215.505 23.6101C214.534 23.6101 213.603 23.2224 212.916 22.5324C212.229 21.8423 211.844 20.9064 211.844 19.9304ZM219.245 25.8772C220.339 25.2948 221.197 24.4852 221.819 23.4508C222.441 22.4144 222.75 21.2398 222.75 19.9254C222.75 18.6104 222.441 17.4358 221.819 16.4014C221.197 15.3656 220.339 14.556 219.244 13.9737C218.149 13.3894 216.906 13.0976 215.517 13.0976C214.127 13.0976 212.881 13.3894 211.778 13.9737C210.674 14.556 209.812 15.3656 209.191 16.4014C208.569 17.4358 208.258 18.6111 208.258 19.9254C208.258 21.2398 208.569 22.4144 209.191 23.4508C209.812 24.4852 210.674 25.2948 211.778 25.8772C212.881 26.4608 214.127 26.7532 215.517 26.7532C216.906 26.7532 218.149 26.4608 219.244 25.8772H219.245ZM95.8307 16.2473C96.316 16.2409 96.7983 16.3315 97.248 16.5137C97.6985 16.696 98.1082 16.9663 98.4534 17.309C98.7986 17.6517 99.0728 18.0599 99.2602 18.5099C99.4476 18.96 99.544 19.4429 99.544 19.9308C99.544 20.4185 99.4476 20.9015 99.2602 21.3515C99.0728 21.8016 98.7986 22.2098 98.4534 22.5525C98.1082 22.8951 97.6985 23.1654 97.248 23.3477C96.7983 23.53 96.316 23.6206 95.8307 23.6142H95.83C94.8661 23.6016 93.946 23.208 93.2696 22.5185C92.5924 21.8291 92.2124 20.8994 92.2124 19.9308C92.2124 18.9621 92.5924 18.0323 93.2696 17.3429C93.946 16.6536 94.8661 16.2599 95.83 16.2473H95.8307ZM99.3039 13.2949V14.7C98.3571 13.6324 97.0406 13.0976 95.3573 13.0976C94.1142 13.0976 92.9903 13.3776 91.9842 13.9367C90.9796 14.494 90.1898 15.2911 89.6186 16.3274C89.0459 17.3618 88.7607 18.5616 88.7607 19.9254C88.7607 21.2886 89.0459 22.4884 89.6186 23.5247C90.1898 24.5591 90.9796 25.3562 91.9842 25.9154C92.9903 26.4733 94.1149 26.7532 95.3573 26.7532C97.1539 26.7532 98.5282 26.1777 99.4751 25.0274V26.5553H103.13V13.2949H99.3039ZM132.839 19.9304C132.846 20.4182 132.755 20.9025 132.574 21.355C132.393 21.8076 132.124 22.2195 131.783 22.5667C131.442 22.9139 131.036 23.1896 130.588 23.3777C130.14 23.5659 129.659 23.6629 129.174 23.6629C128.689 23.6629 128.208 23.5659 127.76 23.3777C127.312 23.1896 126.906 22.9139 126.565 22.5667C126.225 22.2195 125.956 21.8076 125.774 21.355C125.593 20.9025 125.502 20.4182 125.509 19.9304C125.522 18.9616 125.914 18.0369 126.6 17.3563C127.285 16.6757 128.21 16.294 129.174 16.294C130.138 16.294 131.063 16.6757 131.749 17.3563C132.435 18.0369 132.827 18.9616 132.839 19.9304ZM132.647 13.2949V14.7C131.7 13.6324 130.384 13.0976 128.7 13.0976C127.457 13.0976 126.334 13.3776 125.327 13.9367C124.323 14.494 123.534 15.2911 122.961 16.3274C122.391 17.3618 122.103 18.5616 122.103 19.9254C122.103 21.2886 122.39 22.4884 122.961 23.5247C123.534 24.5591 124.323 25.3562 125.327 25.9154C126.334 26.4733 127.457 26.7532 128.7 26.7532C130.498 26.7532 131.872 26.1777 132.819 25.0274V26.5553H136.473V13.2949H132.647ZM166.494 16.2473C166.98 16.2409 167.461 16.3315 167.912 16.5137C168.361 16.696 168.771 16.9663 169.116 17.309C169.462 17.6517 169.736 18.0599 169.923 18.5099C170.11 18.96 170.207 19.4429 170.207 19.9308C170.207 20.4185 170.11 20.9015 169.923 21.3515C169.736 21.8016 169.462 22.2098 169.116 22.5525C168.771 22.8951 168.361 23.1654 167.912 23.3477C167.461 23.53 166.98 23.6206 166.494 23.6142H166.493C166.005 23.6253 165.519 23.5382 165.065 23.3581C164.611 23.1779 164.197 22.9084 163.848 22.5652C163.498 22.2221 163.221 21.8123 163.032 21.3599C162.843 20.9075 162.745 20.4216 162.745 19.9308C162.745 19.4399 162.843 18.954 163.032 18.5016C163.221 18.0492 163.498 17.6394 163.848 17.2962C164.197 16.9531 164.611 16.6835 165.065 16.5034C165.519 16.3233 166.005 16.2362 166.493 16.2473H166.494ZM169.967 13.2949V14.7C169.018 13.6324 167.701 13.0976 166.018 13.0976C164.775 13.0976 163.652 13.3776 162.647 13.9367C161.641 14.494 160.853 15.2911 160.28 16.3274C159.708 17.3618 159.422 18.5616 159.422 19.9254C159.422 21.2886 159.708 22.4884 160.28 23.5247C160.853 24.5591 161.641 25.3562 162.647 25.9154C163.652 26.4733 164.775 26.7532 166.018 26.7532C167.817 26.7532 169.189 26.1777 170.138 25.0274V26.5553H173.791V13.2949H169.967ZM186.65 20.8046C186.652 20.7629 186.654 20.7211 186.654 20.6793V19.1828C186.638 18.4146 186.324 17.6832 185.778 17.1455C185.232 16.6079 184.497 16.3067 183.733 16.3067C182.968 16.3067 182.235 16.6079 181.689 17.1455C181.142 17.6832 180.828 18.4146 180.812 19.1828V20.6793C180.812 20.725 180.812 20.7689 180.814 20.8146V26.556H176.989V13.2949H180.643V14.8478C181.15 14.2905 181.779 13.8578 182.531 13.5547C183.282 13.2505 184.108 13.0976 185.008 13.0976C186.643 13.0976 187.963 13.5917 188.967 14.5773C189.974 15.5622 190.476 17.0256 190.476 18.9642V26.556H186.65V20.8046Z" fill="#00E29B"/>
</svg>
