<svg width="137" height="53" viewBox="0 0 137 53" fill="none" xmlns="http://www.w3.org/2000/svg">
<path fill-rule="evenodd" clip-rule="evenodd" d="M25.5009 7.97154C25.7322 8.1337 27.5311 9.31548 28.9602 7.91068C28.9702 7.90061 28.9783 7.88853 28.9836 7.87531C28.989 7.86203 28.9917 7.84779 28.9914 7.83344C28.9913 7.81909 28.9882 7.80498 28.9824 7.79188C28.9766 7.77877 28.9683 7.76698 28.958 7.75722C28.1491 6.99193 27.2697 6.30663 26.3318 5.71066C26.3254 5.70668 26.3201 5.7011 26.3164 5.69446C26.3127 5.68781 26.3107 5.68031 26.3107 5.67269V3.77644C26.3107 3.77056 26.3119 3.76473 26.3141 3.75929C26.3164 3.75385 26.3196 3.74891 26.3237 3.74475C26.3279 3.74059 26.3328 3.73728 26.3381 3.73503C26.3435 3.73278 26.3493 3.73162 26.3551 3.73162H27.8039C27.8321 3.73162 27.8593 3.72027 27.8793 3.70005C27.8993 3.67984 27.9105 3.65242 27.9105 3.62384V2.15196C27.9105 2.12337 27.8993 2.09595 27.8793 2.07574C27.8593 2.05552 27.8321 2.04416 27.8039 2.04416H26.3551C26.3433 2.04416 26.3321 2.03944 26.3237 2.03104C26.3154 2.02263 26.3107 2.01123 26.3107 1.99934V0.180052C26.3107 0.151467 26.2995 0.124053 26.2795 0.103839C26.2595 0.0836249 26.2324 0.072268 26.2041 0.0722656H24.748C24.7197 0.0722656 24.6926 0.0836219 24.6726 0.103836C24.6526 0.12405 24.6414 0.151465 24.6414 0.180052V1.99934C24.6414 2.01123 24.6367 2.02263 24.6284 2.03104C24.6201 2.03944 24.6088 2.04416 24.597 2.04416H23.1482C23.1199 2.04416 23.0928 2.05552 23.0727 2.07574C23.0527 2.09595 23.0415 2.12337 23.0415 2.15196V3.62384C23.0415 3.65243 23.0527 3.67984 23.0727 3.70006C23.0927 3.72027 23.1199 3.73162 23.1482 3.73162H24.597C24.6028 3.73162 24.6086 3.73278 24.614 3.73503C24.6194 3.73728 24.6242 3.74059 24.6284 3.74475C24.6325 3.74891 24.6358 3.75385 24.638 3.75929C24.6402 3.76473 24.6414 3.77056 24.6414 3.77644V5.67273C24.6413 5.68035 24.6394 5.68784 24.6357 5.69448C24.632 5.70112 24.6267 5.70669 24.6203 5.71066C23.6825 6.30651 22.8033 6.99163 21.9946 7.75674C21.9842 7.76657 21.9758 7.77842 21.97 7.79158C21.9642 7.80474 21.9611 7.81897 21.9609 7.83332C21.9606 7.84773 21.9633 7.86209 21.9687 7.87543C21.9741 7.88876 21.9821 7.90085 21.9922 7.91098C23.4212 9.31524 25.2199 8.1337 25.4512 7.97154C25.4585 7.96636 25.4671 7.96362 25.476 7.96362C25.4849 7.96362 25.4936 7.96636 25.5009 7.97154ZM25.4931 12.0847C25.7841 12.247 28.9802 13.9545 31.3585 11.9862C31.3765 11.9713 31.3891 11.9508 31.3944 11.9279C31.3997 11.905 31.3974 11.881 31.3879 11.8595C31.0774 11.1777 30.7172 10.52 30.3103 9.89211C30.3006 9.87692 30.2872 9.86447 30.2715 9.85584C30.2558 9.8472 30.2382 9.84268 30.2203 9.84262H20.7232C20.7053 9.84268 20.6877 9.8472 20.672 9.85584C20.6563 9.86447 20.643 9.87692 20.6332 9.89205C20.2263 10.52 19.8661 11.1777 19.5556 11.8595C19.5461 11.881 19.5438 11.905 19.5491 11.9279C19.5544 11.9508 19.5671 11.9713 19.585 11.9862C21.9633 13.9544 25.1595 12.247 25.4503 12.0847C25.4569 12.081 25.4643 12.0791 25.4718 12.0791C25.4793 12.0791 25.4866 12.081 25.4931 12.0847ZM10.5594 42.3782L10.7499 42.7476C10.6967 42.7674 10.6486 42.7989 10.609 42.8399C10.5694 42.8809 10.5394 42.9303 10.521 42.9846C10.5028 43.0388 10.4967 43.0965 10.5033 43.1534C10.5098 43.2104 10.5289 43.265 10.5591 43.3135C10.5781 43.3635 10.6077 43.4087 10.646 43.4458C10.6842 43.4829 10.7301 43.5109 10.7803 43.528C10.8305 43.5451 10.8838 43.5508 10.9365 43.5447C10.9891 43.5385 11.0397 43.5207 11.0848 43.4925C11.3066 43.3755 11.3246 43.0957 11.3446 42.7876C11.3688 42.4108 11.3959 41.9919 11.8019 41.7779C11.8887 41.731 11.9844 41.703 12.0825 41.6958C12.1807 41.6886 12.2793 41.7022 12.372 41.7359C12.4646 41.7696 12.5493 41.8225 12.6204 41.8913C12.6915 41.9601 12.7476 42.0432 12.7851 42.1352C12.8392 42.2258 12.8735 42.327 12.8859 42.4321C12.8982 42.5372 12.8881 42.6438 12.8565 42.7447C12.8249 42.8455 12.7723 42.9384 12.7023 43.0171C12.6323 43.0958 12.5465 43.1585 12.4506 43.201L12.2601 42.8317C12.3084 42.814 12.3522 42.7858 12.3885 42.7491C12.4248 42.7124 12.4527 42.6681 12.4701 42.6192C12.4876 42.5705 12.4942 42.5184 12.4894 42.4667C12.4847 42.415 12.4688 42.365 12.4428 42.3202C12.427 42.2761 12.4017 42.2361 12.369 42.2029C12.3362 42.1696 12.2966 42.1441 12.2531 42.128C12.2095 42.1118 12.163 42.1056 12.1167 42.1095C12.0705 42.1134 12.0257 42.1276 11.9854 42.1509C11.7702 42.2643 11.757 42.5343 11.7421 42.8351C11.7236 43.2136 11.7026 43.6411 11.2736 43.8673C11.0792 43.9559 10.8583 43.9643 10.6579 43.8908C10.4574 43.8173 10.2933 43.6677 10.2003 43.4738C10.1072 43.2798 10.0927 43.0569 10.1598 42.8523C10.2268 42.6477 10.3702 42.4776 10.5594 42.3782ZM11.5973 44.2083L12.548 43.5506C12.6325 43.4733 12.7328 43.4159 12.8417 43.3824C12.9507 43.3489 13.0656 43.3402 13.1783 43.3568C13.291 43.3734 13.3987 43.415 13.4936 43.4786C13.5885 43.5422 13.6685 43.6261 13.7275 43.7246C13.7974 43.8153 13.8471 43.9202 13.873 44.0321C13.899 44.1441 13.9006 44.2604 13.8778 44.3731C13.855 44.4857 13.8083 44.592 13.7409 44.6847C13.6736 44.7774 13.5872 44.8542 13.4876 44.9098L13.2618 44.576C13.5189 44.3687 13.5598 44.1641 13.4085 43.9405C13.2751 43.7436 13.0582 43.7025 12.7807 43.8943L11.8298 44.5521C11.5559 44.7418 11.5152 44.961 11.6531 45.1645C11.8067 45.3915 12.0136 45.4249 12.2934 45.2655L12.5194 45.5993C12.4308 45.6721 12.3277 45.7246 12.2171 45.7534C12.1066 45.7822 11.9912 45.7864 11.8789 45.766C11.7665 45.7455 11.6598 45.7008 11.5662 45.6348C11.4725 45.5689 11.394 45.4832 11.3362 45.3838C11.2666 45.2927 11.2179 45.1873 11.1932 45.075C11.1686 44.9627 11.1687 44.8463 11.1937 44.7341C11.2186 44.6218 11.2677 44.5165 11.3375 44.4257C11.4072 44.3348 11.496 44.2606 11.5973 44.2083ZM12.4918 46.8222L14.6316 44.9956L14.3708 44.6836L12.2311 46.5102L12.4918 46.8222ZM14.2782 48.108L14.0148 48.3848L12.9973 47.395L14.9393 45.3555L15.9278 46.3173L15.6644 46.5941L14.9669 45.9155L14.4037 46.507L15.0464 47.1323L14.7884 47.4033L14.1457 46.7779L13.552 47.4014L14.2782 48.108ZM15.9247 49.8169L17.5323 47.4983L17.2048 47.2662L16.5777 48.1704C16.4353 48.3758 16.2138 48.7375 16.0815 48.9846L16.0672 48.9843L16.0812 48.9229C16.1215 48.7468 16.1762 48.5079 16.211 48.3256L16.5034 46.7693L16.1726 46.5349L14.5648 48.8535L14.8926 49.0856L15.5126 48.1913C15.6642 47.9727 15.889 47.6133 16.0268 47.3652L16.0413 47.3655C15.9936 47.5541 15.9209 47.8632 15.8703 48.0842L15.5938 49.5824L15.9247 49.8169ZM18.9524 48.6662L18.43 48.402L17.3488 50.5863L16.9802 50.3999L18.0615 48.2156L17.5427 47.9532L17.7146 47.606L19.1242 48.319L18.9524 48.6662ZM18.7267 51.1793L19.7412 48.5402L19.3644 48.3923L18.3501 51.0314L18.7267 51.1793ZM20.5719 51.1757L19.8596 50.9713L19.5824 51.4847L19.1744 51.3676L20.6168 48.8381L21.0364 48.9585L20.949 51.8768L20.5449 51.7608L20.5719 51.1757ZM20.5937 50.7867L20.6298 50.0065C20.6415 49.8165 20.6724 49.5436 20.6935 49.3941L20.6819 49.3908C20.6224 49.5293 20.5106 49.7789 20.418 49.9458L20.047 50.6299L20.5937 50.7867ZM21.3601 52.5048L21.769 51.623L21.3926 51.5461L21.1248 52.4568L21.3601 52.5048ZM23.1453 49.4013L23.5678 49.4389L23.7674 51.0239C23.7945 51.2266 23.8128 51.444 23.8293 51.6399V51.64V51.6402V51.6403L23.8294 51.6412L23.8295 51.6429C23.8337 51.692 23.8377 51.7398 23.8417 51.7856L23.8576 51.7871L23.8713 51.736C23.928 51.5244 23.9943 51.2767 24.0624 51.05L24.5364 49.525L24.9549 49.5621L24.0241 52.3215L23.5857 52.2826L23.1453 49.4013ZM25.581 52.3901L25.5974 49.5595L25.1934 49.557L25.177 52.3876L25.581 52.3901ZM27.5096 49.9098L26.9257 49.9312L27.0131 52.3727L26.6011 52.3877L26.5138 49.9462L25.9339 49.9674L25.9201 49.5793L27.4957 49.5218L27.5096 49.9098ZM28.1869 51.718L28.9215 51.6266L29.1215 52.1762L29.5386 52.1244L28.4974 49.4013L28.0645 49.4552L27.7079 52.3521L28.1288 52.2998L28.1869 51.718ZM28.5255 50.5267L28.7922 51.2596L28.2282 51.3298L28.3071 50.5538C28.3283 50.3637 28.3353 50.0898 28.3371 49.9389L28.3491 49.9374C28.3869 50.0834 28.4635 50.3469 28.5255 50.5267ZM32.2506 51.0045L32.3617 51.3718L31.0111 51.7891L30.1926 49.0822L31.5047 48.6767L31.6159 49.0441L30.6901 49.3302L30.9275 50.1152L31.7806 49.8515L31.8893 50.2112L31.0362 50.4748L31.2865 51.3023L32.2506 51.0045ZM32.7059 48.5686L33.2369 48.3224L33.0767 47.9695L31.6437 48.634L31.8039 48.9868L32.3313 48.7423L33.3389 50.9628L33.7135 50.7891L32.7059 48.5686ZM34.4937 47.486L34.995 48.1626L35.6708 47.6509L35.8916 47.9487L35.2159 48.4603L35.9451 49.4443L35.6218 49.6893L33.9423 47.4236L34.9991 46.6232L35.227 46.9307L34.4937 47.486ZM37.3974 48.2015L35.4795 46.1389L35.1851 46.4187L37.1031 48.4812L37.3974 48.2015ZM35.8119 45.83L36.2582 45.29C36.3247 45.1921 36.4119 45.1103 36.5134 45.0506C36.615 44.9909 36.7284 44.9547 36.8454 44.9446C36.9624 44.9346 37.0802 44.9509 37.1903 44.9924C37.3004 45.034 37.3999 45.0997 37.4818 45.1848L38.2864 45.8642C38.3843 45.9301 38.4666 46.0172 38.5273 46.1191C38.588 46.2211 38.6256 46.3353 38.6375 46.4536C38.6494 46.572 38.6351 46.6915 38.5958 46.8036C38.5566 46.9158 38.4931 47.0177 38.4102 47.1022L37.9613 47.6453L35.8119 45.83ZM38.1155 46.8532C38.1603 46.8054 38.1939 46.748 38.2136 46.6852C38.2333 46.6224 38.2387 46.5559 38.2293 46.4907C38.22 46.4255 38.1962 46.3633 38.1597 46.3087C38.1231 46.2542 38.0749 46.2087 38.0185 46.1757L37.2263 45.5067C37.1844 45.4568 37.1318 45.4172 37.0724 45.391C37.0131 45.3648 36.9486 45.3527 36.8839 45.3555C36.8192 45.3583 36.756 45.376 36.6991 45.4073C36.6422 45.4386 36.5931 45.4825 36.5556 45.5359L36.3658 45.7655L37.9257 47.0829L38.1155 46.8532ZM40.1326 44.5995L39.8095 44.3972L39.2785 45.2637L38.5506 44.8078L39.0205 44.0411L38.7042 43.8431L38.2344 44.6098L37.544 44.1774L38.0538 43.3455L37.7306 43.1431L37.008 44.3223L39.3889 45.8131L40.1326 44.5995ZM39.6695 43.8446L39.8436 43.4671C39.8915 43.4978 39.9455 43.5173 40.0018 43.5241C40.0581 43.531 40.1151 43.525 40.1689 43.5067C40.2226 43.4884 40.2716 43.4581 40.3123 43.4182C40.3529 43.3783 40.3842 43.3298 40.4039 43.276C40.4317 43.2304 40.4491 43.1791 40.455 43.1259C40.4609 43.0727 40.455 43.0188 40.4379 42.9682C40.4208 42.9175 40.3928 42.8713 40.356 42.8327C40.3192 42.7943 40.2744 42.7645 40.2249 42.7455C39.9982 42.6387 39.7674 42.7944 39.5135 42.9658C39.2029 43.1755 38.8575 43.4086 38.4424 43.2131C38.3529 43.1719 38.2728 43.1123 38.2074 43.0379C38.142 42.9635 38.0927 42.8761 38.0629 42.7813C38.033 42.6865 38.0231 42.5864 38.0338 42.4875C38.0445 42.3886 38.0756 42.2931 38.1251 42.207C38.1634 42.1085 38.222 42.0195 38.297 41.9456C38.372 41.8718 38.4617 41.8151 38.5601 41.7791C38.6586 41.7431 38.7635 41.7288 38.8679 41.7371C38.9722 41.7453 39.0736 41.776 39.1653 41.8271L38.9912 42.2046C38.948 42.1767 38.8992 42.1586 38.8483 42.1518C38.7974 42.1451 38.7457 42.1497 38.6967 42.1654C38.6478 42.1811 38.6029 42.2075 38.5652 42.2426C38.5275 42.2778 38.4979 42.321 38.4785 42.369C38.4535 42.4086 38.4374 42.4532 38.4313 42.4997C38.4252 42.5461 38.4292 42.5934 38.443 42.6382C38.4569 42.683 38.4802 42.7241 38.5114 42.7588C38.5426 42.7935 38.581 42.8208 38.6238 42.839C38.8438 42.9426 39.0637 42.7891 39.3088 42.618C39.6174 42.4027 39.9657 42.1595 40.4042 42.366C40.5923 42.4679 40.7337 42.64 40.7981 42.8456C40.8626 43.0513 40.8451 43.2742 40.7493 43.467C40.6535 43.6598 40.4871 43.8072 40.2854 43.8777C40.0837 43.9482 39.8627 43.9364 39.6695 43.8446ZM24.8892 31.5367L21.0014 29.2392C20.986 29.2301 20.9731 29.217 20.9642 29.2013C20.9553 29.1857 20.9507 29.1679 20.9507 29.1498V24.8744C20.9507 24.8562 20.9554 24.8383 20.9644 24.8225C20.9735 24.8067 20.9864 24.7937 21.0021 24.7846C21.0177 24.7755 21.0354 24.7708 21.0535 24.7709C21.0715 24.7709 21.0892 24.7758 21.1047 24.785L24.9926 27.0825C25.008 27.0916 25.0208 27.1047 25.0297 27.1203C25.0386 27.136 25.0433 27.1538 25.0433 27.1719V31.4473C25.0433 31.4655 25.0386 31.4834 25.0296 31.4991C25.0205 31.5149 25.0075 31.528 24.9919 31.5371C24.9762 31.5461 24.9585 31.5509 24.9405 31.5508C24.9225 31.5507 24.9047 31.5458 24.8892 31.5367ZM26.0626 31.5367L29.9504 29.2392C29.9659 29.2301 29.9787 29.217 29.9876 29.2013C29.9965 29.1857 30.0012 29.1679 30.0012 29.1498V24.8744C30.0012 24.8561 29.9964 24.8383 29.9874 24.8225C29.9784 24.8067 29.9654 24.7937 29.9497 24.7846C29.934 24.7755 29.9164 24.7708 29.8983 24.7709C29.8803 24.7709 29.8626 24.7758 29.847 24.785L25.9592 27.0824C25.9438 27.0916 25.931 27.1047 25.9221 27.1203C25.9132 27.136 25.9085 27.1538 25.9085 27.1719V31.4473C25.9085 31.4655 25.9132 31.4834 25.9223 31.4991C25.9313 31.5149 25.9443 31.528 25.9599 31.5371C25.9756 31.5461 25.9933 31.5509 26.0113 31.5508C26.0294 31.5507 26.0471 31.5458 26.0626 31.5367ZM33.0219 36.7155L26.0626 40.8265C26.0471 40.8357 26.0294 40.8406 26.0113 40.8407C25.9933 40.8407 25.9756 40.836 25.9599 40.8269C25.9443 40.8178 25.9313 40.8047 25.9223 40.789C25.9132 40.7732 25.9085 40.7553 25.9085 40.7371V32.5681C25.9085 32.55 25.9132 32.5322 25.9221 32.5166C25.931 32.5008 25.9438 32.4878 25.9592 32.4787L32.9185 28.3676C32.9341 28.3584 32.9517 28.3536 32.9698 28.3535C32.9878 28.3534 33.0055 28.3581 33.0212 28.3672C33.0368 28.3763 33.0498 28.3893 33.0588 28.4051C33.0679 28.4209 33.0726 28.4388 33.0726 28.4571V36.6261C33.0726 36.6441 33.068 36.6619 33.0591 36.6776C33.0502 36.6933 33.0373 36.7064 33.0219 36.7155ZM24.8839 40.8265L17.9246 36.7155C17.9091 36.7064 17.8963 36.6933 17.8874 36.6776C17.8785 36.6619 17.8738 36.6441 17.8738 36.6261V28.4571C17.8738 28.4388 17.8786 28.4209 17.8876 28.4051C17.8967 28.3893 17.9097 28.3763 17.9253 28.3672C17.9409 28.3581 17.9587 28.3534 17.9767 28.3535C17.9947 28.3536 18.0124 28.3584 18.028 28.3676L24.9873 32.4787C25.0028 32.4878 25.0155 32.5008 25.0244 32.5166C25.0334 32.5322 25.0381 32.55 25.0381 32.5681V40.7371C25.0381 40.7553 25.0333 40.7732 25.0242 40.789C25.0152 40.8047 25.0022 40.8178 24.9866 40.8269C24.971 40.836 24.9532 40.8407 24.9352 40.8407C24.9172 40.8406 24.8995 40.8357 24.8839 40.8265ZM18.8354 14.209C18.8506 14.2205 18.869 14.2267 18.8879 14.2268L32.065 14.2269C32.0839 14.2268 32.1023 14.2205 32.1175 14.209C32.1327 14.1976 32.1438 14.1815 32.1492 14.1631C32.3055 13.6484 32.6289 13.202 33.0671 12.8961L38.5046 9.08799C38.9308 8.78953 39.457 8.67441 39.9671 8.76797C40.4773 8.86158 40.9298 9.15618 41.2251 9.58697L41.7084 10.2922C41.7149 10.3017 41.7249 10.3083 41.7361 10.3106C41.7473 10.3129 41.759 10.3107 41.7686 10.3045L43.8652 8.95996C43.8751 8.95365 43.8861 8.94936 43.8976 8.94734C43.909 8.94531 43.9208 8.94561 43.9322 8.94817C43.9436 8.95073 43.9543 8.95555 43.9638 8.96228C43.9734 8.96907 43.9815 8.97771 43.9877 8.98765L44.843 10.3502C44.8492 10.3602 44.8535 10.3712 44.8555 10.3829C44.8575 10.3945 44.8572 10.4063 44.8547 10.4178C44.8522 10.4293 44.8474 10.4401 44.8407 10.4498C44.834 10.4594 44.8255 10.4676 44.8156 10.4739L42.7827 11.7776C42.7777 11.7808 42.7733 11.785 42.77 11.79C42.7666 11.795 42.7642 11.8006 42.763 11.8065C42.7619 11.8125 42.7619 11.8186 42.763 11.8245C42.7643 11.8304 42.7666 11.836 42.7701 11.841L47.3805 18.5674C47.3939 18.5869 47.3991 18.611 47.3949 18.6344C47.3907 18.6578 47.3775 18.6786 47.3582 18.6921L42.0658 22.3985C42.0464 22.412 42.0225 22.4173 41.9994 22.413C41.9763 22.4088 41.9557 22.3955 41.9423 22.3759L36.1346 13.9165C35.8506 13.5908 35.4546 13.3867 35.0271 13.3456C34.5995 13.3045 34.1724 13.4295 33.8328 13.6952C33.5222 13.913 33.2876 14.2242 33.1625 14.5847C33.0373 14.9451 33.028 15.3364 33.1358 15.7025C33.1397 15.716 33.1465 15.7283 33.1559 15.7386C33.1652 15.7489 33.1768 15.7569 33.1897 15.7619C33.2027 15.7669 33.2165 15.7687 33.2303 15.7674C33.2441 15.7661 33.2574 15.7615 33.2691 15.7541L35.2224 14.5015C35.2417 14.4891 35.265 14.4848 35.2875 14.4893C35.3099 14.4939 35.3297 14.5071 35.3427 14.5261L36.2541 15.8536C36.261 15.8635 36.2657 15.8747 36.2681 15.8866C36.2706 15.8984 36.2706 15.9106 36.2682 15.9225C36.2658 15.9343 36.2612 15.9455 36.2544 15.9555C36.2476 15.9655 36.2389 15.9739 36.2288 15.9804L28.9831 20.6268C28.975 20.632 28.9688 20.6397 28.9654 20.6488C28.962 20.6579 28.9616 20.6678 28.9643 20.6772C28.9669 20.6865 28.9725 20.6947 28.9802 20.7005C28.9879 20.7064 28.9972 20.7095 29.0068 20.7095H36.5598C36.5714 20.7095 36.5829 20.7118 36.5937 20.7163C36.6044 20.7208 36.6142 20.7275 36.6225 20.7358C36.6307 20.7441 36.6372 20.7539 36.6417 20.7648C36.6462 20.7757 36.6485 20.7874 36.6485 20.7991V27.8938C36.6485 27.9014 36.6503 27.9088 36.6539 27.9154C36.6575 27.9221 36.6627 27.9276 36.669 27.9317L41.7179 31.1691C41.7257 31.1741 41.7348 31.1765 41.7441 31.176C41.7533 31.1754 41.7621 31.172 41.7693 31.1661C41.7765 31.1603 41.7817 31.1523 41.7841 31.1433C41.7867 31.1343 41.7862 31.1248 41.7831 31.116C41.6091 30.6083 41.547 30.0682 41.6012 29.5336C41.6554 28.999 41.8247 28.4829 42.097 28.0214C42.3693 27.5599 42.7381 27.1642 43.1776 26.8619C43.6171 26.5596 44.1167 26.3581 44.6414 26.2715C45.166 26.185 45.7031 26.2154 46.2149 26.3607C46.7267 26.5059 47.201 26.7626 47.6043 27.1126C48.0077 27.4627 48.3305 27.8976 48.55 28.387C48.7696 28.8763 48.8807 29.4084 48.8755 29.9457C48.8692 30.6964 48.6353 31.4271 48.2052 32.0391C48.2011 32.0447 48.1984 32.0513 48.1974 32.0583C48.1964 32.0652 48.1971 32.0723 48.1994 32.0789C48.2016 32.0856 48.2055 32.0915 48.2105 32.0964C48.2138 32.0995 48.2176 32.1021 48.2216 32.104C48.2238 32.1051 48.2261 32.1059 48.2283 32.1066C48.7665 32.2672 49.2608 32.5511 49.6726 32.9363C50.0845 33.3215 50.4028 33.7976 50.6028 34.3275C50.8029 34.8574 50.8793 35.4269 50.826 35.9915C50.7728 36.5561 50.5914 37.1007 50.2959 37.5829C50.0004 38.0651 49.5988 38.4718 49.1224 38.7714C48.6459 39.071 48.1075 39.2555 47.549 39.3104C46.9905 39.3653 46.4271 39.2892 45.9025 39.0881C45.3778 38.8869 44.9062 38.566 44.5243 38.1505C44.5196 38.1452 44.5137 38.1412 44.5072 38.1388C44.5006 38.1363 44.4935 38.1356 44.4866 38.1365C44.4796 38.1374 44.473 38.1399 44.4673 38.144C44.4616 38.148 44.4569 38.1534 44.4536 38.1596C44.1582 38.7151 43.7267 39.1845 43.2004 39.5232C42.6742 39.8619 42.0708 40.0585 41.4479 40.0941C40.8251 40.1297 40.2035 40.0033 39.6428 39.7268C39.0821 39.4504 38.601 39.0331 38.2454 38.515C37.8898 37.9969 37.6716 37.3952 37.6117 36.7675C37.5518 36.1399 37.6522 35.5071 37.9033 34.9298C38.1545 34.3526 38.5479 33.8501 39.046 33.4704C39.5441 33.0907 40.1302 32.8465 40.7483 32.7612C40.7574 32.7601 40.7659 32.7562 40.7727 32.7501C40.7795 32.7439 40.7842 32.7358 40.7862 32.7268C40.7883 32.7178 40.7875 32.7084 40.784 32.6999C40.7806 32.6913 40.7746 32.6841 40.7669 32.6792L36.7165 30.0821C36.7098 30.0778 36.7021 30.0754 36.6942 30.0752C36.6862 30.0749 36.6784 30.0768 36.6714 30.0806C36.6644 30.0845 36.6586 30.0902 36.6546 30.0971C36.6506 30.104 36.6485 30.1119 36.6484 30.1199V34.8891C36.6484 36.3772 36.3574 37.8507 35.7921 39.2248C35.2268 40.5989 34.3984 41.8465 33.3545 42.8959C32.3106 43.9453 31.0719 44.7758 29.7095 45.3397C28.347 45.9036 26.8877 46.1897 25.4155 46.1816C23.9433 46.1736 22.4872 45.8714 21.1309 45.2927C19.7746 44.7138 18.5448 43.8698 17.5122 42.809C16.4798 41.7482 15.6648 40.4916 15.1143 39.1114C14.5638 37.7312 14.2886 36.2545 14.3046 34.7665V30.1199C14.3046 30.1119 14.3025 30.104 14.2984 30.0971C14.2944 30.0902 14.2885 30.0845 14.2816 30.0806C14.2747 30.0768 14.2668 30.0749 14.2588 30.0751C14.2509 30.0753 14.2432 30.0778 14.2365 30.0821L10.1861 32.6792C10.1784 32.6841 10.1724 32.6913 10.1689 32.6999C10.1655 32.7084 10.1647 32.7178 10.1668 32.7268C10.1688 32.7358 10.1735 32.7439 10.1803 32.7501C10.1871 32.7562 10.1956 32.7601 10.2046 32.7612C10.8227 32.8466 11.4087 33.0908 11.9067 33.4705C12.4047 33.8502 12.798 34.3527 13.0491 34.9299C13.3001 35.5071 13.4005 36.1398 13.3405 36.7674C13.2806 37.395 13.0624 37.9966 12.7069 38.5146C12.3513 39.0326 11.8702 39.4499 11.3095 39.7263C10.7489 40.0027 10.1275 40.1292 9.50471 40.0935C8.88195 40.0579 8.27862 39.8614 7.7524 39.5228C7.22624 39.1842 6.79475 38.7148 6.49926 38.1595C6.49598 38.1533 6.4913 38.1479 6.48562 38.1439C6.47988 38.1399 6.47327 38.1373 6.46636 38.1364C6.45945 38.1355 6.45242 38.1363 6.44587 38.1387C6.43931 38.1412 6.43345 38.1452 6.42871 38.1504C6.04687 38.566 5.57523 38.8869 5.05058 39.0882C4.52594 39.2894 3.96242 39.3656 3.4039 39.3107C2.84538 39.2558 2.30692 39.0714 1.83044 38.7717C1.35397 38.4721 0.952329 38.0654 0.65679 37.5832C0.361256 37.101 0.179796 36.5564 0.126538 35.9917C0.0732804 35.427 0.149661 34.8576 0.349735 34.3276C0.54981 33.7977 0.86818 33.3216 1.28006 32.9363C1.69194 32.5511 2.18622 32.2672 2.72442 32.1066C2.73111 32.1046 2.73725 32.1011 2.74232 32.0963C2.74737 32.0915 2.75122 32.0855 2.7535 32.0789C2.75578 32.0722 2.75645 32.0652 2.75544 32.0582C2.75442 32.0513 2.75177 32.0447 2.74769 32.039C2.38653 31.5233 2.16254 30.9224 2.09725 30.2941C2.03195 29.6658 2.12752 29.0309 2.3748 28.4507C2.62207 27.8704 3.01274 27.3641 3.50933 26.9804C4.00591 26.5967 4.59172 26.3485 5.21055 26.2595C5.82937 26.1705 6.46044 26.2438 7.04316 26.4724C7.62588 26.7008 8.14074 27.077 8.53828 27.5645C8.93581 28.0521 9.20273 28.6348 9.31332 29.2566C9.42392 29.8785 9.37462 30.5186 9.17 31.1156C9.16684 31.1244 9.16649 31.134 9.16895 31.143C9.1714 31.152 9.17661 31.16 9.18382 31.1658C9.19102 31.1717 9.19986 31.1752 9.20911 31.1757C9.21836 31.1763 9.22749 31.1739 9.23534 31.1689L14.284 27.9316C14.2903 27.9276 14.2955 27.922 14.2991 27.9154C14.3027 27.9088 14.3046 27.9013 14.3046 27.8938V20.7991C14.3046 20.7874 14.3069 20.7757 14.3113 20.7648C14.3158 20.754 14.3223 20.7441 14.3305 20.7358C14.3388 20.7275 14.3485 20.7208 14.3593 20.7163C14.3701 20.7118 14.3816 20.7095 14.3933 20.7095H21.9461C21.9557 20.7095 21.9651 20.7064 21.9728 20.7005C21.9804 20.6947 21.9861 20.6865 21.9887 20.6772C21.9914 20.6679 21.991 20.6579 21.9876 20.6488C21.9842 20.6397 21.978 20.632 21.9699 20.6268L14.7242 15.9804C14.714 15.9739 14.7054 15.9655 14.6986 15.9555C14.6918 15.9455 14.6871 15.9343 14.6847 15.9225C14.6824 15.9106 14.6824 15.8984 14.6848 15.8866C14.6872 15.8747 14.692 15.8635 14.6988 15.8536L15.6102 14.526C15.6232 14.507 15.643 14.4939 15.6655 14.4893C15.6879 14.4847 15.7112 14.4891 15.7305 14.5014L17.6839 15.754C17.6956 15.7614 17.7089 15.766 17.7227 15.7674C17.7364 15.7687 17.7503 15.7668 17.7632 15.7618C17.7761 15.7568 17.7877 15.7488 17.7971 15.7385C17.8064 15.7282 17.8133 15.7159 17.8171 15.7025C17.9249 15.3363 17.9156 14.9451 17.7905 14.5846C17.6653 14.2242 17.4307 13.9129 17.1202 13.6952C16.7805 13.4295 16.3535 13.3045 15.9259 13.3456C15.4983 13.3867 15.1023 13.5907 14.8183 13.9164L9.01063 22.3759C8.99723 22.3954 8.97674 22.4088 8.95355 22.413C8.93042 22.4173 8.9066 22.412 8.88728 22.3985L3.59487 18.6921C3.58529 18.6854 3.57712 18.6769 3.57081 18.6669C3.56451 18.6571 3.56019 18.646 3.55812 18.6344C3.55604 18.6229 3.55624 18.611 3.5587 18.5995C3.56117 18.588 3.56584 18.5771 3.57248 18.5674L8.20913 11.8026L6.13721 10.4739C6.12737 10.4676 6.11888 10.4594 6.11221 10.4498C6.10547 10.4401 6.10073 10.4293 6.09821 10.4178C6.09564 10.4063 6.09534 10.3944 6.09739 10.3828C6.09938 10.3712 6.1036 10.3602 6.10986 10.3502L6.96512 8.98759C6.97138 8.97765 6.97952 8.96907 6.98901 8.96228C6.99855 8.95555 7.00932 8.95073 7.02068 8.94817C7.03204 8.94561 7.04381 8.94531 7.05528 8.94734C7.0667 8.94936 7.0777 8.95365 7.08754 8.95996L9.22017 10.3276L9.72778 9.58703C10.0231 9.15618 10.4756 8.86158 10.9858 8.76803C11.496 8.67441 12.022 8.78953 12.4482 9.08799L17.8858 12.8961C18.3241 13.202 18.6474 13.6484 18.8037 14.1631C18.8091 14.1814 18.8202 14.1975 18.8354 14.209ZM40.2231 15.2221L39.1937 15.943V15.943C39.1841 15.9497 39.1759 15.9583 39.1696 15.9682C39.1633 15.9781 39.159 15.9891 39.1569 16.0007C39.1548 16.0123 39.155 16.0242 39.1575 16.0357C39.1599 16.0472 39.1646 16.0581 39.1712 16.0678L39.8065 16.9945C39.8199 17.014 39.8404 17.0273 39.8635 17.0316C39.8867 17.0359 39.9105 17.0306 39.9299 17.0171L40.9593 16.2962C40.9641 16.2928 40.9695 16.2905 40.9751 16.2892C40.9808 16.288 40.9867 16.2878 40.9925 16.2889C40.9982 16.29 41.0036 16.2921 41.0086 16.2953C41.0134 16.2985 41.0176 16.3027 41.021 16.3075L42.3171 18.1985C42.3237 18.2081 42.3321 18.2164 42.3419 18.2228C42.3517 18.2291 42.3627 18.2335 42.3741 18.2356C42.3856 18.2377 42.3974 18.2375 42.4087 18.235C42.4201 18.2325 42.4309 18.2278 42.4404 18.2211L43.3572 17.579C43.3668 17.5723 43.375 17.5638 43.3813 17.5539C43.3876 17.544 43.392 17.5329 43.394 17.5213C43.3961 17.5098 43.3959 17.4978 43.3934 17.4864C43.391 17.4749 43.3863 17.464 43.3797 17.4543L42.0835 15.5633C42.0803 15.5585 42.0779 15.553 42.0767 15.5473C42.0755 15.5415 42.0753 15.5356 42.0764 15.5298C42.0774 15.524 42.0796 15.5185 42.0827 15.5136C42.0859 15.5086 42.09 15.5043 42.0948 15.5009L43.1242 14.7801C43.1337 14.7733 43.1419 14.7648 43.1482 14.7549C43.1545 14.745 43.1588 14.734 43.1609 14.7224C43.163 14.7108 43.1628 14.6989 43.1603 14.6874C43.1579 14.6759 43.1532 14.665 43.1465 14.6553L42.5114 13.7285C42.498 13.709 42.4775 13.6957 42.4543 13.6914C42.4311 13.6871 42.4073 13.6924 42.388 13.7059L41.3586 14.4268C41.3538 14.4302 41.3484 14.4325 41.3427 14.4338C41.337 14.435 41.3311 14.4352 41.3254 14.4341C41.3197 14.433 41.3142 14.4309 41.3093 14.4277C41.3044 14.4245 41.3002 14.4203 41.2969 14.4155L40.4945 13.2449L40.368 13.0604C40.3614 13.0507 40.3529 13.0424 40.3431 13.036C40.3333 13.0296 40.3224 13.0253 40.3109 13.0232C40.2995 13.0211 40.2877 13.0213 40.2763 13.0238C40.265 13.0263 40.2541 13.031 40.2446 13.0377L39.3278 13.6798C39.3085 13.6933 39.2952 13.714 39.291 13.7374C39.2869 13.7608 39.292 13.7849 39.3054 13.8045L39.402 13.9455L40.2343 15.1597C40.2376 15.1645 40.2399 15.17 40.2411 15.1757C40.2417 15.1785 40.2421 15.1812 40.2421 15.184C40.2422 15.1871 40.242 15.1902 40.2414 15.1932C40.2404 15.199 40.2383 15.2046 40.2351 15.2095C40.2319 15.2144 40.2278 15.2187 40.2231 15.2221ZM11.1465 16.9945L11.7817 16.0678C11.7951 16.0482 11.8002 16.0241 11.796 16.0007C11.7918 15.9773 11.7786 15.9566 11.7593 15.943L10.7299 15.2222C10.7202 15.2154 10.7136 15.205 10.7115 15.1933C10.7094 15.1816 10.712 15.1695 10.7187 15.1598L11.5509 13.9456L11.6476 13.8046C11.6609 13.785 11.6662 13.7609 11.6619 13.7375C11.6577 13.7141 11.6445 13.6933 11.6252 13.6798L10.7084 13.0378C10.6891 13.0242 10.6652 13.019 10.642 13.0233C10.6189 13.0275 10.5984 13.0408 10.585 13.0604L10.4584 13.245L9.65612 14.4156C9.65278 14.4204 9.64856 14.4246 9.6437 14.4277C9.63879 14.4309 9.63328 14.4331 9.6276 14.4341C9.62187 14.4352 9.61595 14.4351 9.61027 14.4338C9.60459 14.4326 9.59921 14.4303 9.59441 14.4269L8.56503 13.706C8.54565 13.6924 8.52182 13.6872 8.49864 13.6915C8.47551 13.6957 8.45496 13.7091 8.44162 13.7287L7.80638 14.6554C7.79976 14.665 7.79508 14.6759 7.79262 14.6874C7.79016 14.6989 7.78993 14.7108 7.79204 14.7224C7.79409 14.734 7.79842 14.7451 7.80474 14.7549C7.81101 14.7648 7.8192 14.7733 7.8288 14.7801L8.85824 15.501C8.86298 15.5043 8.86708 15.5086 8.87024 15.5136C8.8734 15.5185 8.87557 15.524 8.87656 15.5298C8.87761 15.5357 8.87756 15.5415 8.87633 15.5473C8.87504 15.5531 8.8727 15.5585 8.86942 15.5633L7.57331 17.4543C7.56669 17.464 7.56201 17.4749 7.55955 17.4864C7.55709 17.4979 7.55685 17.5098 7.55896 17.5214C7.56101 17.5329 7.56534 17.544 7.57167 17.5539C7.57799 17.5638 7.58613 17.5723 7.59573 17.5791L8.51246 18.2211C8.53178 18.2347 8.55567 18.2399 8.57885 18.2356C8.60198 18.2314 8.62253 18.218 8.63593 18.1985L9.93199 16.3075C9.93533 16.3027 9.93954 16.2986 9.94446 16.2953C9.94932 16.2922 9.95482 16.29 9.96056 16.289C9.96624 16.2879 9.97215 16.288 9.97783 16.2893C9.98351 16.2905 9.9889 16.2928 9.9937 16.2962L11.0231 17.0171C11.0424 17.0307 11.0663 17.0359 11.0894 17.0316C11.1126 17.0274 11.1331 17.014 11.1465 16.9945ZM2.6592 37.5443C3.04453 37.7716 3.48957 37.8738 3.93422 37.8372C4.44937 37.7948 4.93282 37.5686 5.29829 37.1992C5.66376 36.8298 5.88744 36.3411 5.92948 35.8204C5.96566 35.3709 5.86455 34.9211 5.63976 34.5316C5.41495 34.142 5.07731 33.8317 4.67242 33.6423C4.26754 33.453 3.81492 33.3938 3.3757 33.4728C2.93648 33.5517 2.53182 33.7651 2.21636 34.0839C1.90091 34.4028 1.68988 34.8118 1.61174 35.2558C1.53361 35.6998 1.59217 36.1573 1.77948 36.5666C1.9668 36.9758 2.27386 37.3171 2.6592 37.5443ZM4.62577 31.8123C5.01111 32.0395 5.45615 32.1417 5.90079 32.1051C6.41595 32.0627 6.89937 31.8365 7.26488 31.4672C7.63033 31.0977 7.85404 30.609 7.89607 30.0883C7.93226 29.6388 7.83115 29.189 7.60633 28.7995C7.38156 28.41 7.04392 28.0996 6.63901 27.9103C6.23416 27.7209 5.78153 27.6617 5.34231 27.7407C4.90309 27.8197 4.49842 28.033 4.18297 28.3518C3.86752 28.6707 3.65647 29.0797 3.57834 29.5237C3.50021 29.9677 3.55875 30.4252 3.74606 30.8345C3.93338 31.2437 4.24044 31.585 4.62577 31.8123ZM11.593 37.5239C11.8178 37.1343 11.919 36.6845 11.8827 36.2351C11.8407 35.7143 11.617 35.2256 11.2515 34.8562C10.8861 34.4868 10.4026 34.2607 9.88749 34.2182C9.44283 34.1816 8.99781 34.2838 8.61246 34.5111C8.2271 34.7383 7.92008 35.0796 7.73273 35.4888C7.54544 35.8981 7.48689 36.3557 7.56499 36.7996C7.64315 37.2436 7.85416 37.6526 8.16961 37.9715C8.48506 38.2903 8.88973 38.5037 9.32895 38.5827C9.76817 38.6616 10.2208 38.6024 10.6257 38.4131C11.0306 38.2238 11.3682 37.9134 11.593 37.5239ZM22.8933 17.4541C21.9769 17.5904 21.0418 17.5164 20.1576 17.2373C20.1474 17.2339 20.1363 17.2343 20.1263 17.2385C20.1164 17.2428 20.1084 17.2506 20.1038 17.2604C20.0991 17.2702 20.0982 17.2814 20.1012 17.2919C20.1042 17.3024 20.1109 17.3114 20.12 17.3172L25.354 20.6736C25.3906 20.697 25.4331 20.7095 25.4765 20.7095C25.5198 20.7095 25.5622 20.697 25.5989 20.6736L30.8329 17.3172C30.842 17.3114 30.8487 17.3024 30.8517 17.2919C30.8546 17.2814 30.8538 17.2702 30.8491 17.2604C30.8445 17.2506 30.8364 17.2428 30.8265 17.2386C30.8166 17.2343 30.8055 17.2339 30.7953 17.2373C29.9111 17.5164 28.976 17.5904 28.0596 17.4541C27.1432 17.3178 26.2689 16.9745 25.5017 16.4498C25.4944 16.4445 25.4855 16.4415 25.4765 16.4415C25.4674 16.4415 25.4586 16.4445 25.4513 16.4498C24.684 16.9745 23.8097 17.3178 22.8933 17.4541ZM34.5641 38.708C35.0621 37.4975 35.3186 36.1995 35.3187 34.8885V22.1433C35.3187 22.1315 35.3164 22.1198 35.3119 22.109C35.3075 22.0981 35.3009 22.0882 35.2927 22.0798C35.2845 22.0715 35.2747 22.065 35.2639 22.0604C35.2532 22.0559 35.2416 22.0536 35.23 22.0536H15.7229C15.7113 22.0536 15.6997 22.0559 15.689 22.0604C15.6783 22.0649 15.6685 22.0715 15.6602 22.0798C15.652 22.0882 15.6455 22.0981 15.641 22.109C15.6365 22.1198 15.6342 22.1315 15.6342 22.1433V34.7805C15.6203 36.0914 15.8628 37.3921 16.3477 38.608C16.8327 39.8239 17.5507 40.9309 18.4604 41.8654C19.37 42.7999 20.4534 43.5434 21.6482 44.0533C22.8431 44.5632 24.1258 44.8293 25.4228 44.8364C26.7197 44.8435 28.0052 44.5914 29.2055 44.0947C30.4058 43.598 31.497 42.8664 32.4167 41.9419C33.3363 41.0175 34.0661 39.9184 34.5641 38.708ZM40.1441 38.3165C40.5294 38.5437 40.9744 38.646 41.4191 38.6094C41.9342 38.5669 42.4177 38.3408 42.7831 37.9713C43.1486 37.6019 43.3723 37.1133 43.4143 36.5926C43.4506 36.1431 43.3494 35.6932 43.1246 35.3037C42.8998 34.9142 42.5622 34.6038 42.1573 34.4145C41.7524 34.2251 41.2998 34.1659 40.8606 34.245C40.4213 34.3239 40.0167 34.5372 39.7012 34.8561C39.3858 35.175 39.1748 35.584 39.0966 36.028C39.0185 36.4719 39.077 36.9294 39.2643 37.3387C39.4517 37.748 39.7587 38.0893 40.1441 38.3165ZM43.3466 28.7995C43.1218 29.189 43.0206 29.6388 43.0568 30.0883C43.0989 30.609 43.3226 31.0977 43.688 31.4671C44.0535 31.8365 44.537 32.0627 45.0521 32.1051C45.4967 32.1417 45.9418 32.0395 46.3271 31.8123C46.7124 31.5851 47.0195 31.2437 47.2068 30.8345C47.3942 30.4252 47.4527 29.9677 47.3746 29.5237C47.2965 29.0798 47.0854 28.6707 46.7699 28.3518C46.4545 28.033 46.0498 27.8197 45.6106 27.7407C45.1714 27.6617 44.7187 27.7209 44.3139 27.9103C43.909 28.0996 43.5713 28.4099 43.3466 28.7995ZM46.0973 37.5443C46.4827 37.7716 46.9277 37.8738 47.3723 37.8372C47.8875 37.7948 48.3709 37.5686 48.7364 37.1992C49.1019 36.8298 49.3256 36.3411 49.3676 35.8204C49.4038 35.3709 49.3027 34.9211 49.0779 34.5316C48.853 34.142 48.5154 33.8317 48.1106 33.6423C47.7056 33.453 47.253 33.3938 46.8138 33.4728C46.3746 33.5517 45.97 33.7651 45.6545 34.0839C45.3391 34.4028 45.128 34.8118 45.0498 35.2558C44.9717 35.6998 45.0303 36.1573 45.2176 36.5666C45.4049 36.9758 45.712 37.3171 46.0973 37.5443Z" fill="#00E29B"/>
<path fill-rule="evenodd" clip-rule="evenodd" d="M93.273 13.6876C92.8515 14.7071 92.6389 15.8024 92.6477 16.9073C92.6383 18.0135 92.8503 19.11 93.2718 20.131C93.6928 21.152 94.314 22.0761 95.0985 22.8477C95.8824 23.6194 96.8127 24.2225 97.8338 24.6207C98.8549 25.019 99.945 25.2041 101.039 25.165C102.929 25.2441 104.78 24.6069 106.229 23.3783C107.679 22.1496 108.622 20.4181 108.875 18.523H104.724C104.505 19.3324 104.022 20.0433 103.353 20.5403C102.684 21.0372 101.868 21.2911 101.039 21.2606C100.481 21.2653 99.928 21.1543 99.4146 20.9346C98.9011 20.7149 98.4374 20.391 98.0528 19.983C97.6675 19.575 97.3695 19.0916 97.1769 18.5626C96.9843 18.0336 96.9006 17.4702 96.9322 16.9074C96.9012 16.3457 96.9849 15.7835 97.1781 15.256C97.3713 14.7284 97.6699 14.2465 98.0545 13.8404C98.4398 13.4343 98.9035 13.1125 99.4169 12.8951C99.9304 12.6777 100.482 12.5694 101.039 12.5767C101.869 12.5569 102.681 12.8145 103.352 13.3094C104.022 13.8044 104.512 14.5092 104.746 15.3143H108.853C108.601 13.4231 107.66 11.6949 106.215 10.4667C104.771 9.23863 102.925 8.59888 101.039 8.67231C99.9462 8.63068 98.8572 8.81332 97.8361 9.20927C96.8157 9.60523 95.8854 10.2062 95.1008 10.976C94.3169 11.7457 93.6951 12.6682 93.273 13.6876ZM62.6576 24.9845V8.8509H68.651C72.0257 8.8509 74.5339 11.207 74.5339 14.3933C74.5339 17.4899 72.0257 19.8684 68.651 19.8684H66.7647V24.9845H62.6576ZM66.7647 16.0089H68.5849C68.8091 16.0308 69.0357 16.0046 69.2494 15.9319C69.4631 15.8592 69.6592 15.7416 69.8243 15.587C69.99 15.4323 70.1217 15.244 70.2102 15.0345C70.2986 14.8249 70.3425 14.5988 70.3384 14.3709C70.3431 14.1419 70.2997 13.9145 70.2119 13.7035C70.1235 13.4924 69.9929 13.3025 69.8273 13.1459C69.6622 12.9893 69.466 12.8696 69.2517 12.7946C69.038 12.7195 68.8103 12.6908 68.5849 12.7103H66.7647V16.0089ZM75.9519 17.6249V8.85132H80.0806V17.6249C80.0525 18.0917 80.1198 18.5593 80.2773 18.999C80.4348 19.4387 80.6795 19.8411 80.9963 20.1816C81.3136 20.5222 81.6965 20.7935 82.121 20.9789C82.5454 21.1644 83.0033 21.26 83.4658 21.26C83.9289 21.26 84.3861 21.1644 84.8112 20.9789C85.2357 20.7935 85.6186 20.5222 85.9353 20.1816C86.2526 19.8411 86.4973 19.4387 86.6548 18.999C86.8123 18.5593 86.8791 18.0917 86.8516 17.6249V8.85132H90.958V17.6249C90.9463 19.6287 90.1507 21.5464 88.745 22.9591C87.3393 24.3718 85.4371 25.1648 83.4547 25.1648C81.4723 25.1648 79.5706 24.3718 78.1649 22.9591C76.7592 21.5464 75.9636 19.6287 75.9519 17.6249ZM110.876 24.9849V8.85132H116.869C120.244 8.85132 122.752 11.2074 122.752 14.3937C122.752 17.4903 120.244 19.8688 116.869 19.8688H114.983V24.9849H110.876ZM114.983 16.0093H116.803C117.027 16.0312 117.254 16.005 117.468 15.9323C117.681 15.8596 117.877 15.742 118.042 15.5874C118.208 15.4327 118.34 15.2444 118.428 15.0349C118.517 14.8253 118.561 14.5992 118.557 14.3713C118.561 14.1423 118.518 13.915 118.43 13.7039C118.342 13.4929 118.211 13.3029 118.045 13.1463C117.88 12.9897 117.684 12.87 117.47 12.795C117.256 12.72 117.028 12.6913 116.803 12.7107H114.983V16.0093ZM124.588 8.85132V24.9849H128.672V19.5996H129.716L132.091 24.9849H136.553L133.579 18.8142C134.41 18.3861 135.11 17.7345 135.599 16.9308C136.089 16.1273 136.35 15.2027 136.353 14.259C136.353 11.2298 133.823 8.85132 130.492 8.85132H124.588ZM130.293 16.1439H128.672V12.5537H130.271C130.519 12.5267 130.77 12.5526 131.008 12.6297C131.245 12.7069 131.464 12.8335 131.651 13.0015C131.837 13.1695 131.986 13.3751 132.088 13.6051C132.192 13.835 132.245 14.0841 132.247 14.3365C132.248 14.5887 132.197 14.8385 132.098 15.0698C131.998 15.301 131.851 15.5085 131.667 15.6788C131.483 15.8491 131.265 15.9785 131.029 16.0587C130.792 16.1388 130.541 16.1678 130.293 16.1439Z" fill="#00E29B"/>
<path d="M136.59 31.1802H62.6576V31.6091H136.59V31.1802Z" fill="#00E29B"/>
<path fill-rule="evenodd" clip-rule="evenodd" d="M96.0499 43.4114L96.037 43.7185L96.0376 43.7185C96.5534 43.6902 96.8473 43.6772 96.9158 43.6772C97.2407 43.6772 97.5065 43.6902 97.7009 43.7102C97.8859 43.7344 98.0721 43.7484 98.2583 43.7522V43.4204L98.0446 43.366C97.8426 43.3354 97.6535 43.249 97.4972 43.1162C97.3994 42.9737 97.3543 42.8008 97.3695 42.628L97.3988 41.2443L97.4386 39.1115L97.8432 39.9927L98.5047 41.4383C98.5129 41.4514 98.5182 41.4663 98.52 41.4817L98.5762 41.5932C98.5908 41.6359 98.609 41.6769 98.6312 41.7158C98.6892 41.8486 98.7659 42.018 98.8701 42.2335C99.0405 42.6031 99.1611 42.8737 99.2342 43.0548L99.4731 43.7432L99.8168 43.7522C99.8654 43.6296 99.8999 43.5298 99.9245 43.4569C100.015 43.1608 100.173 42.7368 100.404 42.1797C100.42 42.1419 100.45 42.0772 100.49 41.9884C100.506 41.9546 100.523 41.9174 100.542 41.8769C100.58 41.7965 100.611 41.727 100.636 41.6728C100.645 41.6523 100.653 41.634 100.66 41.6181L101.77 39.044C101.782 39.1273 101.793 39.2835 101.802 39.5093L101.876 41.1038C101.881 41.6627 101.889 42.0971 101.905 42.4139C101.907 42.4916 101.91 42.5784 101.91 42.6768C101.925 42.8381 101.905 43.0008 101.851 43.1532C101.779 43.227 101.682 43.2707 101.58 43.2758C101.413 43.298 101.25 43.3396 101.093 43.3997L101.084 43.7101L101.086 43.71C101.136 43.7067 101.189 43.7032 101.239 43.695C101.648 43.6565 102.064 43.6427 102.495 43.6427C102.8 43.6419 103.104 43.6594 103.407 43.695C103.73 43.7315 103.934 43.7432 104.013 43.7432C104.017 43.684 104.018 43.6207 104.018 43.5546C104.018 43.5298 104.017 43.4982 104.013 43.4472C103.509 43.2916 103.242 43.2069 103.213 43.1856C103.183 43.1635 103.172 43.1194 103.167 43.0472C103.167 43.0231 103.163 42.9825 103.158 42.935C103.129 42.5433 103.109 42.2273 103.099 41.9767C103.059 40.8484 103.036 40.2184 103.026 40.0945L102.951 38.7169V38.6481C102.951 38.5579 103.011 38.4843 103.133 38.4223C103.35 38.3247 103.58 38.2611 103.816 38.2337C103.82 38.1807 103.82 38.1394 103.82 38.1098L103.827 37.9749V37.9748C103.827 37.9548 103.827 37.9176 103.824 37.8764L103.823 37.8762C103.782 37.8722 103.748 37.8688 103.717 37.8688C103.694 37.8688 103.589 37.8764 103.396 37.8929C103.208 37.9101 102.959 37.9177 102.648 37.9212C102.433 37.9253 102.246 37.9343 102.09 37.9459C102.053 37.9459 102.022 37.9472 101.998 37.9481C101.98 37.9488 101.965 37.9494 101.953 37.9494C101.898 37.9433 101.841 37.9556 101.793 37.9845C101.782 38.0003 101.713 38.1422 101.593 38.4189C101.467 38.6881 101.379 38.8897 101.326 39.0254C100.989 39.8674 100.722 40.4897 100.526 40.9C100.425 41.1052 100.327 41.3252 100.224 41.5604C100.209 41.5942 100.194 41.6283 100.179 41.6627C100.142 41.7443 100.101 41.8237 100.056 41.9003C100.042 41.8716 100.029 41.8411 100.014 41.8091C99.9842 41.742 99.9509 41.6681 99.9128 41.5898C99.8677 41.4897 99.8256 41.3989 99.7864 41.3131L99.7641 41.2649C99.7178 41.178 99.6763 41.0832 99.6347 40.9887L99.623 40.9619C99.6177 40.9516 99.613 40.9417 99.6089 40.9322C99.5826 40.8762 99.5621 40.8334 99.5457 40.8022L98.8519 39.2746L98.8028 39.1528C98.6213 38.7314 98.4767 38.4107 98.3683 38.1869C98.3238 38.1036 98.2729 38.0241 98.2155 37.9494L98.0089 37.9432C97.9573 37.939 97.9134 37.9343 97.8865 37.9294L96.5815 37.8847C96.4837 37.8847 96.3941 37.8883 96.3122 37.8915C96.27 37.8932 96.2296 37.8948 96.1921 37.8957V38.0416C96.1916 38.1039 96.1945 38.1662 96.2009 38.2282C96.2495 38.2412 96.3157 38.2571 96.3988 38.275C96.602 38.2885 96.7981 38.3544 96.9691 38.4664C97.0417 38.7042 97.0663 38.9541 97.0423 39.2016C97.0423 39.2128 97.0417 39.2326 97.0399 39.2616C97.0387 39.2919 97.037 39.3321 97.0358 39.3827L96.9667 41.0149L96.9117 42.6204C96.9076 42.8173 96.8549 43.0102 96.7589 43.1814C96.5505 43.3272 96.3034 43.4072 96.0499 43.4114ZM104.142 43.7185H104.06L104.071 43.4115C104.127 43.3956 104.224 43.3716 104.37 43.346C104.513 43.3275 104.653 43.2859 104.785 43.2228C104.861 43.1492 104.922 43.0616 104.965 42.9647L105.865 40.5779L106.923 37.7781H107.409L107.447 37.8593L108.222 39.7152C108.397 40.1077 108.554 40.4898 108.697 40.8643C108.836 41.2319 108.955 41.5355 109.057 41.771C109.115 41.9134 109.195 42.1227 109.303 42.4063C109.372 42.604 109.454 42.7972 109.547 42.9846C109.575 43.0661 109.621 43.1404 109.681 43.2022C109.756 43.2564 109.846 43.2874 109.939 43.2917C110.073 43.3118 110.204 43.3481 110.329 43.3998C110.344 43.4726 110.352 43.5466 110.354 43.6208C110.354 43.6428 110.353 43.6745 110.352 43.7186C110.129 43.7186 109.885 43.7069 109.622 43.6868C109.36 43.6683 109.119 43.6531 108.906 43.6531C108.675 43.6531 108.505 43.6566 108.401 43.6683L107.644 43.7069L107.424 43.7151C107.422 43.6137 107.426 43.5124 107.436 43.4115L107.933 43.3048C108.023 43.2854 108.111 43.2552 108.194 43.2146C108.22 43.1871 108.235 43.1503 108.235 43.112C108.236 43.0703 108.228 43.0289 108.213 42.9901L108.036 42.5434L107.684 41.6628L105.983 41.6594C105.92 41.8026 105.789 42.1551 105.592 42.7209C105.548 42.8232 105.52 42.9313 105.507 43.0418C105.503 43.0726 105.508 43.1038 105.518 43.133C105.529 43.1621 105.546 43.1884 105.568 43.2098C105.685 43.2834 105.819 43.325 105.957 43.3303C105.986 43.3364 106.092 43.3537 106.278 43.3791C106.283 43.4899 106.284 43.5629 106.284 43.6042C106.284 43.6397 106.281 43.6752 106.275 43.7102C106.088 43.7102 105.651 43.684 104.953 43.6331L104.77 43.6683C104.562 43.7017 104.352 43.7185 104.142 43.7185ZM106.804 39.444L106.16 41.1878C106.279 41.1891 106.389 41.1903 106.491 41.1914C106.984 41.1969 107.282 41.2002 107.387 41.2002L107.501 41.1954C107.411 40.9249 107.293 40.6137 107.151 40.2557C107.006 39.9032 106.895 39.6347 106.804 39.444ZM110.536 43.5842C110.536 43.6042 110.539 43.6531 110.544 43.7274L110.536 43.5842ZM110.544 43.7274H110.736H110.544ZM110.736 43.7274C110.908 43.7273 111.079 43.7164 111.25 43.6951L110.736 43.7274ZM111.25 43.6951L111.863 43.6531L111.25 43.6951ZM111.863 43.6531C111.877 43.6531 111.894 43.6527 111.916 43.6521L111.863 43.6531ZM111.916 43.6521C111.947 43.6514 111.985 43.6503 112.031 43.6503L111.916 43.6521ZM112.031 43.6503C112.151 43.6503 112.529 43.6772 113.168 43.7363L112.031 43.6503ZM113.168 43.7363L113.348 43.7274L113.168 43.7363ZM113.348 43.7274C113.354 43.7274 113.362 43.7279 113.373 43.7286L113.348 43.7274ZM113.373 43.7286C113.393 43.7298 113.42 43.7316 113.457 43.7316L113.373 43.7286ZM113.457 43.7316C113.471 43.6216 113.478 43.5106 113.476 43.3998L113.457 43.7316ZM113.476 43.3998C113.281 43.3241 113.081 43.2656 112.876 43.2249L113.476 43.3998ZM112.876 43.2249C112.762 43.205 112.651 43.1668 112.549 43.112L112.876 43.2249ZM112.549 43.112L112.578 42.2617L112.549 43.112ZM112.578 42.2617L112.558 41.2601L112.578 42.2617ZM112.558 41.2601C112.556 41.1576 112.56 41.0551 112.57 40.9531L112.558 41.2601ZM112.57 40.9531C112.602 40.9516 112.632 40.9503 112.661 40.9489L112.57 40.9531ZM112.661 40.9489C112.756 40.9446 112.828 40.9413 112.872 40.9413L112.661 40.9489ZM112.872 40.9413C113.032 40.9283 113.192 40.961 113.334 41.0357L112.872 40.9413ZM113.334 41.0357C113.462 41.1858 113.567 41.3542 113.646 41.5355L113.334 41.0357ZM113.646 41.5355C113.964 42.173 114.185 42.6356 114.319 42.9323L113.646 41.5355ZM114.319 42.9323C114.367 43.0418 114.456 43.2098 114.583 43.4363L114.319 42.9323ZM114.583 43.4363L114.732 43.7316L114.583 43.4363ZM114.732 43.7316C114.764 43.7259 114.805 43.7219 114.854 43.7172L114.732 43.7316ZM114.854 43.7172C114.876 43.7151 114.9 43.7128 114.924 43.7102L114.854 43.7172ZM114.924 43.7102L114.982 43.7035L114.924 43.7102ZM114.982 43.7035C115.121 43.6874 115.208 43.6772 115.235 43.6772L114.982 43.7035ZM115.235 43.6772L115.681 43.684L115.235 43.6772ZM115.681 43.684C115.799 43.682 115.917 43.6896 116.033 43.7068L115.681 43.684ZM116.033 43.7068H116.215H116.033ZM116.215 43.7068L116.449 43.7363L116.215 43.7068ZM116.449 43.7363L116.538 43.7316L116.449 43.7363ZM116.538 43.7316H116.66H116.538ZM116.66 43.7316C116.661 43.6902 116.663 43.6531 116.663 43.6297L116.66 43.7316ZM116.663 43.6297C116.663 43.583 116.654 43.5368 116.636 43.4934L116.663 43.6297ZM116.636 43.4934C116.54 43.4307 116.437 43.3799 116.328 43.3419L116.636 43.4934ZM116.328 43.3419C116.206 43.3042 116.091 43.2438 115.99 43.1636L116.328 43.3419ZM115.99 43.1636C115.855 42.9972 115.736 42.8168 115.638 42.6253L115.99 43.1636ZM115.638 42.6253L114.928 41.4542L115.638 42.6253ZM114.928 41.4542C114.85 41.3276 114.749 41.1748 114.624 40.9944L114.928 41.4542ZM114.624 40.9944C114.572 40.9234 114.524 40.8496 114.48 40.7734L114.624 40.9944ZM114.48 40.7734C114.829 40.6835 115.143 40.4886 115.38 40.2143L114.48 40.7734ZM115.38 40.2143C115.565 39.9795 115.667 39.6881 115.668 39.3876L115.38 40.2143ZM115.668 39.3876C115.665 39.1781 115.614 38.9722 115.52 38.7852L115.668 39.3876ZM115.52 38.7852C115.427 38.5983 115.293 38.4352 115.128 38.3081L115.52 38.7852ZM115.128 38.3081C114.716 37.9761 114.199 37.8078 113.674 37.8351L115.128 38.3081ZM113.674 37.8351C113.306 37.8349 112.939 37.8542 112.573 37.893L113.674 37.8351ZM112.573 37.893L112.016 37.9178L112.573 37.893ZM112.016 37.9178L111.781 37.9294L112.016 37.9178ZM111.781 37.9294C111.763 37.9294 111.647 37.9212 111.432 37.9026L111.781 37.9294ZM111.432 37.9026C111.301 37.9026 111.197 37.9057 111.121 37.9079L111.432 37.9026ZM111.121 37.9079C111.078 37.9092 111.044 37.9102 111.02 37.9102L111.121 37.9079ZM111.02 37.9102C110.882 37.9106 110.745 37.9225 110.609 37.946L111.02 37.9102ZM110.609 37.946L110.591 37.9963L110.609 37.946ZM110.591 37.9963L110.6 38.2668L110.591 37.9963ZM110.6 38.2668C110.678 38.2792 110.841 38.295 111.078 38.3115L110.6 38.2668ZM111.078 38.3115L111.342 38.3652L111.078 38.3115ZM111.342 38.3652C111.358 38.536 111.364 38.9387 111.364 39.5631L111.342 38.3652ZM111.364 39.5631C111.364 39.8502 111.362 40.1525 111.353 40.4821L111.364 39.5631ZM111.353 40.4821L111.342 40.7252L111.353 40.4821ZM111.342 40.7252L111.353 41.1458L111.342 40.7252ZM111.353 41.1458L111.335 41.6849L111.353 41.1458ZM111.335 41.6849L111.339 42.6893L111.335 41.6849ZM111.339 42.6893C111.344 42.8342 111.339 42.9793 111.327 43.1237L111.339 42.6893ZM111.327 43.1237C111.322 43.1679 111.315 43.2119 111.304 43.2552L111.327 43.1237ZM111.304 43.2552C111.17 43.3021 111.031 43.3351 110.891 43.3536L111.304 43.2552ZM110.891 43.3536C110.772 43.363 110.656 43.394 110.548 43.4452L110.891 43.3536ZM112.557 40.4002V40.5255C112.61 40.527 112.657 40.5287 112.699 40.5301C112.77 40.5326 112.825 40.5345 112.869 40.5345C113.247 40.5707 113.627 40.4739 113.944 40.2605C114.048 40.1701 114.13 40.0571 114.184 39.93C114.239 39.8029 114.264 39.665 114.258 39.5266C114.26 39.3456 114.234 39.1653 114.181 38.9924C114.146 38.8552 114.079 38.728 113.988 38.6206C113.867 38.4975 113.72 38.4054 113.557 38.3521C113.352 38.3014 113.141 38.2794 112.93 38.2867C112.812 38.2854 112.694 38.2936 112.578 38.3115L112.57 38.3983L112.578 39.0047L112.567 39.3751L112.57 39.8674C112.561 40.0023 112.559 40.1799 112.557 40.4002ZM116.956 43.7196C116.937 43.721 116.921 43.7222 116.908 43.7233V43.3996C116.966 43.379 117.064 43.3535 117.201 43.3205C117.35 43.2898 117.494 43.2403 117.631 43.1732C117.691 43.0524 117.719 42.9183 117.713 42.7835L117.705 42.2561L117.716 41.2242L117.713 40.9825C117.727 40.5827 117.738 40.3132 117.743 40.1741C117.746 40.1058 117.748 40.0689 117.748 40.0635L117.739 39.4632L117.751 39.2154L117.727 38.7087L117.719 38.5118C117.712 38.4637 117.702 38.416 117.689 38.3693C117.5 38.2975 117.298 38.2616 117.096 38.2633C117.045 38.2615 116.994 38.256 116.944 38.2468L116.932 37.8537L118.204 37.9026C118.363 37.9102 118.46 37.9137 118.501 37.9137C118.674 37.9137 118.956 37.9005 119.342 37.8764C119.391 37.8734 119.436 37.8706 119.477 37.868C119.616 37.8595 119.708 37.8537 119.752 37.8537C119.756 37.9026 119.758 37.9549 119.758 37.9963C119.757 38.0618 119.753 38.1273 119.744 38.1925C119.612 38.239 119.476 38.2788 119.339 38.3115C119.212 38.342 119.086 38.3799 118.962 38.4251C118.941 38.5381 118.932 38.653 118.934 38.768C118.934 38.8939 118.941 38.9999 118.949 39.0833L118.947 39.2256C118.94 39.6627 118.934 40.007 118.934 40.2522L118.941 41.4424L118.922 42.0456L118.934 42.9481L118.924 43.1195C118.927 43.1551 118.935 43.19 118.949 43.2228C119.13 43.2586 119.292 43.2875 119.444 43.3046C119.468 43.3068 119.557 43.3171 119.714 43.3419C119.723 43.4314 119.73 43.5085 119.73 43.5629C119.73 43.5945 119.729 43.6503 119.726 43.7185C119.696 43.7172 119.665 43.7188 119.636 43.7233C119.542 43.7315 119.487 43.7315 119.473 43.7315C119.435 43.7297 119.396 43.7254 119.358 43.7185C119.321 43.7113 119.169 43.6954 118.9 43.6673C118.857 43.6629 118.812 43.6581 118.763 43.6531L117.977 43.6455C117.818 43.6455 117.59 43.662 117.288 43.6902C117.137 43.7059 117.025 43.7144 116.956 43.7196ZM123.253 37.8275C123.481 37.8727 123.706 37.9358 123.925 38.0162C123.965 38.1682 123.992 38.3231 124.008 38.4795C124.038 38.7207 124.055 38.9634 124.059 39.2065C124.058 39.2644 124.052 39.3222 124.043 39.3793L123.997 39.391L123.678 39.369L123.621 39.3614C123.546 39.0685 123.414 38.7938 123.232 38.5539C123.131 38.4398 123.008 38.3486 122.871 38.2863C122.733 38.2239 122.584 38.1919 122.433 38.1925C122.181 38.1788 121.932 38.2618 121.738 38.4251C121.657 38.4962 121.592 38.5846 121.548 38.6839C121.504 38.7833 121.483 38.8912 121.486 39C121.489 39.1045 121.513 39.2074 121.555 39.3026C121.598 39.3978 121.659 39.4836 121.734 39.5549C122.045 39.8053 122.41 39.9795 122.798 40.0636C123.023 40.1333 123.243 40.2199 123.455 40.3225C123.674 40.4141 123.874 40.5473 124.043 40.7149C124.199 40.8686 124.325 41.0517 124.412 41.2539C124.482 41.4619 124.515 41.6807 124.51 41.9003C124.51 42.1856 124.457 42.4684 124.355 42.734C124.294 42.889 124.202 43.0292 124.083 43.145C123.956 43.2652 123.817 43.3722 123.669 43.4644C123.489 43.5816 123.292 43.6703 123.085 43.7274C122.832 43.7875 122.572 43.8152 122.311 43.81C122.061 43.8037 121.812 43.7731 121.567 43.7185L121.031 43.5587C120.931 43.5395 120.837 43.5017 120.751 43.4472C120.73 43.4243 120.716 43.3952 120.712 43.3639V43.3116C120.712 43.2792 120.705 43.0748 120.688 42.6927C120.682 42.4999 120.68 42.3615 120.68 42.2776V42.1088L121.096 42.0971C121.237 42.4345 121.328 42.6355 121.37 42.7057C121.452 42.8461 121.555 42.9723 121.675 43.0795C121.795 43.1763 121.929 43.2524 122.072 43.3046C122.234 43.3624 122.404 43.3904 122.575 43.3872C122.756 43.384 122.936 43.3491 123.105 43.284C123.292 43.2216 123.456 43.1027 123.573 42.9432C123.64 42.8614 123.689 42.7667 123.718 42.6651C123.747 42.5635 123.755 42.457 123.743 42.352C123.73 42.247 123.696 42.1457 123.644 42.0543C123.592 41.9628 123.521 41.883 123.438 41.8198C123.13 41.6094 122.791 41.4508 122.433 41.3502C122.034 41.224 121.652 41.048 121.296 40.8263C121.08 40.668 120.907 40.4561 120.795 40.2109C120.681 39.9807 120.619 39.7272 120.614 39.4694C120.612 39.2418 120.655 39.0159 120.742 38.806C120.829 38.5961 120.958 38.4066 121.121 38.2495C121.537 37.8888 122.076 37.7087 122.622 37.7483C122.834 37.7584 123.045 37.7848 123.253 37.8275ZM125.207 37.9311C125.247 37.7859 125.275 37.6854 125.296 37.6361H125.572C125.586 37.6568 125.596 37.674 125.604 37.6878C125.609 37.6951 125.613 37.7015 125.616 37.707C125.671 37.8092 125.734 37.906 125.807 37.9962C125.846 38.0037 126.051 38.0065 126.417 38.0065C126.647 38.0065 126.85 38.0065 127.029 38.0037L127.119 37.9962L127.66 37.9935L128.666 37.9962H130.045L130.307 37.959C130.366 37.8965 130.409 37.8201 130.432 37.7366C130.439 37.7224 130.447 37.7045 130.456 37.6822C130.463 37.6655 130.471 37.6463 130.48 37.6244L130.678 37.6182C130.693 37.6182 130.71 37.6193 130.731 37.6206C130.754 37.622 130.779 37.6237 130.809 37.6244C130.813 37.8322 130.815 38.1421 130.815 38.5613L130.822 38.9641L130.815 39.1941C130.817 39.2609 130.81 39.3276 130.797 39.3929C130.693 39.4301 130.585 39.4557 130.476 39.4694C130.377 39.3074 130.293 39.1372 130.224 38.9607C130.179 38.8312 130.122 38.7069 130.052 38.5896C130.019 38.5516 129.976 38.5244 129.928 38.5118C129.612 38.4877 129.295 38.4799 128.978 38.4884C128.895 38.4884 128.792 38.4959 128.666 38.509C128.652 38.6039 128.644 38.6995 128.641 38.7955L128.648 39.3978V40.7252L128.662 42.155L128.658 42.7436C128.651 42.901 128.67 43.0585 128.714 43.2097C128.799 43.2392 128.887 43.2591 128.976 43.2689L128.977 43.2692C129.004 43.2738 129.114 43.2926 129.308 43.3419C129.397 43.364 129.475 43.3873 129.546 43.4114C129.549 43.428 129.55 43.4436 129.553 43.4582C129.563 43.5406 129.57 43.5898 129.57 43.6097C129.567 43.6493 129.562 43.6886 129.554 43.7274C129.488 43.7316 129.436 43.7316 129.392 43.7316C129.087 43.7316 128.827 43.7185 128.613 43.6999C128.399 43.6745 128.01 43.6683 127.448 43.6683C127.36 43.6683 127.098 43.684 126.664 43.7185C126.494 43.7315 126.385 43.7363 126.336 43.7363C126.331 43.6902 126.328 43.6565 126.325 43.6331L126.32 43.5299V43.4933C126.419 43.3885 126.549 43.3208 126.691 43.3013C126.912 43.2554 127.127 43.1864 127.334 43.0954C127.366 43.0244 127.383 42.9481 127.387 42.8703C127.407 42.5123 127.418 41.934 127.418 41.1506L127.394 39.444C127.401 39.1608 127.394 38.8775 127.371 38.5952C127.365 38.5722 127.353 38.5513 127.336 38.5345C127.319 38.5186 127.297 38.5096 127.274 38.5091C127.181 38.496 126.883 38.4884 126.374 38.4884C126.183 38.4758 125.991 38.503 125.812 38.5683C125.589 38.7418 125.395 38.9497 125.237 39.1845C125.164 39.2788 125.108 39.3291 125.074 39.3291C124.978 39.2842 124.889 39.2248 124.811 39.1528C124.963 38.7721 125.09 38.3819 125.192 37.9845C125.198 37.9661 125.203 37.9483 125.207 37.9311ZM130.381 43.7185H130.302L130.312 43.4115C130.369 43.3956 130.467 43.3715 130.612 43.346C130.756 43.327 130.896 43.2854 131.027 43.2228C131.103 43.149 131.165 43.0614 131.209 42.9647L132.11 40.5779L133.165 37.778H133.649L133.689 37.8592L134.462 39.7152C134.639 40.1077 134.797 40.4898 134.937 40.8643C135.077 41.2319 135.198 41.5355 135.298 41.771C135.356 41.9134 135.436 42.1227 135.543 42.4063C135.612 42.6041 135.695 42.7972 135.789 42.9846C135.816 43.0658 135.861 43.14 135.919 43.2022C135.996 43.2562 136.086 43.2872 136.179 43.2917C136.314 43.312 136.446 43.3482 136.573 43.3998C136.584 43.4729 136.592 43.5467 136.595 43.6207C136.595 43.6428 136.594 43.6745 136.591 43.7185C136.369 43.7185 136.129 43.7069 135.864 43.6868C135.598 43.6683 135.361 43.6531 135.149 43.6531C134.916 43.6531 134.745 43.6566 134.639 43.6683L133.883 43.7069L133.663 43.7151C133.663 43.6098 133.67 43.5085 133.677 43.4115L134.175 43.3047C134.264 43.2871 134.35 43.2568 134.43 43.2145C134.444 43.2019 134.456 43.1861 134.464 43.1683C134.471 43.1506 134.475 43.1314 134.475 43.1119C134.474 43.0703 134.467 43.029 134.452 42.9901L134.275 42.5434L133.927 41.6628L132.224 41.6594C132.161 41.8025 132.032 42.155 131.831 42.7209C131.789 42.8235 131.761 42.9314 131.748 43.0417C131.745 43.0725 131.749 43.1035 131.759 43.1326C131.769 43.1617 131.786 43.188 131.807 43.2097C131.927 43.2842 132.063 43.3257 132.203 43.3302C132.228 43.3364 132.337 43.3536 132.52 43.3791C132.521 43.4378 132.522 43.4859 132.523 43.5243C132.523 43.5583 132.524 43.5847 132.524 43.6041C132.525 43.6397 132.521 43.6752 132.515 43.7102C132.331 43.7102 131.889 43.684 131.194 43.6331L131.011 43.6683C130.803 43.7017 130.592 43.7185 130.381 43.7185ZM133.045 39.444L132.399 41.1878L132.713 41.1913C133.22 41.1968 133.526 41.2002 133.629 41.2002L133.743 41.1954C133.653 40.9248 133.536 40.6137 133.394 40.2556C133.249 39.9031 133.135 39.6347 133.045 39.444ZM68.171 38.2895V38.2896V38.2895ZM68.2196 38.9725L68.171 38.2895C67.928 38.1533 67.6675 38.0508 67.3976 37.9846C66.9889 37.8855 66.5685 37.8416 66.1482 37.8538C65.5469 37.8258 64.9474 37.9377 64.3953 38.1808C63.8402 38.4435 63.3771 38.8706 63.0674 39.4055C62.8034 39.8758 62.6623 40.4063 62.6576 40.9469C62.657 41.3733 62.746 41.795 62.9187 42.184C63.0581 42.4928 63.2548 42.7715 63.4989 43.0046C63.7758 43.2784 64.1049 43.4923 64.4667 43.6332C64.9304 43.7989 65.4204 43.8756 65.9122 43.8596C66.2928 43.8591 66.6722 43.8245 67.0463 43.7564C67.2875 43.7125 67.5234 43.6423 67.75 43.5471C67.8765 43.5029 67.9959 43.4393 68.1036 43.3584C68.1575 43.3118 68.1967 43.2503 68.2166 43.1815C68.26 42.9272 68.2752 42.6689 68.2623 42.4112L68.2594 41.8198C68.2453 41.7051 68.2611 41.5886 68.3045 41.4818C68.3337 41.4478 68.37 41.4209 68.411 41.4032C68.452 41.3854 68.4959 41.3772 68.5404 41.3792L68.829 41.384C68.9274 41.3805 69.0246 41.3671 69.12 41.3441C69.1317 41.3021 69.1382 41.2589 69.1393 41.2154C69.1411 41.202 69.1376 41.1887 69.1306 41.1775C69.1247 41.1699 69.1153 41.1664 69.0925 41.1637C68.9783 41.1589 68.8841 41.1554 68.8033 41.1554L68.3876 41.1589L67.9327 41.1375C67.8068 41.1362 67.6985 41.1344 67.6066 41.133C67.507 41.1313 67.4268 41.13 67.3671 41.13C67.0311 41.1218 66.695 41.134 66.3607 41.1664C66.3455 41.1833 66.3343 41.2029 66.3273 41.2243L66.3964 41.3399C66.4023 41.3407 66.4081 41.3415 66.4134 41.3422C66.4356 41.3452 66.4526 41.3475 66.469 41.3503L66.5884 41.3468L66.7658 41.3598C67.1271 41.3888 67.3414 41.4398 67.4104 41.53C67.5088 41.8204 67.5439 42.1291 67.5123 42.4346C67.5229 42.6457 67.5029 42.8571 67.4532 43.0624C67.4081 43.18 67.3291 43.2814 67.2266 43.3536C67.0814 43.4575 66.9157 43.5275 66.7412 43.5587C66.5475 43.6095 66.3484 43.6358 66.1482 43.6372C65.9397 43.6437 65.7307 43.6267 65.5264 43.5864C65.2986 43.5322 65.0826 43.4376 64.8877 43.3069C64.6195 43.1259 64.3806 42.9042 64.1798 42.6494C63.9831 42.4016 63.8256 42.1242 63.7132 41.8274C63.5996 41.5091 63.5434 41.1724 63.5493 40.834C63.5335 40.255 63.6904 39.6846 63.9995 39.1969C64.2606 38.7805 64.6365 38.4503 65.0809 38.2468C65.4702 38.1008 65.8841 38.0348 66.2986 38.0527C66.6874 38.0412 67.0691 38.1611 67.3829 38.3935C67.709 38.6685 67.9631 39.0206 68.123 39.4185L68.2482 39.3951C68.2482 39.3221 68.2401 39.181 68.2196 38.9725ZM70.2447 43.501C70.0035 43.552 69.7593 43.5883 69.514 43.6098L69.5134 43.6097C69.4976 43.6201 69.4842 43.6339 69.4742 43.65C69.4637 43.6662 69.4567 43.6843 69.4543 43.7033L69.4631 43.748L69.5497 43.7646C69.7933 43.7563 69.9262 43.7522 69.9531 43.7522L70.5445 43.7563L71.1498 43.748C71.1651 43.748 71.182 43.7488 71.2014 43.7497C71.2259 43.7509 71.2552 43.7522 71.288 43.7522C71.3951 43.7612 71.5831 43.7612 71.8483 43.7612C71.9057 43.7597 71.9619 43.7523 72.0175 43.7391C72.0204 43.6966 72.0075 43.6545 71.9818 43.6207L71.8026 43.5712C71.6299 43.5373 71.4613 43.4868 71.2985 43.4204C71.2447 43.3862 71.2019 43.3369 71.1756 43.2786C71.1528 43.2018 71.1416 43.1219 71.1422 43.0417V41.5045C71.1422 41.2064 71.1481 41.0109 71.1545 40.916L71.2816 40.9207L71.6574 40.916C71.7371 40.9142 71.8155 40.9299 71.8887 40.962C71.9754 41.0266 72.0491 41.1075 72.1059 41.2002L72.7646 42.4139C73.0514 42.9068 73.2962 43.3537 73.5081 43.7612C73.5608 43.7668 73.6141 43.7693 73.6674 43.7687C74.2154 43.7687 74.6913 43.7687 75.0983 43.7612C75.1 43.7364 75.1 43.7151 75.1 43.6951C75.1 43.6773 75.1 43.6531 75.0983 43.6249C74.8857 43.5903 74.6773 43.5326 74.4765 43.4527C74.3588 43.3963 74.2528 43.3192 74.1621 43.2249C73.9888 43.0116 73.833 42.7846 73.696 42.5462L73.1299 41.5679C72.9759 41.3168 72.836 41.057 72.7113 40.7899C72.7851 40.7397 72.8618 40.6934 72.9408 40.6509C73.1305 40.5754 73.3003 40.4577 73.4384 40.3066C73.5766 40.1554 73.6791 39.9748 73.7388 39.778C73.7979 39.5812 73.8131 39.3735 73.7821 39.1702C73.7511 38.9668 73.675 38.7731 73.5602 38.6035C73.408 38.3726 73.1879 38.1966 72.9303 38.1009C72.4765 37.9811 72.0076 37.9319 71.5392 37.955L70.3671 37.9674H70.0023C69.9397 37.9675 69.8776 37.9712 69.8156 37.9784C69.7816 37.9815 69.7541 37.9846 69.7342 37.987C69.7143 37.9893 69.7008 37.9908 69.6944 37.9908C69.6229 37.9827 69.5509 37.9974 69.4883 38.0328C69.4795 38.0599 69.4742 38.0882 69.4731 38.1168C69.4719 38.1307 69.4748 38.1445 69.4812 38.1569C69.4877 38.1692 69.4971 38.1797 69.5088 38.187C69.6341 38.2216 69.7617 38.2452 69.8905 38.2572C70.0462 38.2572 70.1967 38.3147 70.3132 38.419C70.3876 38.6174 70.4139 38.8306 70.3911 39.0414L70.3881 39.8502L70.3911 40.9779L70.3817 41.5817L70.3952 42.1194C70.3952 42.2418 70.3928 42.3747 70.3881 42.5062C70.3635 42.9723 70.3495 43.2435 70.3495 43.3172V43.3695C70.3413 43.3974 70.3278 43.4233 70.3103 43.4459C70.2921 43.4685 70.2699 43.4872 70.2447 43.501ZM71.2447 40.6712C71.2207 40.6702 71.1943 40.6691 71.1645 40.668C71.1528 40.3038 71.1481 40.0098 71.1481 39.7758L71.151 39.4296L71.1276 38.5897C71.1276 38.5091 71.1334 38.3886 71.1481 38.2337C71.2511 38.2237 71.3548 38.2193 71.4584 38.2206C71.7476 38.2115 72.0351 38.2706 72.2979 38.3934C72.5017 38.4857 72.6738 38.6365 72.7927 38.8272C72.9121 39.023 72.9777 39.2472 72.9841 39.477C72.9835 39.6628 72.9414 39.8459 72.8606 40.0126C72.795 40.1673 72.6902 40.3019 72.5567 40.4029C72.415 40.504 72.2517 40.57 72.0801 40.5958C71.8372 40.646 71.5895 40.6722 71.3413 40.6742C71.3167 40.6742 71.2845 40.6729 71.2447 40.6712ZM77.5724 38.094C77.5713 38.0534 77.5637 38.0133 77.5508 37.9749L76.3839 37.9908H75.6767L75.3781 37.9963H75.2669C75.2247 37.9948 75.1826 38.0053 75.1457 38.0265C75.1363 38.0347 75.1281 38.045 75.1228 38.0567C75.1176 38.0684 75.1152 38.0811 75.1152 38.094C75.117 38.118 75.1228 38.1417 75.1328 38.1635C75.2487 38.2166 75.3769 38.238 75.5034 38.2255L75.7674 38.2206C75.7955 38.2199 75.8236 38.2263 75.8488 38.2393C75.8734 38.2523 75.8951 38.2714 75.9109 38.295C75.9659 38.4078 75.9899 38.5337 75.98 38.6592V39.3462L75.9671 40.3617L75.98 41.6153V41.9293C75.9647 42.2612 76.0186 42.5927 76.1369 42.9026C76.2376 43.1007 76.381 43.2733 76.5572 43.4073C76.7984 43.5963 77.0736 43.736 77.3681 43.8183C77.6685 43.8891 77.977 43.9194 78.2855 43.9085C78.5642 43.906 78.84 43.8588 79.104 43.7687C79.3476 43.7006 79.5748 43.5832 79.7721 43.4238C79.9296 43.297 80.0584 43.1376 80.1503 42.9564C80.2533 42.7333 80.3212 42.4955 80.3523 42.2514C80.3938 41.8517 80.4102 41.4498 80.4014 41.048L80.3891 40.5799L80.3915 40.2109L80.364 39.2787C80.3511 38.9683 80.3446 38.768 80.3446 38.6729C80.3376 38.6091 80.3435 38.5445 80.3622 38.483C80.3804 38.4216 80.4108 38.3644 80.4512 38.315C80.6538 38.2114 80.8768 38.1542 81.104 38.1477L81.1116 37.9845H80.9734L80.2685 38.0038C80.258 38.0038 80.2147 38.0011 80.1397 37.9963C80.0905 37.9932 80.0267 37.9892 79.9495 37.9845C79.8259 37.9723 79.7012 37.9665 79.5765 37.9672C79.4629 37.9672 79.347 37.9749 79.2317 37.9845C79.2364 38.0293 79.2445 38.0735 79.2574 38.1167C79.4893 38.1475 79.7129 38.2237 79.9161 38.3411C79.974 38.3853 80.0168 38.4466 80.039 38.5166C80.087 38.7694 80.1122 39.0261 80.114 39.2836L80.1813 40.5778C80.1813 40.5912 80.1795 40.6253 80.1772 40.6792C80.1749 40.7171 80.1725 40.7646 80.1702 40.8216C80.1637 40.962 80.162 41.0563 80.162 41.1038V41.2318C80.1637 41.2783 80.1649 41.3203 80.1667 41.3578C80.1719 41.5029 80.1743 41.5807 80.1743 41.5933C80.1954 41.9953 80.1362 42.3976 80.0004 42.776C79.8798 43.0377 79.676 43.2512 79.4219 43.3825C79.059 43.5499 78.6614 43.6259 78.2633 43.6041C78.0256 43.6026 77.7902 43.5598 77.5672 43.4775C77.3646 43.4173 77.1808 43.307 77.0309 43.1567C76.9073 43.0165 76.8201 42.8477 76.7762 42.6651C76.7059 42.1606 76.679 41.6509 76.6972 41.1417L76.6837 38.9153L76.7282 38.403C76.7352 38.3753 76.7475 38.3492 76.7645 38.3264C76.7815 38.3035 76.8031 38.2844 76.8277 38.2702C76.9255 38.2144 77.0373 38.1874 77.1497 38.1924C77.1626 38.1924 77.1778 38.1929 77.1948 38.1935C77.2159 38.1943 77.2405 38.1952 77.2668 38.1952C77.302 38.2005 77.3365 38.2029 77.3716 38.2027C77.4354 38.2019 77.4987 38.1912 77.5596 38.1711C77.5666 38.1459 77.5707 38.1201 77.5724 38.094ZM81.707 38.0003C81.6719 38.002 81.6368 38.0057 81.6022 38.0113H81.6017C81.5876 38.0381 81.5794 38.0677 81.5776 38.0981C81.5806 38.1264 81.5876 38.1542 81.5976 38.1807C81.8874 38.1909 82.1695 38.2739 82.4195 38.4224C82.5033 38.5393 82.539 38.6844 82.5191 38.8272V38.9064C82.5191 39.4633 82.5238 40.0099 82.5372 40.5503C82.5659 41.7023 82.5806 42.4552 82.5806 42.809C82.5806 42.9198 82.5806 43.0046 82.5759 43.07C82.5753 43.1264 82.5747 43.1701 82.5735 43.202C82.5729 43.2215 82.5729 43.2366 82.5729 43.2476C82.5794 43.332 82.5642 43.4167 82.5284 43.4933C82.4787 43.5336 82.419 43.5604 82.3563 43.5711L81.7755 43.6868L81.7802 43.8011C81.8657 43.799 81.9301 43.7965 81.9746 43.7948C82.005 43.7936 82.0261 43.7928 82.0372 43.7928L82.5074 43.8066L83.2878 43.777C83.4886 43.7792 83.6894 43.793 83.8885 43.8183C83.9342 43.8222 83.9746 43.826 84.0091 43.8292C84.0718 43.8349 84.1157 43.839 84.1373 43.839C84.1765 43.841 84.2152 43.834 84.2515 43.8183C84.2767 43.796 84.2936 43.7652 84.2983 43.7316C84.2843 43.7061 84.2626 43.6861 84.2357 43.6745C84.2257 43.6698 84.1719 43.6557 84.0782 43.6315C84.0477 43.6235 84.0126 43.6144 83.974 43.6041C83.6321 43.5264 83.4213 43.4775 83.3493 43.4548C83.3235 43.3481 83.3124 43.2382 83.3159 43.1284C83.3159 43.07 83.32 42.997 83.3253 42.9199C83.3329 42.8373 83.3364 42.7801 83.3364 42.7498L83.2796 40.6997V40.4457C83.2626 40.2969 83.2509 39.9163 83.2509 39.3029C83.2509 39.1363 83.2574 39.0137 83.2626 38.9339L83.2673 38.8409L83.2509 38.3363L83.2574 38.2702C83.4675 38.1972 83.6906 38.1707 83.9113 38.1924C84.0799 38.2002 84.2468 38.225 84.4102 38.2668C84.5788 38.2994 84.7398 38.3636 84.8855 38.4561C85.0741 38.5934 85.2269 38.7748 85.3305 38.9848C85.44 39.195 85.4974 39.4289 85.4985 39.6663C85.4979 39.9029 85.4435 40.1363 85.3387 40.3479C85.2345 40.5585 85.0688 40.7316 84.8645 40.8435C84.6619 40.9597 84.433 41.0198 84.2 41.0177C84.07 41.0232 83.94 41.0058 83.8159 40.9662C83.7761 40.9479 83.7322 40.938 83.6883 40.9372C83.6684 40.9474 83.6514 40.9632 83.6391 40.9827C83.6572 41.0355 83.6941 41.0797 83.7427 41.1066C83.9576 41.2654 84.2193 41.3459 84.4851 41.3351C84.7281 41.3469 84.971 41.3073 85.1976 41.2189C85.4248 41.1305 85.6309 40.9952 85.803 40.8216C85.9599 40.662 86.0834 40.4725 86.1671 40.2642C86.2509 40.0558 86.293 39.8327 86.2901 39.6078C86.286 39.3092 86.2093 39.0162 86.0664 38.7548C85.9271 38.4816 85.7034 38.2621 85.4289 38.1298C85.0764 37.9837 84.6964 37.9154 84.3159 37.9294C84.0507 37.9294 83.8217 37.9391 83.6233 37.959L82.8645 38.0038C82.6532 38.0162 82.5173 38.0197 82.4553 38.0197C82.4084 38.0197 82.3265 38.0197 82.2018 38.0162C81.9717 38.0038 81.8071 38.0003 81.707 38.0003ZM87.0565 40.0594C86.9815 40.3246 86.9452 40.5994 86.9499 40.8752V40.8753C86.9464 41.2257 87.0032 41.574 87.1191 41.9045C87.2292 42.2204 87.3972 42.5124 87.6138 42.7658C87.7948 42.9955 88.009 43.1955 88.2508 43.3584C88.4897 43.5105 88.7491 43.6256 89.0219 43.6999C89.3644 43.7975 89.7198 43.8444 90.0757 43.839C90.4434 43.8417 90.8088 43.7871 91.1594 43.6772C91.4616 43.5877 91.7461 43.4461 92.0008 43.2586C92.2718 43.067 92.5142 42.8365 92.7197 42.5743C92.886 42.339 93.0142 42.0786 93.0997 41.8026C93.1799 41.4812 93.2168 41.1503 93.2092 40.8188C93.2109 40.4739 93.1541 40.1311 93.0412 39.8055C92.9545 39.5542 92.8263 39.3196 92.6618 39.1115C92.4609 38.8383 92.2133 38.6037 91.9299 38.4189C91.677 38.2639 91.4036 38.145 91.1179 38.0658C90.8205 37.9829 90.5137 37.9403 90.2051 37.9391C89.817 37.9291 89.43 37.9803 89.0576 38.0906C88.6958 38.199 88.3545 38.3667 88.0465 38.587C87.7988 38.779 87.5881 39.015 87.4241 39.2836C87.2713 39.5263 87.1478 39.7868 87.0565 40.0594ZM90.8111 43.5677C90.5582 43.636 90.2982 43.6718 90.0365 43.6745C89.7795 43.6759 89.5248 43.6268 89.2859 43.5299C89.0488 43.4366 88.8322 43.2972 88.6484 43.1196C88.4604 42.9404 88.3006 42.7342 88.173 42.5076C88.0354 42.2498 87.9335 41.9742 87.8697 41.6884C87.8006 41.412 87.7631 41.1286 87.7579 40.8436C87.7631 40.5682 87.8006 40.2944 87.8697 40.0278C87.9399 39.7313 88.0483 39.4454 88.1923 39.1776C88.3117 38.9548 88.4692 38.7549 88.6566 38.587C88.8474 38.4353 89.0629 38.3184 89.293 38.2414C89.5471 38.1517 89.814 38.1056 90.0834 38.105C90.4071 38.1027 90.728 38.1708 91.0236 38.3047C91.3111 38.4295 91.5675 38.6174 91.7742 38.8547C91.9803 39.0894 92.1337 39.3663 92.2238 39.6664C92.3409 40.0584 92.4006 40.4658 92.4001 40.8753C92.3995 41.2059 92.3638 41.5356 92.2929 41.8584C92.2391 42.1383 92.1448 42.4088 92.0131 42.6611C91.8884 42.8761 91.7233 43.0642 91.5265 43.2146C91.3152 43.382 91.0716 43.5024 90.8111 43.5677Z" fill="#00E29B"/>
</svg>
