<svg width="126" height="30" viewBox="0 0 126 30" fill="none" xmlns="http://www.w3.org/2000/svg">
<g clip-path="url(#clip0_165_68)">
<path fill-rule="evenodd" clip-rule="evenodd" d="M0.71189 28.5321H7.72762V18.7161C7.72762 14.8741 7.72778 7.81232 13.4331 7.81232C14.5102 7.76399 15.5846 7.95924 16.5743 8.38329V1.37281C15.8721 1.20432 15.1492 1.13491 14.4274 1.16666C10.2395 1.16666 7.35909 5.37065 7.04392 7.86361H6.94052V1.79087H0.710938L0.71189 28.5321Z" fill="#00E29B"/>
<path fill-rule="evenodd" clip-rule="evenodd" d="M45.6819 1.79053H38.6633V14.8738C38.6633 18.3026 37.5655 23.755 32.4866 23.755C27.9853 23.755 27.9308 19.3399 27.9308 16.068V1.79053H20.915V18.6654C20.915 24.6869 23.6888 29.1531 30.0753 29.1531C31.7794 29.1549 33.462 28.7725 34.9951 28.0348C36.5283 27.2971 37.8724 26.2234 38.9258 24.8949H39.0321V28.5318H45.6828L45.6819 1.79053Z" fill="#00E29B"/>
<path fill-rule="evenodd" clip-rule="evenodd" d="M52.7949 28.5314H59.8116V15.5479C59.8116 12.0697 60.3856 6.56406 65.0439 6.56406C69.0778 6.56406 69.0776 10.0945 69.0776 12.5904V28.5314H76.0933V15.5479C76.0933 12.0697 76.6664 6.56406 81.3276 6.56406C85.3575 6.56406 85.3574 10.0945 85.3574 12.5904V28.5314H92.3741V11.6545C92.3741 5.6834 90.484 1.16586 83.839 1.16586C82.131 1.10358 80.4394 1.5123 78.9515 2.34654C77.4637 3.1808 76.2383 4.4079 75.4115 5.89147C73.8903 2.56622 71.2214 1.16586 67.452 1.16586C65.8549 1.16597 64.2837 1.56565 62.8837 2.32789C61.4838 3.09014 60.3002 4.19033 59.4428 5.52662H59.3375V1.79006H52.7939L52.7949 28.5314Z" fill="#00E29B"/>
<path fill-rule="evenodd" clip-rule="evenodd" d="M115.818 7.87782L113.997 9.41367C112.567 8.78011 111.018 8.45359 109.452 8.45558C107.762 8.47163 106.098 8.86169 104.579 9.59727C103.06 10.3328 101.726 11.3954 100.674 12.7073C99.622 14.0194 98.8788 15.5476 98.4984 17.1809C98.1179 18.8141 98.1096 20.5109 98.4745 22.1475C97.2899 20.0305 96.6754 17.6463 96.6907 15.2251C96.6907 8.34236 100.887 2.76318 107.274 2.76318C109.021 2.81349 110.726 3.31079 112.223 4.2069C113.72 5.10301 114.958 6.36752 115.818 7.87782Z" fill="#00E29B"/>
<path fill-rule="evenodd" clip-rule="evenodd" d="M126.001 14.0539C126.001 18.1911 123.607 21.3451 119.811 23.0599L116.59 18.4331C117.749 16.6709 118.367 14.6119 118.367 12.5074C118.304 9.47548 117.031 6.59207 114.827 4.49086C112.622 2.38965 109.666 1.24256 106.609 1.30168H106.518C108.031 0.838331 109.6 0.58241 111.182 0.541016C119.368 0.541984 126.001 7.23602 126.001 14.0539Z" fill="#00E29B"/>
<path fill-rule="evenodd" clip-rule="evenodd" d="M124.695 21.2145C122.868 25.6489 117.613 29.7492 111.086 29.7492C104.142 29.7492 99.5479 25.104 99.5479 19.3806C99.5496 18.0074 99.8737 16.6535 100.495 15.4263L105.291 16.4831C105.974 21.4845 111.134 25.2268 116.261 25.2268C117.866 25.1504 119.44 24.756 120.888 24.0669C122.337 23.3777 123.63 22.4078 124.695 21.2145Z" fill="#00E29B"/>
</g>
<defs>
<clipPath id="clip0_165_68">
<rect width="126" height="30" fill="white"/>
</clipPath>
</defs>
</svg>
